M48
; DRILL file {KiCad (5.1.2)-2} date 19/10/2021 00:11:09
; FORMAT={-:-/ absolute / inch / decimal}
; #@! TF.CreationDate,2021-10-19T00:11:09+01:00
; #@! TF.GenerationSoftware,Kicad,Pcbnew,(5.1.2)-2
; #@! TF.FileFunction,Plated,1,4,PTH
FMAT,2
INCH
T1C0.0118
T2C0.0157
T3C0.0394
%
G90
G05
T1
X5.0118Y-2.9301
X5.0315Y-2.9055
X5.0482Y-3.0103
X5.1654Y-2.9921
X5.1658Y-2.9565
T2
X4.4341Y-3.1102
X4.4488Y-2.5
X4.4488Y-2.5394
X4.4882Y-2.5
X4.4882Y-2.5394
X4.5276Y-3.0217
X4.5374Y-2.5
X4.5374Y-2.5394
X4.5965Y-2.7977
X4.6161Y-3.0709
X4.6555Y-2.8248
X4.6555Y-2.8642
X4.6949Y-2.8248
X4.6949Y-2.8642
X4.7244Y-3.0315
X4.7343Y-2.8248
X4.7343Y-2.8642
X4.7736Y-2.7559
X4.7736Y-2.8248
X4.7736Y-2.8642
X4.7736Y-3.1201
X4.8327Y-2.5591
X4.8327Y-2.6181
X4.8327Y-2.6772
X4.8327Y-3.0335
X4.8819Y-2.5591
X4.8819Y-2.6181
X4.8819Y-2.6772
X4.9129Y-2.9641
X4.9311Y-3.0512
X4.9724Y-2.9016
X5.0787Y-2.3917
X5.0787Y-2.7067
X5.1654Y-2.8583
X5.1772Y-3.0807
X5.1972Y-3.012
X5.2165Y-2.5591
X5.2165Y-2.6181
X5.2165Y-2.6772
X5.2539Y-2.9543
X5.2657Y-2.5591
X5.2657Y-2.6181
X5.2657Y-2.6772
X5.2756Y-2.9161
X5.3346Y-2.4016
X5.3346Y-2.4409
X5.3346Y-2.4803
X5.3346Y-2.5197
X5.3346Y-2.5591
X5.3346Y-2.5984
X5.374Y-2.4016
X5.374Y-2.4409
X5.374Y-2.4803
X5.374Y-2.5197
X5.374Y-2.5591
X5.374Y-2.5984
X5.4134Y-2.4016
X5.4134Y-2.4409
X5.4134Y-2.4803
X5.4134Y-2.5197
X5.4134Y-2.5591
X5.4134Y-2.5984
X5.4232Y-2.9823
X5.4249Y-3.043
X5.4528Y-2.4016
X5.4528Y-2.4409
X5.4528Y-2.4803
X5.4528Y-2.5197
X5.4528Y-2.5591
X5.4528Y-2.5984
X5.4921Y-2.4016
X5.4921Y-2.4409
X5.4921Y-2.4803
X5.4921Y-2.5197
X5.4921Y-2.5591
X5.4921Y-2.5984
X5.5118Y-3.0512
X5.5315Y-2.4016
X5.5807Y-2.6181
X5.5807Y-2.6575
X5.5807Y-2.6969
X5.5807Y-2.7362
X5.5807Y-2.7756
X5.5807Y-2.815
X5.5906Y-2.4016
X5.5906Y-2.9134
X5.6004Y-3.0315
X5.6201Y-2.6181
X5.6201Y-2.6575
X5.6201Y-2.6969
X5.6201Y-2.7362
X5.6201Y-2.7756
X5.6201Y-2.815
X5.6299Y-2.4409
X5.6594Y-2.6181
X5.6594Y-2.6575
X5.6594Y-2.6969
X5.6594Y-2.7362
X5.6594Y-2.7756
X5.6594Y-2.815
X5.689Y-2.4409
X5.6988Y-2.6181
X5.6988Y-2.6575
X5.6988Y-2.6969
X5.6988Y-2.7362
X5.6988Y-2.7756
X5.6988Y-2.815
X5.7087Y-2.9331
X5.7185Y-2.4409
X5.7283Y-3.0709
X5.7382Y-2.6181
X5.7382Y-2.6575
X5.7382Y-2.6969
X5.7382Y-2.7362
X5.7382Y-2.7756
X5.7382Y-2.815
X5.7776Y-2.4409
X5.7776Y-2.6181
X5.7776Y-2.6575
X5.7776Y-2.6969
X5.7776Y-2.7362
X5.8228Y-3.125
X5.8362Y-3.0551
X5.8366Y-2.9331
T3
X5.9134Y-2.748
X5.9134Y-2.848
X4.4803Y-2.7402
X4.4803Y-2.8402
X5.9134Y-2.4335
X5.9134Y-2.5335
T0
M30
