G04 #@! TF.GenerationSoftware,KiCad,Pcbnew,(5.1.2)-2*
G04 #@! TF.CreationDate,2021-10-19T00:11:07+01:00*
G04 #@! TF.ProjectId,HVDCDC,48564443-4443-42e6-9b69-6361645f7063,rev?*
G04 #@! TF.SameCoordinates,Original*
G04 #@! TF.FileFunction,Soldermask,Bot*
G04 #@! TF.FilePolarity,Negative*
%FSLAX46Y46*%
G04 Gerber Fmt 4.6, Leading zero omitted, Abs format (unit mm)*
G04 Created by KiCad (PCBNEW (5.1.2)-2) date 2021-10-19 00:11:07*
%MOMM*%
%LPD*%
G04 APERTURE LIST*
%ADD10C,0.100000*%
G04 APERTURE END LIST*
D10*
G36*
X130801000Y-75461000D02*
G01*
X128299000Y-75461000D01*
X128299000Y-74619000D01*
X130801000Y-74619000D01*
X130801000Y-75461000D01*
X130801000Y-75461000D01*
G37*
G36*
X134701000Y-75461000D02*
G01*
X132199000Y-75461000D01*
X132199000Y-74619000D01*
X134701000Y-74619000D01*
X134701000Y-75461000D01*
X134701000Y-75461000D01*
G37*
G36*
X134701000Y-74191000D02*
G01*
X132199000Y-74191000D01*
X132199000Y-73349000D01*
X134701000Y-73349000D01*
X134701000Y-74191000D01*
X134701000Y-74191000D01*
G37*
G36*
X130801000Y-74191000D02*
G01*
X128299000Y-74191000D01*
X128299000Y-73349000D01*
X130801000Y-73349000D01*
X130801000Y-74191000D01*
X130801000Y-74191000D01*
G37*
G36*
X150310442Y-71445518D02*
G01*
X150376627Y-71452037D01*
X150546466Y-71503557D01*
X150702991Y-71587222D01*
X150738729Y-71616552D01*
X150840186Y-71699814D01*
X150917097Y-71793532D01*
X150952778Y-71837009D01*
X150952779Y-71837011D01*
X151020322Y-71963373D01*
X151036443Y-71993534D01*
X151087963Y-72163373D01*
X151105359Y-72340000D01*
X151087963Y-72516627D01*
X151036443Y-72686466D01*
X150952778Y-72842991D01*
X150923448Y-72878729D01*
X150840186Y-72980186D01*
X150738729Y-73063448D01*
X150702991Y-73092778D01*
X150546466Y-73176443D01*
X150376627Y-73227963D01*
X150310443Y-73234481D01*
X150244260Y-73241000D01*
X150155740Y-73241000D01*
X150089557Y-73234481D01*
X150023373Y-73227963D01*
X149853534Y-73176443D01*
X149697009Y-73092778D01*
X149661271Y-73063448D01*
X149559814Y-72980186D01*
X149476552Y-72878729D01*
X149447222Y-72842991D01*
X149363557Y-72686466D01*
X149312037Y-72516627D01*
X149294641Y-72340000D01*
X149312037Y-72163373D01*
X149363557Y-71993534D01*
X149379679Y-71963373D01*
X149447221Y-71837011D01*
X149447222Y-71837009D01*
X149482903Y-71793532D01*
X149559814Y-71699814D01*
X149661271Y-71616552D01*
X149697009Y-71587222D01*
X149853534Y-71503557D01*
X150023373Y-71452037D01*
X150089558Y-71445518D01*
X150155740Y-71439000D01*
X150244260Y-71439000D01*
X150310442Y-71445518D01*
X150310442Y-71445518D01*
G37*
G36*
X113910442Y-71245518D02*
G01*
X113976627Y-71252037D01*
X114146466Y-71303557D01*
X114302991Y-71387222D01*
X114338729Y-71416552D01*
X114440186Y-71499814D01*
X114511918Y-71587221D01*
X114552778Y-71637009D01*
X114636443Y-71793534D01*
X114687963Y-71963373D01*
X114705359Y-72140000D01*
X114687963Y-72316627D01*
X114636443Y-72486466D01*
X114636442Y-72486468D01*
X114594610Y-72564729D01*
X114552778Y-72642991D01*
X114523448Y-72678729D01*
X114440186Y-72780186D01*
X114338729Y-72863448D01*
X114302991Y-72892778D01*
X114146466Y-72976443D01*
X113976627Y-73027963D01*
X113910443Y-73034481D01*
X113844260Y-73041000D01*
X113755740Y-73041000D01*
X113689557Y-73034481D01*
X113623373Y-73027963D01*
X113453534Y-72976443D01*
X113297009Y-72892778D01*
X113261271Y-72863448D01*
X113159814Y-72780186D01*
X113076552Y-72678729D01*
X113047222Y-72642991D01*
X113005389Y-72564728D01*
X112963558Y-72486468D01*
X112963557Y-72486466D01*
X112912037Y-72316627D01*
X112894641Y-72140000D01*
X112912037Y-71963373D01*
X112963557Y-71793534D01*
X113047222Y-71637009D01*
X113088082Y-71587221D01*
X113159814Y-71499814D01*
X113261271Y-71416552D01*
X113297009Y-71387222D01*
X113453534Y-71303557D01*
X113623373Y-71252037D01*
X113689558Y-71245518D01*
X113755740Y-71239000D01*
X113844260Y-71239000D01*
X113910442Y-71245518D01*
X113910442Y-71245518D01*
G37*
G36*
X134701000Y-72921000D02*
G01*
X132199000Y-72921000D01*
X132199000Y-72079000D01*
X134701000Y-72079000D01*
X134701000Y-72921000D01*
X134701000Y-72921000D01*
G37*
G36*
X130801000Y-72921000D02*
G01*
X128299000Y-72921000D01*
X128299000Y-72079000D01*
X130801000Y-72079000D01*
X130801000Y-72921000D01*
X130801000Y-72921000D01*
G37*
G36*
X130801000Y-71651000D02*
G01*
X128299000Y-71651000D01*
X128299000Y-70809000D01*
X130801000Y-70809000D01*
X130801000Y-71651000D01*
X130801000Y-71651000D01*
G37*
G36*
X134701000Y-71651000D02*
G01*
X132199000Y-71651000D01*
X132199000Y-70809000D01*
X134701000Y-70809000D01*
X134701000Y-71651000D01*
X134701000Y-71651000D01*
G37*
G36*
X151101000Y-70701000D02*
G01*
X149299000Y-70701000D01*
X149299000Y-68899000D01*
X151101000Y-68899000D01*
X151101000Y-70701000D01*
X151101000Y-70701000D01*
G37*
G36*
X114701000Y-70501000D02*
G01*
X112899000Y-70501000D01*
X112899000Y-68699000D01*
X114701000Y-68699000D01*
X114701000Y-70501000D01*
X114701000Y-70501000D01*
G37*
G36*
X134701000Y-70381000D02*
G01*
X132199000Y-70381000D01*
X132199000Y-69539000D01*
X134701000Y-69539000D01*
X134701000Y-70381000D01*
X134701000Y-70381000D01*
G37*
G36*
X130801000Y-70381000D02*
G01*
X128299000Y-70381000D01*
X128299000Y-69539000D01*
X130801000Y-69539000D01*
X130801000Y-70381000D01*
X130801000Y-70381000D01*
G37*
G36*
X151101000Y-65251000D02*
G01*
X149299000Y-65251000D01*
X149299000Y-63449000D01*
X151101000Y-63449000D01*
X151101000Y-65251000D01*
X151101000Y-65251000D01*
G37*
G36*
X150310443Y-60915519D02*
G01*
X150376627Y-60922037D01*
X150546466Y-60973557D01*
X150702991Y-61057222D01*
X150738729Y-61086552D01*
X150840186Y-61169814D01*
X150923448Y-61271271D01*
X150952778Y-61307009D01*
X151036443Y-61463534D01*
X151087963Y-61633373D01*
X151105359Y-61810000D01*
X151087963Y-61986627D01*
X151036443Y-62156466D01*
X150952778Y-62312991D01*
X150923448Y-62348729D01*
X150840186Y-62450186D01*
X150738729Y-62533448D01*
X150702991Y-62562778D01*
X150546466Y-62646443D01*
X150376627Y-62697963D01*
X150310443Y-62704481D01*
X150244260Y-62711000D01*
X150155740Y-62711000D01*
X150089557Y-62704481D01*
X150023373Y-62697963D01*
X149853534Y-62646443D01*
X149697009Y-62562778D01*
X149661271Y-62533448D01*
X149559814Y-62450186D01*
X149476552Y-62348729D01*
X149447222Y-62312991D01*
X149363557Y-62156466D01*
X149312037Y-61986627D01*
X149294641Y-61810000D01*
X149312037Y-61633373D01*
X149363557Y-61463534D01*
X149447222Y-61307009D01*
X149476552Y-61271271D01*
X149559814Y-61169814D01*
X149661271Y-61086552D01*
X149697009Y-61057222D01*
X149853534Y-60973557D01*
X150023373Y-60922037D01*
X150089557Y-60915519D01*
X150155740Y-60909000D01*
X150244260Y-60909000D01*
X150310443Y-60915519D01*
X150310443Y-60915519D01*
G37*
M02*
