G04 #@! TF.GenerationSoftware,KiCad,Pcbnew,(5.1.2)-2*
G04 #@! TF.CreationDate,2021-10-19T00:11:07+01:00*
G04 #@! TF.ProjectId,HVDCDC,48564443-4443-42e6-9b69-6361645f7063,rev?*
G04 #@! TF.SameCoordinates,Original*
G04 #@! TF.FileFunction,Copper,L2,Inr*
G04 #@! TF.FilePolarity,Positive*
%FSLAX46Y46*%
G04 Gerber Fmt 4.6, Leading zero omitted, Abs format (unit mm)*
G04 Created by KiCad (PCBNEW (5.1.2)-2) date 2021-10-19 00:11:07*
%MOMM*%
%LPD*%
G04 APERTURE LIST*
%ADD10O,1.700000X1.700000*%
%ADD11R,1.700000X1.700000*%
%ADD12C,0.800000*%
%ADD13C,0.600000*%
%ADD14C,0.200000*%
G04 APERTURE END LIST*
D10*
X150200000Y-72340000D03*
D11*
X150200000Y-69800000D03*
D10*
X113800000Y-72140000D03*
D11*
X113800000Y-69600000D03*
D10*
X150200000Y-61810000D03*
D11*
X150200000Y-64350000D03*
D12*
X145250000Y-62000000D03*
X146750000Y-62000000D03*
X144500000Y-62000000D03*
X143000000Y-62000000D03*
X122750000Y-68000000D03*
X122750000Y-66500000D03*
X122750000Y-65000000D03*
X124000000Y-68000000D03*
X124000000Y-66500000D03*
X124000000Y-65000000D03*
X133750000Y-68000000D03*
X132500000Y-68000000D03*
X132500000Y-66500000D03*
X133750000Y-66500000D03*
X133750000Y-65000000D03*
X132500000Y-65000000D03*
X137500000Y-64000000D03*
X136500000Y-64000000D03*
X136500000Y-63000000D03*
X137500000Y-63000000D03*
X138500000Y-63000000D03*
X138500000Y-64000000D03*
X138500000Y-65000000D03*
X137500000Y-65000000D03*
X136500000Y-65000000D03*
X139500000Y-65000000D03*
X139500000Y-64000000D03*
X139500000Y-63000000D03*
X139500000Y-62000000D03*
X138500000Y-62000000D03*
X137500000Y-62000000D03*
X136500000Y-62000000D03*
X139500000Y-61000000D03*
X138500000Y-61000000D03*
X137500000Y-61000000D03*
X136500000Y-61000000D03*
X144750000Y-70500000D03*
X143750000Y-70500000D03*
X142750000Y-70500000D03*
X141750000Y-70500000D03*
X141750000Y-69500000D03*
X142750000Y-69500000D03*
X143750000Y-69500000D03*
X144750000Y-69500000D03*
X145750000Y-69500000D03*
X145750000Y-68500000D03*
X144750000Y-68500000D03*
X143750000Y-68500000D03*
X142750000Y-68500000D03*
X141750000Y-68500000D03*
X141750000Y-67500000D03*
X142750000Y-67500000D03*
X143750000Y-67500000D03*
X144750000Y-67500000D03*
X118250000Y-72750000D03*
X119250000Y-72750000D03*
X120250000Y-72750000D03*
X121250000Y-72750000D03*
X121250000Y-71750000D03*
X120250000Y-71750000D03*
X119250000Y-71750000D03*
X118250000Y-71750000D03*
X117250000Y-78000000D03*
X113000000Y-64500000D03*
X114000000Y-64500000D03*
X115250000Y-64500000D03*
X115250000Y-63500000D03*
X114000000Y-63500000D03*
X113000000Y-63500000D03*
X142000000Y-61000000D03*
X142250000Y-77000000D03*
X125250000Y-77500000D03*
X121250000Y-70000000D03*
X140000000Y-77500000D03*
X148250000Y-74500000D03*
X148239168Y-77599084D03*
X116750000Y-71062510D03*
X112625000Y-79000000D03*
X145000000Y-74500000D03*
X126300000Y-73700004D03*
D13*
X131200000Y-75999999D03*
X127300243Y-74424696D03*
D12*
X131199985Y-72600000D03*
X142000000Y-74000000D03*
X115000000Y-76750000D03*
X121250000Y-79250000D03*
X147900000Y-79375000D03*
X131500000Y-78250016D03*
X145500000Y-78000000D03*
X120000000Y-77000000D03*
X122750000Y-77049968D03*
D13*
X127800000Y-73800000D03*
X131211107Y-75094587D03*
D12*
X141750000Y-66500000D03*
X142750000Y-66500000D03*
X143750000Y-66500000D03*
X144750000Y-66500000D03*
X145750000Y-66500000D03*
X146750000Y-66500000D03*
X146750000Y-67500000D03*
X145750000Y-67500000D03*
X146750000Y-68500000D03*
X146750000Y-69500000D03*
X145750000Y-70500000D03*
X141750000Y-71500000D03*
X142750000Y-71500000D03*
X143750000Y-71500000D03*
X144750000Y-71500000D03*
X145750000Y-71500000D03*
X133450000Y-75040000D03*
X134000000Y-74069998D03*
X132008326Y-76504231D03*
X124787500Y-75287500D03*
D13*
X128225000Y-76460692D03*
D12*
X137750000Y-75750000D03*
X137792659Y-77292663D03*
X135500000Y-61000000D03*
X140500000Y-61000000D03*
X135500000Y-62000000D03*
X139500000Y-66000000D03*
X138500000Y-66000000D03*
X137500000Y-66000000D03*
X136500000Y-66000000D03*
X135500000Y-66000000D03*
X135500000Y-63000000D03*
X135500000Y-64000000D03*
X135500000Y-65000000D03*
X129000000Y-60750000D03*
X129000000Y-68750000D03*
D14*
G36*
X128335359Y-60394742D02*
G01*
X128278822Y-60531233D01*
X128250000Y-60676131D01*
X128250000Y-60823869D01*
X128278822Y-60968767D01*
X128335359Y-61105258D01*
X128417437Y-61228097D01*
X128521903Y-61332563D01*
X128644742Y-61414641D01*
X128781233Y-61471178D01*
X128926131Y-61500000D01*
X129073869Y-61500000D01*
X129218767Y-61471178D01*
X129355258Y-61414641D01*
X129478097Y-61332563D01*
X129582563Y-61228097D01*
X129664641Y-61105258D01*
X129721178Y-60968767D01*
X129750000Y-60823869D01*
X129750000Y-60676131D01*
X129721178Y-60531233D01*
X129664641Y-60394742D01*
X129651450Y-60375000D01*
X135085415Y-60375000D01*
X135021903Y-60417437D01*
X134917437Y-60521903D01*
X134835359Y-60644742D01*
X134778822Y-60781233D01*
X134750000Y-60926131D01*
X134750000Y-61073869D01*
X134778822Y-61218767D01*
X134835359Y-61355258D01*
X134917437Y-61478097D01*
X134939340Y-61500000D01*
X134917437Y-61521903D01*
X134835359Y-61644742D01*
X134778822Y-61781233D01*
X134750000Y-61926131D01*
X134750000Y-62073869D01*
X134778822Y-62218767D01*
X134835359Y-62355258D01*
X134917437Y-62478097D01*
X134939340Y-62500000D01*
X134917437Y-62521903D01*
X134835359Y-62644742D01*
X134778822Y-62781233D01*
X134750000Y-62926131D01*
X134750000Y-63073869D01*
X134778822Y-63218767D01*
X134835359Y-63355258D01*
X134917437Y-63478097D01*
X134939340Y-63500000D01*
X134917437Y-63521903D01*
X134835359Y-63644742D01*
X134778822Y-63781233D01*
X134750000Y-63926131D01*
X134750000Y-64073869D01*
X134778822Y-64218767D01*
X134835359Y-64355258D01*
X134917437Y-64478097D01*
X134939340Y-64500000D01*
X134917437Y-64521903D01*
X134835359Y-64644742D01*
X134778822Y-64781233D01*
X134750000Y-64926131D01*
X134750000Y-65073869D01*
X134778822Y-65218767D01*
X134835359Y-65355258D01*
X134917437Y-65478097D01*
X134939340Y-65500000D01*
X134917437Y-65521903D01*
X134835359Y-65644742D01*
X134778822Y-65781233D01*
X134750000Y-65926131D01*
X134750000Y-66073869D01*
X134778822Y-66218767D01*
X134835359Y-66355258D01*
X134917437Y-66478097D01*
X135021903Y-66582563D01*
X135144742Y-66664641D01*
X135281233Y-66721178D01*
X135426131Y-66750000D01*
X135573869Y-66750000D01*
X135718767Y-66721178D01*
X135855258Y-66664641D01*
X135978097Y-66582563D01*
X136000000Y-66560660D01*
X136021903Y-66582563D01*
X136144742Y-66664641D01*
X136281233Y-66721178D01*
X136426131Y-66750000D01*
X136573869Y-66750000D01*
X136718767Y-66721178D01*
X136855258Y-66664641D01*
X136978097Y-66582563D01*
X137000000Y-66560660D01*
X137021903Y-66582563D01*
X137144742Y-66664641D01*
X137281233Y-66721178D01*
X137426131Y-66750000D01*
X137573869Y-66750000D01*
X137718767Y-66721178D01*
X137855258Y-66664641D01*
X137978097Y-66582563D01*
X138000000Y-66560660D01*
X138021903Y-66582563D01*
X138144742Y-66664641D01*
X138281233Y-66721178D01*
X138426131Y-66750000D01*
X138573869Y-66750000D01*
X138718767Y-66721178D01*
X138855258Y-66664641D01*
X138978097Y-66582563D01*
X139000000Y-66560660D01*
X139021903Y-66582563D01*
X139144742Y-66664641D01*
X139281233Y-66721178D01*
X139426131Y-66750000D01*
X139573869Y-66750000D01*
X139718767Y-66721178D01*
X139855258Y-66664641D01*
X139978097Y-66582563D01*
X140082563Y-66478097D01*
X140117285Y-66426131D01*
X141000000Y-66426131D01*
X141000000Y-66573869D01*
X141028822Y-66718767D01*
X141085359Y-66855258D01*
X141167437Y-66978097D01*
X141189340Y-67000000D01*
X141167437Y-67021903D01*
X141085359Y-67144742D01*
X141028822Y-67281233D01*
X141000000Y-67426131D01*
X141000000Y-67573869D01*
X141028822Y-67718767D01*
X141085359Y-67855258D01*
X141167437Y-67978097D01*
X141189340Y-68000000D01*
X141167437Y-68021903D01*
X141085359Y-68144742D01*
X141028822Y-68281233D01*
X141000000Y-68426131D01*
X141000000Y-68573869D01*
X141028822Y-68718767D01*
X141085359Y-68855258D01*
X141167437Y-68978097D01*
X141189340Y-69000000D01*
X141167437Y-69021903D01*
X141085359Y-69144742D01*
X141028822Y-69281233D01*
X141000000Y-69426131D01*
X141000000Y-69573869D01*
X141028822Y-69718767D01*
X141085359Y-69855258D01*
X141167437Y-69978097D01*
X141189340Y-70000000D01*
X141167437Y-70021903D01*
X141085359Y-70144742D01*
X141028822Y-70281233D01*
X141000000Y-70426131D01*
X141000000Y-70573869D01*
X141028822Y-70718767D01*
X141085359Y-70855258D01*
X141167437Y-70978097D01*
X141189340Y-71000000D01*
X141167437Y-71021903D01*
X141085359Y-71144742D01*
X141028822Y-71281233D01*
X141000000Y-71426131D01*
X141000000Y-71573869D01*
X141028822Y-71718767D01*
X141085359Y-71855258D01*
X141167437Y-71978097D01*
X141271903Y-72082563D01*
X141394742Y-72164641D01*
X141531233Y-72221178D01*
X141676131Y-72250000D01*
X141823869Y-72250000D01*
X141968767Y-72221178D01*
X142105258Y-72164641D01*
X142228097Y-72082563D01*
X142250000Y-72060660D01*
X142271903Y-72082563D01*
X142394742Y-72164641D01*
X142531233Y-72221178D01*
X142676131Y-72250000D01*
X142823869Y-72250000D01*
X142968767Y-72221178D01*
X143105258Y-72164641D01*
X143228097Y-72082563D01*
X143250000Y-72060660D01*
X143271903Y-72082563D01*
X143394742Y-72164641D01*
X143531233Y-72221178D01*
X143676131Y-72250000D01*
X143823869Y-72250000D01*
X143968767Y-72221178D01*
X144105258Y-72164641D01*
X144228097Y-72082563D01*
X144250000Y-72060660D01*
X144271903Y-72082563D01*
X144394742Y-72164641D01*
X144531233Y-72221178D01*
X144676131Y-72250000D01*
X144823869Y-72250000D01*
X144968767Y-72221178D01*
X145105258Y-72164641D01*
X145228097Y-72082563D01*
X145250000Y-72060660D01*
X145271903Y-72082563D01*
X145394742Y-72164641D01*
X145531233Y-72221178D01*
X145676131Y-72250000D01*
X145823869Y-72250000D01*
X145968767Y-72221178D01*
X146105258Y-72164641D01*
X146228097Y-72082563D01*
X146332563Y-71978097D01*
X146414641Y-71855258D01*
X146471178Y-71718767D01*
X146500000Y-71573869D01*
X146500000Y-71426131D01*
X146471178Y-71281233D01*
X146414641Y-71144742D01*
X146332563Y-71021903D01*
X146310660Y-71000000D01*
X146332563Y-70978097D01*
X146414641Y-70855258D01*
X146471178Y-70718767D01*
X146500000Y-70573869D01*
X146500000Y-70426131D01*
X146471178Y-70281233D01*
X146428712Y-70178712D01*
X146531233Y-70221178D01*
X146676131Y-70250000D01*
X146823869Y-70250000D01*
X146968767Y-70221178D01*
X147105258Y-70164641D01*
X147228097Y-70082563D01*
X147332563Y-69978097D01*
X147414641Y-69855258D01*
X147471178Y-69718767D01*
X147500000Y-69573869D01*
X147500000Y-69426131D01*
X147471178Y-69281233D01*
X147414641Y-69144742D01*
X147332563Y-69021903D01*
X147310660Y-69000000D01*
X147332563Y-68978097D01*
X147351336Y-68950000D01*
X148998307Y-68950000D01*
X148998307Y-70650000D01*
X149005065Y-70718612D01*
X149025078Y-70784587D01*
X149057578Y-70845390D01*
X149101315Y-70898685D01*
X149154610Y-70942422D01*
X149215413Y-70974922D01*
X149281388Y-70994935D01*
X149350000Y-71001693D01*
X151050000Y-71001693D01*
X151118612Y-70994935D01*
X151184587Y-70974922D01*
X151245390Y-70942422D01*
X151298685Y-70898685D01*
X151342422Y-70845390D01*
X151374922Y-70784587D01*
X151394935Y-70718612D01*
X151401693Y-70650000D01*
X151401693Y-68950000D01*
X151394935Y-68881388D01*
X151374922Y-68815413D01*
X151342422Y-68754610D01*
X151298685Y-68701315D01*
X151245390Y-68657578D01*
X151184587Y-68625078D01*
X151118612Y-68605065D01*
X151050000Y-68598307D01*
X149350000Y-68598307D01*
X149281388Y-68605065D01*
X149215413Y-68625078D01*
X149154610Y-68657578D01*
X149101315Y-68701315D01*
X149057578Y-68754610D01*
X149025078Y-68815413D01*
X149005065Y-68881388D01*
X148998307Y-68950000D01*
X147351336Y-68950000D01*
X147414641Y-68855258D01*
X147471178Y-68718767D01*
X147500000Y-68573869D01*
X147500000Y-68426131D01*
X147471178Y-68281233D01*
X147414641Y-68144742D01*
X147332563Y-68021903D01*
X147310660Y-68000000D01*
X147332563Y-67978097D01*
X147414641Y-67855258D01*
X147471178Y-67718767D01*
X147500000Y-67573869D01*
X147500000Y-67426131D01*
X147471178Y-67281233D01*
X147414641Y-67144742D01*
X147332563Y-67021903D01*
X147310660Y-67000000D01*
X147332563Y-66978097D01*
X147414641Y-66855258D01*
X147471178Y-66718767D01*
X147500000Y-66573869D01*
X147500000Y-66426131D01*
X147471178Y-66281233D01*
X147414641Y-66144742D01*
X147332563Y-66021903D01*
X147228097Y-65917437D01*
X147105258Y-65835359D01*
X146968767Y-65778822D01*
X146823869Y-65750000D01*
X146676131Y-65750000D01*
X146531233Y-65778822D01*
X146394742Y-65835359D01*
X146271903Y-65917437D01*
X146250000Y-65939340D01*
X146228097Y-65917437D01*
X146105258Y-65835359D01*
X145968767Y-65778822D01*
X145823869Y-65750000D01*
X145676131Y-65750000D01*
X145531233Y-65778822D01*
X145394742Y-65835359D01*
X145271903Y-65917437D01*
X145250000Y-65939340D01*
X145228097Y-65917437D01*
X145105258Y-65835359D01*
X144968767Y-65778822D01*
X144823869Y-65750000D01*
X144676131Y-65750000D01*
X144531233Y-65778822D01*
X144394742Y-65835359D01*
X144271903Y-65917437D01*
X144250000Y-65939340D01*
X144228097Y-65917437D01*
X144105258Y-65835359D01*
X143968767Y-65778822D01*
X143823869Y-65750000D01*
X143676131Y-65750000D01*
X143531233Y-65778822D01*
X143394742Y-65835359D01*
X143271903Y-65917437D01*
X143250000Y-65939340D01*
X143228097Y-65917437D01*
X143105258Y-65835359D01*
X142968767Y-65778822D01*
X142823869Y-65750000D01*
X142676131Y-65750000D01*
X142531233Y-65778822D01*
X142394742Y-65835359D01*
X142271903Y-65917437D01*
X142250000Y-65939340D01*
X142228097Y-65917437D01*
X142105258Y-65835359D01*
X141968767Y-65778822D01*
X141823869Y-65750000D01*
X141676131Y-65750000D01*
X141531233Y-65778822D01*
X141394742Y-65835359D01*
X141271903Y-65917437D01*
X141167437Y-66021903D01*
X141085359Y-66144742D01*
X141028822Y-66281233D01*
X141000000Y-66426131D01*
X140117285Y-66426131D01*
X140164641Y-66355258D01*
X140221178Y-66218767D01*
X140250000Y-66073869D01*
X140250000Y-65926131D01*
X140221178Y-65781233D01*
X140164641Y-65644742D01*
X140082563Y-65521903D01*
X140060660Y-65500000D01*
X140082563Y-65478097D01*
X140164641Y-65355258D01*
X140221178Y-65218767D01*
X140250000Y-65073869D01*
X140250000Y-64926131D01*
X140221178Y-64781233D01*
X140164641Y-64644742D01*
X140082563Y-64521903D01*
X140060660Y-64500000D01*
X140082563Y-64478097D01*
X140164641Y-64355258D01*
X140221178Y-64218767D01*
X140250000Y-64073869D01*
X140250000Y-63926131D01*
X140221178Y-63781233D01*
X140164641Y-63644742D01*
X140082563Y-63521903D01*
X140060660Y-63500000D01*
X140082563Y-63478097D01*
X140164641Y-63355258D01*
X140221178Y-63218767D01*
X140250000Y-63073869D01*
X140250000Y-62926131D01*
X140221178Y-62781233D01*
X140164641Y-62644742D01*
X140082563Y-62521903D01*
X140060660Y-62500000D01*
X140082563Y-62478097D01*
X140164641Y-62355258D01*
X140221178Y-62218767D01*
X140250000Y-62073869D01*
X140250000Y-61926131D01*
X140221178Y-61781233D01*
X140178712Y-61678712D01*
X140281233Y-61721178D01*
X140426131Y-61750000D01*
X140573869Y-61750000D01*
X140718767Y-61721178D01*
X140855258Y-61664641D01*
X140978097Y-61582563D01*
X141082563Y-61478097D01*
X141164641Y-61355258D01*
X141221178Y-61218767D01*
X141250000Y-61073869D01*
X141278822Y-61218767D01*
X141335359Y-61355258D01*
X141417437Y-61478097D01*
X141521903Y-61582563D01*
X141644742Y-61664641D01*
X141781233Y-61721178D01*
X141926131Y-61750000D01*
X142073869Y-61750000D01*
X142218767Y-61721178D01*
X142355258Y-61664641D01*
X142478097Y-61582563D01*
X142582563Y-61478097D01*
X142664641Y-61355258D01*
X142721178Y-61218767D01*
X142750000Y-61073869D01*
X142750000Y-60926131D01*
X142721178Y-60781233D01*
X142664641Y-60644742D01*
X142582563Y-60521903D01*
X142478097Y-60417437D01*
X142414585Y-60375000D01*
X150045998Y-60375000D01*
X150045998Y-60512149D01*
X149821089Y-60402091D01*
X149553700Y-60503065D01*
X149311148Y-60654264D01*
X149102754Y-60849878D01*
X148936527Y-61082389D01*
X148818854Y-61342861D01*
X148792097Y-61431090D01*
X148903111Y-61656000D01*
X150046000Y-61656000D01*
X150046000Y-61636000D01*
X150354000Y-61636000D01*
X150354000Y-61656000D01*
X150374000Y-61656000D01*
X150374000Y-61964000D01*
X150354000Y-61964000D01*
X150354000Y-61984000D01*
X150046000Y-61984000D01*
X150046000Y-61964000D01*
X148903111Y-61964000D01*
X148792097Y-62188910D01*
X148818854Y-62277139D01*
X148936527Y-62537611D01*
X149102754Y-62770122D01*
X149311148Y-62965736D01*
X149553700Y-63116935D01*
X149636776Y-63148307D01*
X149350000Y-63148307D01*
X149281388Y-63155065D01*
X149215413Y-63175078D01*
X149154610Y-63207578D01*
X149101315Y-63251315D01*
X149057578Y-63304610D01*
X149025078Y-63365413D01*
X149005065Y-63431388D01*
X148998307Y-63500000D01*
X148998307Y-65200000D01*
X149005065Y-65268612D01*
X149025078Y-65334587D01*
X149057578Y-65395390D01*
X149101315Y-65448685D01*
X149154610Y-65492422D01*
X149215413Y-65524922D01*
X149281388Y-65544935D01*
X149350000Y-65551693D01*
X151050000Y-65551693D01*
X151118612Y-65544935D01*
X151184587Y-65524922D01*
X151245390Y-65492422D01*
X151298685Y-65448685D01*
X151342422Y-65395390D01*
X151374922Y-65334587D01*
X151394935Y-65268612D01*
X151401693Y-65200000D01*
X151401693Y-63500000D01*
X151394935Y-63431388D01*
X151374922Y-63365413D01*
X151342422Y-63304610D01*
X151298685Y-63251315D01*
X151245390Y-63207578D01*
X151184587Y-63175078D01*
X151118612Y-63155065D01*
X151050000Y-63148307D01*
X150763224Y-63148307D01*
X150846300Y-63116935D01*
X151088852Y-62965736D01*
X151297246Y-62770122D01*
X151463473Y-62537611D01*
X151581146Y-62277139D01*
X151607903Y-62188910D01*
X151496890Y-61964002D01*
X151625000Y-61964002D01*
X151625001Y-79625000D01*
X148608241Y-79625000D01*
X148621178Y-79593767D01*
X148650000Y-79448869D01*
X148650000Y-79301131D01*
X148621178Y-79156233D01*
X148564641Y-79019742D01*
X148482563Y-78896903D01*
X148378097Y-78792437D01*
X148255258Y-78710359D01*
X148118767Y-78653822D01*
X147973869Y-78625000D01*
X147826131Y-78625000D01*
X147681233Y-78653822D01*
X147544742Y-78710359D01*
X147421903Y-78792437D01*
X147317437Y-78896903D01*
X147235359Y-79019742D01*
X147178822Y-79156233D01*
X147150000Y-79301131D01*
X147150000Y-79448869D01*
X147178822Y-79593767D01*
X147191759Y-79625000D01*
X121901450Y-79625000D01*
X121914641Y-79605258D01*
X121971178Y-79468767D01*
X122000000Y-79323869D01*
X122000000Y-79176131D01*
X121971178Y-79031233D01*
X121914641Y-78894742D01*
X121832563Y-78771903D01*
X121728097Y-78667437D01*
X121605258Y-78585359D01*
X121468767Y-78528822D01*
X121323869Y-78500000D01*
X121176131Y-78500000D01*
X121031233Y-78528822D01*
X120894742Y-78585359D01*
X120771903Y-78667437D01*
X120667437Y-78771903D01*
X120585359Y-78894742D01*
X120528822Y-79031233D01*
X120500000Y-79176131D01*
X120500000Y-79323869D01*
X120528822Y-79468767D01*
X120585359Y-79605258D01*
X120598550Y-79625000D01*
X112375000Y-79625000D01*
X112375000Y-78176147D01*
X130750000Y-78176147D01*
X130750000Y-78323885D01*
X130778822Y-78468783D01*
X130835359Y-78605274D01*
X130917437Y-78728113D01*
X131021903Y-78832579D01*
X131144742Y-78914657D01*
X131281233Y-78971194D01*
X131426131Y-79000016D01*
X131573869Y-79000016D01*
X131718767Y-78971194D01*
X131855258Y-78914657D01*
X131978097Y-78832579D01*
X132082563Y-78728113D01*
X132164641Y-78605274D01*
X132221178Y-78468783D01*
X132250000Y-78323885D01*
X132250000Y-78176147D01*
X132221178Y-78031249D01*
X132164641Y-77894758D01*
X132082563Y-77771919D01*
X131978097Y-77667453D01*
X131855258Y-77585375D01*
X131718767Y-77528838D01*
X131573869Y-77500016D01*
X131426131Y-77500016D01*
X131281233Y-77528838D01*
X131144742Y-77585375D01*
X131021903Y-77667453D01*
X130917437Y-77771919D01*
X130835359Y-77894758D01*
X130778822Y-78031249D01*
X130750000Y-78176147D01*
X112375000Y-78176147D01*
X112375000Y-76676131D01*
X114250000Y-76676131D01*
X114250000Y-76823869D01*
X114278822Y-76968767D01*
X114335359Y-77105258D01*
X114417437Y-77228097D01*
X114521903Y-77332563D01*
X114644742Y-77414641D01*
X114781233Y-77471178D01*
X114926131Y-77500000D01*
X115073869Y-77500000D01*
X115218767Y-77471178D01*
X115355258Y-77414641D01*
X115478097Y-77332563D01*
X115582563Y-77228097D01*
X115664641Y-77105258D01*
X115721178Y-76968767D01*
X115729658Y-76926131D01*
X119250000Y-76926131D01*
X119250000Y-77073869D01*
X119278822Y-77218767D01*
X119335359Y-77355258D01*
X119417437Y-77478097D01*
X119521903Y-77582563D01*
X119644742Y-77664641D01*
X119781233Y-77721178D01*
X119926131Y-77750000D01*
X120073869Y-77750000D01*
X120218767Y-77721178D01*
X120355258Y-77664641D01*
X120478097Y-77582563D01*
X120582563Y-77478097D01*
X120664641Y-77355258D01*
X120721178Y-77218767D01*
X120750000Y-77073869D01*
X120750000Y-76976099D01*
X122000000Y-76976099D01*
X122000000Y-77123837D01*
X122028822Y-77268735D01*
X122085359Y-77405226D01*
X122167437Y-77528065D01*
X122271903Y-77632531D01*
X122394742Y-77714609D01*
X122531233Y-77771146D01*
X122676131Y-77799968D01*
X122823869Y-77799968D01*
X122968767Y-77771146D01*
X123105258Y-77714609D01*
X123228097Y-77632531D01*
X123332563Y-77528065D01*
X123414641Y-77405226D01*
X123471178Y-77268735D01*
X123500000Y-77123837D01*
X123500000Y-76976099D01*
X123471178Y-76831201D01*
X123414641Y-76694710D01*
X123332563Y-76571871D01*
X123228097Y-76467405D01*
X123122239Y-76396673D01*
X127575000Y-76396673D01*
X127575000Y-76524711D01*
X127599979Y-76650290D01*
X127648978Y-76768582D01*
X127720112Y-76875043D01*
X127810649Y-76965580D01*
X127917110Y-77036714D01*
X128035402Y-77085713D01*
X128160981Y-77110692D01*
X128289019Y-77110692D01*
X128414598Y-77085713D01*
X128532890Y-77036714D01*
X128639351Y-76965580D01*
X128729888Y-76875043D01*
X128801022Y-76768582D01*
X128850021Y-76650290D01*
X128875000Y-76524711D01*
X128875000Y-76430362D01*
X131258326Y-76430362D01*
X131258326Y-76578100D01*
X131287148Y-76722998D01*
X131343685Y-76859489D01*
X131425763Y-76982328D01*
X131530229Y-77086794D01*
X131653068Y-77168872D01*
X131789559Y-77225409D01*
X131934457Y-77254231D01*
X132082195Y-77254231D01*
X132227093Y-77225409D01*
X132243062Y-77218794D01*
X137042659Y-77218794D01*
X137042659Y-77366532D01*
X137071481Y-77511430D01*
X137128018Y-77647921D01*
X137210096Y-77770760D01*
X137314562Y-77875226D01*
X137437401Y-77957304D01*
X137573892Y-78013841D01*
X137718790Y-78042663D01*
X137866528Y-78042663D01*
X138011426Y-78013841D01*
X138147917Y-77957304D01*
X138194570Y-77926131D01*
X144750000Y-77926131D01*
X144750000Y-78073869D01*
X144778822Y-78218767D01*
X144835359Y-78355258D01*
X144917437Y-78478097D01*
X145021903Y-78582563D01*
X145144742Y-78664641D01*
X145281233Y-78721178D01*
X145426131Y-78750000D01*
X145573869Y-78750000D01*
X145718767Y-78721178D01*
X145855258Y-78664641D01*
X145978097Y-78582563D01*
X146082563Y-78478097D01*
X146164641Y-78355258D01*
X146221178Y-78218767D01*
X146250000Y-78073869D01*
X146250000Y-77926131D01*
X146221178Y-77781233D01*
X146164641Y-77644742D01*
X146082563Y-77521903D01*
X145978097Y-77417437D01*
X145855258Y-77335359D01*
X145718767Y-77278822D01*
X145573869Y-77250000D01*
X145426131Y-77250000D01*
X145281233Y-77278822D01*
X145144742Y-77335359D01*
X145021903Y-77417437D01*
X144917437Y-77521903D01*
X144835359Y-77644742D01*
X144778822Y-77781233D01*
X144750000Y-77926131D01*
X138194570Y-77926131D01*
X138270756Y-77875226D01*
X138375222Y-77770760D01*
X138457300Y-77647921D01*
X138513837Y-77511430D01*
X138542659Y-77366532D01*
X138542659Y-77218794D01*
X138513837Y-77073896D01*
X138457300Y-76937405D01*
X138449767Y-76926131D01*
X141500000Y-76926131D01*
X141500000Y-77073869D01*
X141528822Y-77218767D01*
X141585359Y-77355258D01*
X141667437Y-77478097D01*
X141771903Y-77582563D01*
X141894742Y-77664641D01*
X142031233Y-77721178D01*
X142176131Y-77750000D01*
X142323869Y-77750000D01*
X142468767Y-77721178D01*
X142605258Y-77664641D01*
X142728097Y-77582563D01*
X142832563Y-77478097D01*
X142914641Y-77355258D01*
X142971178Y-77218767D01*
X143000000Y-77073869D01*
X143000000Y-76926131D01*
X142971178Y-76781233D01*
X142914641Y-76644742D01*
X142832563Y-76521903D01*
X142728097Y-76417437D01*
X142605258Y-76335359D01*
X142468767Y-76278822D01*
X142323869Y-76250000D01*
X142176131Y-76250000D01*
X142031233Y-76278822D01*
X141894742Y-76335359D01*
X141771903Y-76417437D01*
X141667437Y-76521903D01*
X141585359Y-76644742D01*
X141528822Y-76781233D01*
X141500000Y-76926131D01*
X138449767Y-76926131D01*
X138375222Y-76814566D01*
X138270756Y-76710100D01*
X138147917Y-76628022D01*
X138011426Y-76571485D01*
X137866528Y-76542663D01*
X137718790Y-76542663D01*
X137573892Y-76571485D01*
X137437401Y-76628022D01*
X137314562Y-76710100D01*
X137210096Y-76814566D01*
X137128018Y-76937405D01*
X137071481Y-77073896D01*
X137042659Y-77218794D01*
X132243062Y-77218794D01*
X132363584Y-77168872D01*
X132486423Y-77086794D01*
X132590889Y-76982328D01*
X132672967Y-76859489D01*
X132729504Y-76722998D01*
X132758326Y-76578100D01*
X132758326Y-76430362D01*
X132729504Y-76285464D01*
X132672967Y-76148973D01*
X132590889Y-76026134D01*
X132486423Y-75921668D01*
X132363584Y-75839590D01*
X132227093Y-75783053D01*
X132082195Y-75754231D01*
X131934457Y-75754231D01*
X131789559Y-75783053D01*
X131653068Y-75839590D01*
X131530229Y-75921668D01*
X131425763Y-76026134D01*
X131343685Y-76148973D01*
X131287148Y-76285464D01*
X131258326Y-76430362D01*
X128875000Y-76430362D01*
X128875000Y-76396673D01*
X128850021Y-76271094D01*
X128801022Y-76152802D01*
X128729888Y-76046341D01*
X128639351Y-75955804D01*
X128532890Y-75884670D01*
X128414598Y-75835671D01*
X128289019Y-75810692D01*
X128160981Y-75810692D01*
X128035402Y-75835671D01*
X127917110Y-75884670D01*
X127810649Y-75955804D01*
X127720112Y-76046341D01*
X127648978Y-76152802D01*
X127599979Y-76271094D01*
X127575000Y-76396673D01*
X123122239Y-76396673D01*
X123105258Y-76385327D01*
X122968767Y-76328790D01*
X122823869Y-76299968D01*
X122676131Y-76299968D01*
X122531233Y-76328790D01*
X122394742Y-76385327D01*
X122271903Y-76467405D01*
X122167437Y-76571871D01*
X122085359Y-76694710D01*
X122028822Y-76831201D01*
X122000000Y-76976099D01*
X120750000Y-76976099D01*
X120750000Y-76926131D01*
X120721178Y-76781233D01*
X120664641Y-76644742D01*
X120582563Y-76521903D01*
X120478097Y-76417437D01*
X120355258Y-76335359D01*
X120218767Y-76278822D01*
X120073869Y-76250000D01*
X119926131Y-76250000D01*
X119781233Y-76278822D01*
X119644742Y-76335359D01*
X119521903Y-76417437D01*
X119417437Y-76521903D01*
X119335359Y-76644742D01*
X119278822Y-76781233D01*
X119250000Y-76926131D01*
X115729658Y-76926131D01*
X115750000Y-76823869D01*
X115750000Y-76676131D01*
X115721178Y-76531233D01*
X115664641Y-76394742D01*
X115582563Y-76271903D01*
X115478097Y-76167437D01*
X115355258Y-76085359D01*
X115218767Y-76028822D01*
X115073869Y-76000000D01*
X114926131Y-76000000D01*
X114781233Y-76028822D01*
X114644742Y-76085359D01*
X114521903Y-76167437D01*
X114417437Y-76271903D01*
X114335359Y-76394742D01*
X114278822Y-76531233D01*
X114250000Y-76676131D01*
X112375000Y-76676131D01*
X112375000Y-75213631D01*
X124037500Y-75213631D01*
X124037500Y-75361369D01*
X124066322Y-75506267D01*
X124122859Y-75642758D01*
X124204937Y-75765597D01*
X124309403Y-75870063D01*
X124432242Y-75952141D01*
X124568733Y-76008678D01*
X124713631Y-76037500D01*
X124861369Y-76037500D01*
X125006267Y-76008678D01*
X125142758Y-75952141D01*
X125265597Y-75870063D01*
X125370063Y-75765597D01*
X125452141Y-75642758D01*
X125508678Y-75506267D01*
X125537500Y-75361369D01*
X125537500Y-75213631D01*
X125508678Y-75068733D01*
X125492870Y-75030568D01*
X130561107Y-75030568D01*
X130561107Y-75158606D01*
X130586086Y-75284185D01*
X130635085Y-75402477D01*
X130706219Y-75508938D01*
X130796756Y-75599475D01*
X130903217Y-75670609D01*
X131021509Y-75719608D01*
X131147088Y-75744587D01*
X131275126Y-75744587D01*
X131400705Y-75719608D01*
X131518997Y-75670609D01*
X131625458Y-75599475D01*
X131715995Y-75508938D01*
X131787129Y-75402477D01*
X131836128Y-75284185D01*
X131861107Y-75158606D01*
X131861107Y-75030568D01*
X131848290Y-74966131D01*
X132700000Y-74966131D01*
X132700000Y-75113869D01*
X132728822Y-75258767D01*
X132785359Y-75395258D01*
X132867437Y-75518097D01*
X132971903Y-75622563D01*
X133094742Y-75704641D01*
X133231233Y-75761178D01*
X133376131Y-75790000D01*
X133523869Y-75790000D01*
X133668767Y-75761178D01*
X133805258Y-75704641D01*
X133847926Y-75676131D01*
X137000000Y-75676131D01*
X137000000Y-75823869D01*
X137028822Y-75968767D01*
X137085359Y-76105258D01*
X137167437Y-76228097D01*
X137271903Y-76332563D01*
X137394742Y-76414641D01*
X137531233Y-76471178D01*
X137676131Y-76500000D01*
X137823869Y-76500000D01*
X137968767Y-76471178D01*
X138105258Y-76414641D01*
X138228097Y-76332563D01*
X138332563Y-76228097D01*
X138414641Y-76105258D01*
X138471178Y-75968767D01*
X138500000Y-75823869D01*
X138500000Y-75676131D01*
X138471178Y-75531233D01*
X138414641Y-75394742D01*
X138332563Y-75271903D01*
X138228097Y-75167437D01*
X138105258Y-75085359D01*
X137968767Y-75028822D01*
X137823869Y-75000000D01*
X137676131Y-75000000D01*
X137531233Y-75028822D01*
X137394742Y-75085359D01*
X137271903Y-75167437D01*
X137167437Y-75271903D01*
X137085359Y-75394742D01*
X137028822Y-75531233D01*
X137000000Y-75676131D01*
X133847926Y-75676131D01*
X133928097Y-75622563D01*
X134032563Y-75518097D01*
X134114641Y-75395258D01*
X134171178Y-75258767D01*
X134200000Y-75113869D01*
X134200000Y-74966131D01*
X134171178Y-74821233D01*
X134163298Y-74802209D01*
X134218767Y-74791176D01*
X134355258Y-74734639D01*
X134478097Y-74652561D01*
X134582563Y-74548095D01*
X134664641Y-74425256D01*
X134721178Y-74288765D01*
X134750000Y-74143867D01*
X134750000Y-73996129D01*
X134736077Y-73926131D01*
X141250000Y-73926131D01*
X141250000Y-74073869D01*
X141278822Y-74218767D01*
X141335359Y-74355258D01*
X141417437Y-74478097D01*
X141521903Y-74582563D01*
X141644742Y-74664641D01*
X141781233Y-74721178D01*
X141926131Y-74750000D01*
X142073869Y-74750000D01*
X142218767Y-74721178D01*
X142355258Y-74664641D01*
X142478097Y-74582563D01*
X142582563Y-74478097D01*
X142664641Y-74355258D01*
X142721178Y-74218767D01*
X142750000Y-74073869D01*
X142750000Y-73926131D01*
X142721178Y-73781233D01*
X142664641Y-73644742D01*
X142582563Y-73521903D01*
X142478097Y-73417437D01*
X142355258Y-73335359D01*
X142218767Y-73278822D01*
X142073869Y-73250000D01*
X141926131Y-73250000D01*
X141781233Y-73278822D01*
X141644742Y-73335359D01*
X141521903Y-73417437D01*
X141417437Y-73521903D01*
X141335359Y-73644742D01*
X141278822Y-73781233D01*
X141250000Y-73926131D01*
X134736077Y-73926131D01*
X134721178Y-73851231D01*
X134664641Y-73714740D01*
X134582563Y-73591901D01*
X134478097Y-73487435D01*
X134355258Y-73405357D01*
X134218767Y-73348820D01*
X134073869Y-73319998D01*
X133926131Y-73319998D01*
X133781233Y-73348820D01*
X133644742Y-73405357D01*
X133521903Y-73487435D01*
X133417437Y-73591901D01*
X133335359Y-73714740D01*
X133278822Y-73851231D01*
X133250000Y-73996129D01*
X133250000Y-74143867D01*
X133278822Y-74288765D01*
X133286702Y-74307789D01*
X133231233Y-74318822D01*
X133094742Y-74375359D01*
X132971903Y-74457437D01*
X132867437Y-74561903D01*
X132785359Y-74684742D01*
X132728822Y-74821233D01*
X132700000Y-74966131D01*
X131848290Y-74966131D01*
X131836128Y-74904989D01*
X131787129Y-74786697D01*
X131715995Y-74680236D01*
X131625458Y-74589699D01*
X131518997Y-74518565D01*
X131400705Y-74469566D01*
X131275126Y-74444587D01*
X131147088Y-74444587D01*
X131021509Y-74469566D01*
X130903217Y-74518565D01*
X130796756Y-74589699D01*
X130706219Y-74680236D01*
X130635085Y-74786697D01*
X130586086Y-74904989D01*
X130561107Y-75030568D01*
X125492870Y-75030568D01*
X125452141Y-74932242D01*
X125370063Y-74809403D01*
X125265597Y-74704937D01*
X125142758Y-74622859D01*
X125006267Y-74566322D01*
X124861369Y-74537500D01*
X124713631Y-74537500D01*
X124568733Y-74566322D01*
X124432242Y-74622859D01*
X124309403Y-74704937D01*
X124204937Y-74809403D01*
X124122859Y-74932242D01*
X124066322Y-75068733D01*
X124037500Y-75213631D01*
X112375000Y-75213631D01*
X112375000Y-73735981D01*
X127150000Y-73735981D01*
X127150000Y-73864019D01*
X127174979Y-73989598D01*
X127223978Y-74107890D01*
X127295112Y-74214351D01*
X127385649Y-74304888D01*
X127492110Y-74376022D01*
X127610402Y-74425021D01*
X127735981Y-74450000D01*
X127864019Y-74450000D01*
X127989598Y-74425021D01*
X128107890Y-74376022D01*
X128214351Y-74304888D01*
X128304888Y-74214351D01*
X128376022Y-74107890D01*
X128425021Y-73989598D01*
X128450000Y-73864019D01*
X128450000Y-73735981D01*
X128425021Y-73610402D01*
X128376022Y-73492110D01*
X128304888Y-73385649D01*
X128214351Y-73295112D01*
X128107890Y-73223978D01*
X127989598Y-73174979D01*
X127864019Y-73150000D01*
X127735981Y-73150000D01*
X127610402Y-73174979D01*
X127492110Y-73223978D01*
X127385649Y-73295112D01*
X127295112Y-73385649D01*
X127223978Y-73492110D01*
X127174979Y-73610402D01*
X127150000Y-73735981D01*
X112375000Y-73735981D01*
X112375000Y-72294002D01*
X112503110Y-72294002D01*
X112392097Y-72518910D01*
X112418854Y-72607139D01*
X112536527Y-72867611D01*
X112702754Y-73100122D01*
X112911148Y-73295736D01*
X113153700Y-73446935D01*
X113421089Y-73547909D01*
X113646000Y-73437850D01*
X113646000Y-72294000D01*
X113954000Y-72294000D01*
X113954000Y-73437850D01*
X114178911Y-73547909D01*
X114446300Y-73446935D01*
X114688852Y-73295736D01*
X114897246Y-73100122D01*
X115063473Y-72867611D01*
X115181146Y-72607139D01*
X115207903Y-72518910D01*
X115096889Y-72294000D01*
X113954000Y-72294000D01*
X113646000Y-72294000D01*
X113626000Y-72294000D01*
X113626000Y-71986000D01*
X113646000Y-71986000D01*
X113646000Y-71966000D01*
X113954000Y-71966000D01*
X113954000Y-71986000D01*
X115096889Y-71986000D01*
X115207903Y-71761090D01*
X115182138Y-71676131D01*
X117500000Y-71676131D01*
X117500000Y-71823869D01*
X117528822Y-71968767D01*
X117585359Y-72105258D01*
X117667437Y-72228097D01*
X117689340Y-72250000D01*
X117667437Y-72271903D01*
X117585359Y-72394742D01*
X117528822Y-72531233D01*
X117500000Y-72676131D01*
X117500000Y-72823869D01*
X117528822Y-72968767D01*
X117585359Y-73105258D01*
X117667437Y-73228097D01*
X117771903Y-73332563D01*
X117894742Y-73414641D01*
X118031233Y-73471178D01*
X118176131Y-73500000D01*
X118323869Y-73500000D01*
X118468767Y-73471178D01*
X118605258Y-73414641D01*
X118728097Y-73332563D01*
X118750000Y-73310660D01*
X118771903Y-73332563D01*
X118894742Y-73414641D01*
X119031233Y-73471178D01*
X119176131Y-73500000D01*
X119323869Y-73500000D01*
X119468767Y-73471178D01*
X119605258Y-73414641D01*
X119728097Y-73332563D01*
X119750000Y-73310660D01*
X119771903Y-73332563D01*
X119894742Y-73414641D01*
X120031233Y-73471178D01*
X120176131Y-73500000D01*
X120323869Y-73500000D01*
X120468767Y-73471178D01*
X120605258Y-73414641D01*
X120728097Y-73332563D01*
X120750000Y-73310660D01*
X120771903Y-73332563D01*
X120894742Y-73414641D01*
X121031233Y-73471178D01*
X121176131Y-73500000D01*
X121323869Y-73500000D01*
X121468767Y-73471178D01*
X121605258Y-73414641D01*
X121728097Y-73332563D01*
X121832563Y-73228097D01*
X121914641Y-73105258D01*
X121971178Y-72968767D01*
X122000000Y-72823869D01*
X122000000Y-72676131D01*
X121971178Y-72531233D01*
X121914641Y-72394742D01*
X121878064Y-72340000D01*
X148994194Y-72340000D01*
X149017363Y-72575241D01*
X149085981Y-72801442D01*
X149197409Y-73009910D01*
X149347366Y-73192634D01*
X149530090Y-73342591D01*
X149738558Y-73454019D01*
X149964759Y-73522637D01*
X150141050Y-73540000D01*
X150258950Y-73540000D01*
X150435241Y-73522637D01*
X150661442Y-73454019D01*
X150869910Y-73342591D01*
X151052634Y-73192634D01*
X151202591Y-73009910D01*
X151314019Y-72801442D01*
X151382637Y-72575241D01*
X151405806Y-72340000D01*
X151382637Y-72104759D01*
X151314019Y-71878558D01*
X151202591Y-71670090D01*
X151052634Y-71487366D01*
X150869910Y-71337409D01*
X150661442Y-71225981D01*
X150435241Y-71157363D01*
X150258950Y-71140000D01*
X150141050Y-71140000D01*
X149964759Y-71157363D01*
X149738558Y-71225981D01*
X149530090Y-71337409D01*
X149347366Y-71487366D01*
X149197409Y-71670090D01*
X149085981Y-71878558D01*
X149017363Y-72104759D01*
X148994194Y-72340000D01*
X121878064Y-72340000D01*
X121832563Y-72271903D01*
X121810660Y-72250000D01*
X121832563Y-72228097D01*
X121914641Y-72105258D01*
X121971178Y-71968767D01*
X122000000Y-71823869D01*
X122000000Y-71676131D01*
X121971178Y-71531233D01*
X121914641Y-71394742D01*
X121832563Y-71271903D01*
X121728097Y-71167437D01*
X121605258Y-71085359D01*
X121468767Y-71028822D01*
X121323869Y-71000000D01*
X121176131Y-71000000D01*
X121031233Y-71028822D01*
X120894742Y-71085359D01*
X120771903Y-71167437D01*
X120750000Y-71189340D01*
X120728097Y-71167437D01*
X120605258Y-71085359D01*
X120468767Y-71028822D01*
X120323869Y-71000000D01*
X120176131Y-71000000D01*
X120031233Y-71028822D01*
X119894742Y-71085359D01*
X119771903Y-71167437D01*
X119750000Y-71189340D01*
X119728097Y-71167437D01*
X119605258Y-71085359D01*
X119468767Y-71028822D01*
X119323869Y-71000000D01*
X119176131Y-71000000D01*
X119031233Y-71028822D01*
X118894742Y-71085359D01*
X118771903Y-71167437D01*
X118750000Y-71189340D01*
X118728097Y-71167437D01*
X118605258Y-71085359D01*
X118468767Y-71028822D01*
X118323869Y-71000000D01*
X118176131Y-71000000D01*
X118031233Y-71028822D01*
X117894742Y-71085359D01*
X117771903Y-71167437D01*
X117667437Y-71271903D01*
X117585359Y-71394742D01*
X117528822Y-71531233D01*
X117500000Y-71676131D01*
X115182138Y-71676131D01*
X115181146Y-71672861D01*
X115063473Y-71412389D01*
X114897246Y-71179878D01*
X114688852Y-70984264D01*
X114446300Y-70833065D01*
X114363224Y-70801693D01*
X114650000Y-70801693D01*
X114718612Y-70794935D01*
X114784587Y-70774922D01*
X114845390Y-70742422D01*
X114898685Y-70698685D01*
X114942422Y-70645390D01*
X114974922Y-70584587D01*
X114994935Y-70518612D01*
X115001693Y-70450000D01*
X115001693Y-68750000D01*
X114994935Y-68681388D01*
X114974922Y-68615413D01*
X114942422Y-68554610D01*
X114898685Y-68501315D01*
X114845390Y-68457578D01*
X114784587Y-68425078D01*
X114718612Y-68405065D01*
X114650000Y-68398307D01*
X112950000Y-68398307D01*
X112881388Y-68405065D01*
X112815413Y-68425078D01*
X112754610Y-68457578D01*
X112701315Y-68501315D01*
X112657578Y-68554610D01*
X112625078Y-68615413D01*
X112605065Y-68681388D01*
X112598307Y-68750000D01*
X112598307Y-70450000D01*
X112605065Y-70518612D01*
X112625078Y-70584587D01*
X112657578Y-70645390D01*
X112701315Y-70698685D01*
X112754610Y-70742422D01*
X112815413Y-70774922D01*
X112881388Y-70794935D01*
X112950000Y-70801693D01*
X113236776Y-70801693D01*
X113153700Y-70833065D01*
X112911148Y-70984264D01*
X112702754Y-71179878D01*
X112536527Y-71412389D01*
X112418854Y-71672861D01*
X112392097Y-71761090D01*
X112503110Y-71985998D01*
X112375000Y-71985998D01*
X112375000Y-64926131D01*
X122000000Y-64926131D01*
X122000000Y-65073869D01*
X122028822Y-65218767D01*
X122085359Y-65355258D01*
X122167437Y-65478097D01*
X122271903Y-65582563D01*
X122394742Y-65664641D01*
X122531233Y-65721178D01*
X122676131Y-65750000D01*
X122531233Y-65778822D01*
X122394742Y-65835359D01*
X122271903Y-65917437D01*
X122167437Y-66021903D01*
X122085359Y-66144742D01*
X122028822Y-66281233D01*
X122000000Y-66426131D01*
X122000000Y-66573869D01*
X122028822Y-66718767D01*
X122085359Y-66855258D01*
X122167437Y-66978097D01*
X122271903Y-67082563D01*
X122394742Y-67164641D01*
X122531233Y-67221178D01*
X122676131Y-67250000D01*
X122531233Y-67278822D01*
X122394742Y-67335359D01*
X122271903Y-67417437D01*
X122167437Y-67521903D01*
X122085359Y-67644742D01*
X122028822Y-67781233D01*
X122000000Y-67926131D01*
X122000000Y-68073869D01*
X122028822Y-68218767D01*
X122085359Y-68355258D01*
X122167437Y-68478097D01*
X122271903Y-68582563D01*
X122394742Y-68664641D01*
X122531233Y-68721178D01*
X122676131Y-68750000D01*
X122823869Y-68750000D01*
X122968767Y-68721178D01*
X123105258Y-68664641D01*
X123228097Y-68582563D01*
X123332563Y-68478097D01*
X123375000Y-68414585D01*
X123417437Y-68478097D01*
X123521903Y-68582563D01*
X123644742Y-68664641D01*
X123781233Y-68721178D01*
X123926131Y-68750000D01*
X124073869Y-68750000D01*
X124218767Y-68721178D01*
X124327518Y-68676131D01*
X128250000Y-68676131D01*
X128250000Y-68823869D01*
X128278822Y-68968767D01*
X128335359Y-69105258D01*
X128417437Y-69228097D01*
X128521903Y-69332563D01*
X128644742Y-69414641D01*
X128781233Y-69471178D01*
X128926131Y-69500000D01*
X129073869Y-69500000D01*
X129218767Y-69471178D01*
X129355258Y-69414641D01*
X129478097Y-69332563D01*
X129582563Y-69228097D01*
X129664641Y-69105258D01*
X129721178Y-68968767D01*
X129750000Y-68823869D01*
X129750000Y-68676131D01*
X129721178Y-68531233D01*
X129664641Y-68394742D01*
X129582563Y-68271903D01*
X129478097Y-68167437D01*
X129355258Y-68085359D01*
X129218767Y-68028822D01*
X129073869Y-68000000D01*
X128926131Y-68000000D01*
X128781233Y-68028822D01*
X128644742Y-68085359D01*
X128521903Y-68167437D01*
X128417437Y-68271903D01*
X128335359Y-68394742D01*
X128278822Y-68531233D01*
X128250000Y-68676131D01*
X124327518Y-68676131D01*
X124355258Y-68664641D01*
X124478097Y-68582563D01*
X124582563Y-68478097D01*
X124664641Y-68355258D01*
X124721178Y-68218767D01*
X124750000Y-68073869D01*
X124750000Y-67926131D01*
X124721178Y-67781233D01*
X124664641Y-67644742D01*
X124582563Y-67521903D01*
X124478097Y-67417437D01*
X124355258Y-67335359D01*
X124218767Y-67278822D01*
X124073869Y-67250000D01*
X124218767Y-67221178D01*
X124355258Y-67164641D01*
X124478097Y-67082563D01*
X124582563Y-66978097D01*
X124664641Y-66855258D01*
X124721178Y-66718767D01*
X124750000Y-66573869D01*
X124750000Y-66426131D01*
X124721178Y-66281233D01*
X124664641Y-66144742D01*
X124582563Y-66021903D01*
X124478097Y-65917437D01*
X124355258Y-65835359D01*
X124218767Y-65778822D01*
X124073869Y-65750000D01*
X124218767Y-65721178D01*
X124355258Y-65664641D01*
X124478097Y-65582563D01*
X124582563Y-65478097D01*
X124664641Y-65355258D01*
X124721178Y-65218767D01*
X124750000Y-65073869D01*
X124750000Y-64926131D01*
X131750000Y-64926131D01*
X131750000Y-65073869D01*
X131778822Y-65218767D01*
X131835359Y-65355258D01*
X131917437Y-65478097D01*
X132021903Y-65582563D01*
X132144742Y-65664641D01*
X132281233Y-65721178D01*
X132426131Y-65750000D01*
X132281233Y-65778822D01*
X132144742Y-65835359D01*
X132021903Y-65917437D01*
X131917437Y-66021903D01*
X131835359Y-66144742D01*
X131778822Y-66281233D01*
X131750000Y-66426131D01*
X131750000Y-66573869D01*
X131778822Y-66718767D01*
X131835359Y-66855258D01*
X131917437Y-66978097D01*
X132021903Y-67082563D01*
X132144742Y-67164641D01*
X132281233Y-67221178D01*
X132426131Y-67250000D01*
X132281233Y-67278822D01*
X132144742Y-67335359D01*
X132021903Y-67417437D01*
X131917437Y-67521903D01*
X131835359Y-67644742D01*
X131778822Y-67781233D01*
X131750000Y-67926131D01*
X131750000Y-68073869D01*
X131778822Y-68218767D01*
X131835359Y-68355258D01*
X131917437Y-68478097D01*
X132021903Y-68582563D01*
X132144742Y-68664641D01*
X132281233Y-68721178D01*
X132426131Y-68750000D01*
X132573869Y-68750000D01*
X132718767Y-68721178D01*
X132855258Y-68664641D01*
X132978097Y-68582563D01*
X133082563Y-68478097D01*
X133125000Y-68414585D01*
X133167437Y-68478097D01*
X133271903Y-68582563D01*
X133394742Y-68664641D01*
X133531233Y-68721178D01*
X133676131Y-68750000D01*
X133823869Y-68750000D01*
X133968767Y-68721178D01*
X134105258Y-68664641D01*
X134228097Y-68582563D01*
X134332563Y-68478097D01*
X134414641Y-68355258D01*
X134471178Y-68218767D01*
X134500000Y-68073869D01*
X134500000Y-67926131D01*
X134471178Y-67781233D01*
X134414641Y-67644742D01*
X134332563Y-67521903D01*
X134228097Y-67417437D01*
X134105258Y-67335359D01*
X133968767Y-67278822D01*
X133823869Y-67250000D01*
X133968767Y-67221178D01*
X134105258Y-67164641D01*
X134228097Y-67082563D01*
X134332563Y-66978097D01*
X134414641Y-66855258D01*
X134471178Y-66718767D01*
X134500000Y-66573869D01*
X134500000Y-66426131D01*
X134471178Y-66281233D01*
X134414641Y-66144742D01*
X134332563Y-66021903D01*
X134228097Y-65917437D01*
X134105258Y-65835359D01*
X133968767Y-65778822D01*
X133823869Y-65750000D01*
X133968767Y-65721178D01*
X134105258Y-65664641D01*
X134228097Y-65582563D01*
X134332563Y-65478097D01*
X134414641Y-65355258D01*
X134471178Y-65218767D01*
X134500000Y-65073869D01*
X134500000Y-64926131D01*
X134471178Y-64781233D01*
X134414641Y-64644742D01*
X134332563Y-64521903D01*
X134228097Y-64417437D01*
X134105258Y-64335359D01*
X133968767Y-64278822D01*
X133823869Y-64250000D01*
X133676131Y-64250000D01*
X133531233Y-64278822D01*
X133394742Y-64335359D01*
X133271903Y-64417437D01*
X133167437Y-64521903D01*
X133125000Y-64585415D01*
X133082563Y-64521903D01*
X132978097Y-64417437D01*
X132855258Y-64335359D01*
X132718767Y-64278822D01*
X132573869Y-64250000D01*
X132426131Y-64250000D01*
X132281233Y-64278822D01*
X132144742Y-64335359D01*
X132021903Y-64417437D01*
X131917437Y-64521903D01*
X131835359Y-64644742D01*
X131778822Y-64781233D01*
X131750000Y-64926131D01*
X124750000Y-64926131D01*
X124721178Y-64781233D01*
X124664641Y-64644742D01*
X124582563Y-64521903D01*
X124478097Y-64417437D01*
X124355258Y-64335359D01*
X124218767Y-64278822D01*
X124073869Y-64250000D01*
X123926131Y-64250000D01*
X123781233Y-64278822D01*
X123644742Y-64335359D01*
X123521903Y-64417437D01*
X123417437Y-64521903D01*
X123375000Y-64585415D01*
X123332563Y-64521903D01*
X123228097Y-64417437D01*
X123105258Y-64335359D01*
X122968767Y-64278822D01*
X122823869Y-64250000D01*
X122676131Y-64250000D01*
X122531233Y-64278822D01*
X122394742Y-64335359D01*
X122271903Y-64417437D01*
X122167437Y-64521903D01*
X122085359Y-64644742D01*
X122028822Y-64781233D01*
X122000000Y-64926131D01*
X112375000Y-64926131D01*
X112375000Y-60375000D01*
X128348550Y-60375000D01*
X128335359Y-60394742D01*
X128335359Y-60394742D01*
G37*
X128335359Y-60394742D02*
X128278822Y-60531233D01*
X128250000Y-60676131D01*
X128250000Y-60823869D01*
X128278822Y-60968767D01*
X128335359Y-61105258D01*
X128417437Y-61228097D01*
X128521903Y-61332563D01*
X128644742Y-61414641D01*
X128781233Y-61471178D01*
X128926131Y-61500000D01*
X129073869Y-61500000D01*
X129218767Y-61471178D01*
X129355258Y-61414641D01*
X129478097Y-61332563D01*
X129582563Y-61228097D01*
X129664641Y-61105258D01*
X129721178Y-60968767D01*
X129750000Y-60823869D01*
X129750000Y-60676131D01*
X129721178Y-60531233D01*
X129664641Y-60394742D01*
X129651450Y-60375000D01*
X135085415Y-60375000D01*
X135021903Y-60417437D01*
X134917437Y-60521903D01*
X134835359Y-60644742D01*
X134778822Y-60781233D01*
X134750000Y-60926131D01*
X134750000Y-61073869D01*
X134778822Y-61218767D01*
X134835359Y-61355258D01*
X134917437Y-61478097D01*
X134939340Y-61500000D01*
X134917437Y-61521903D01*
X134835359Y-61644742D01*
X134778822Y-61781233D01*
X134750000Y-61926131D01*
X134750000Y-62073869D01*
X134778822Y-62218767D01*
X134835359Y-62355258D01*
X134917437Y-62478097D01*
X134939340Y-62500000D01*
X134917437Y-62521903D01*
X134835359Y-62644742D01*
X134778822Y-62781233D01*
X134750000Y-62926131D01*
X134750000Y-63073869D01*
X134778822Y-63218767D01*
X134835359Y-63355258D01*
X134917437Y-63478097D01*
X134939340Y-63500000D01*
X134917437Y-63521903D01*
X134835359Y-63644742D01*
X134778822Y-63781233D01*
X134750000Y-63926131D01*
X134750000Y-64073869D01*
X134778822Y-64218767D01*
X134835359Y-64355258D01*
X134917437Y-64478097D01*
X134939340Y-64500000D01*
X134917437Y-64521903D01*
X134835359Y-64644742D01*
X134778822Y-64781233D01*
X134750000Y-64926131D01*
X134750000Y-65073869D01*
X134778822Y-65218767D01*
X134835359Y-65355258D01*
X134917437Y-65478097D01*
X134939340Y-65500000D01*
X134917437Y-65521903D01*
X134835359Y-65644742D01*
X134778822Y-65781233D01*
X134750000Y-65926131D01*
X134750000Y-66073869D01*
X134778822Y-66218767D01*
X134835359Y-66355258D01*
X134917437Y-66478097D01*
X135021903Y-66582563D01*
X135144742Y-66664641D01*
X135281233Y-66721178D01*
X135426131Y-66750000D01*
X135573869Y-66750000D01*
X135718767Y-66721178D01*
X135855258Y-66664641D01*
X135978097Y-66582563D01*
X136000000Y-66560660D01*
X136021903Y-66582563D01*
X136144742Y-66664641D01*
X136281233Y-66721178D01*
X136426131Y-66750000D01*
X136573869Y-66750000D01*
X136718767Y-66721178D01*
X136855258Y-66664641D01*
X136978097Y-66582563D01*
X137000000Y-66560660D01*
X137021903Y-66582563D01*
X137144742Y-66664641D01*
X137281233Y-66721178D01*
X137426131Y-66750000D01*
X137573869Y-66750000D01*
X137718767Y-66721178D01*
X137855258Y-66664641D01*
X137978097Y-66582563D01*
X138000000Y-66560660D01*
X138021903Y-66582563D01*
X138144742Y-66664641D01*
X138281233Y-66721178D01*
X138426131Y-66750000D01*
X138573869Y-66750000D01*
X138718767Y-66721178D01*
X138855258Y-66664641D01*
X138978097Y-66582563D01*
X139000000Y-66560660D01*
X139021903Y-66582563D01*
X139144742Y-66664641D01*
X139281233Y-66721178D01*
X139426131Y-66750000D01*
X139573869Y-66750000D01*
X139718767Y-66721178D01*
X139855258Y-66664641D01*
X139978097Y-66582563D01*
X140082563Y-66478097D01*
X140117285Y-66426131D01*
X141000000Y-66426131D01*
X141000000Y-66573869D01*
X141028822Y-66718767D01*
X141085359Y-66855258D01*
X141167437Y-66978097D01*
X141189340Y-67000000D01*
X141167437Y-67021903D01*
X141085359Y-67144742D01*
X141028822Y-67281233D01*
X141000000Y-67426131D01*
X141000000Y-67573869D01*
X141028822Y-67718767D01*
X141085359Y-67855258D01*
X141167437Y-67978097D01*
X141189340Y-68000000D01*
X141167437Y-68021903D01*
X141085359Y-68144742D01*
X141028822Y-68281233D01*
X141000000Y-68426131D01*
X141000000Y-68573869D01*
X141028822Y-68718767D01*
X141085359Y-68855258D01*
X141167437Y-68978097D01*
X141189340Y-69000000D01*
X141167437Y-69021903D01*
X141085359Y-69144742D01*
X141028822Y-69281233D01*
X141000000Y-69426131D01*
X141000000Y-69573869D01*
X141028822Y-69718767D01*
X141085359Y-69855258D01*
X141167437Y-69978097D01*
X141189340Y-70000000D01*
X141167437Y-70021903D01*
X141085359Y-70144742D01*
X141028822Y-70281233D01*
X141000000Y-70426131D01*
X141000000Y-70573869D01*
X141028822Y-70718767D01*
X141085359Y-70855258D01*
X141167437Y-70978097D01*
X141189340Y-71000000D01*
X141167437Y-71021903D01*
X141085359Y-71144742D01*
X141028822Y-71281233D01*
X141000000Y-71426131D01*
X141000000Y-71573869D01*
X141028822Y-71718767D01*
X141085359Y-71855258D01*
X141167437Y-71978097D01*
X141271903Y-72082563D01*
X141394742Y-72164641D01*
X141531233Y-72221178D01*
X141676131Y-72250000D01*
X141823869Y-72250000D01*
X141968767Y-72221178D01*
X142105258Y-72164641D01*
X142228097Y-72082563D01*
X142250000Y-72060660D01*
X142271903Y-72082563D01*
X142394742Y-72164641D01*
X142531233Y-72221178D01*
X142676131Y-72250000D01*
X142823869Y-72250000D01*
X142968767Y-72221178D01*
X143105258Y-72164641D01*
X143228097Y-72082563D01*
X143250000Y-72060660D01*
X143271903Y-72082563D01*
X143394742Y-72164641D01*
X143531233Y-72221178D01*
X143676131Y-72250000D01*
X143823869Y-72250000D01*
X143968767Y-72221178D01*
X144105258Y-72164641D01*
X144228097Y-72082563D01*
X144250000Y-72060660D01*
X144271903Y-72082563D01*
X144394742Y-72164641D01*
X144531233Y-72221178D01*
X144676131Y-72250000D01*
X144823869Y-72250000D01*
X144968767Y-72221178D01*
X145105258Y-72164641D01*
X145228097Y-72082563D01*
X145250000Y-72060660D01*
X145271903Y-72082563D01*
X145394742Y-72164641D01*
X145531233Y-72221178D01*
X145676131Y-72250000D01*
X145823869Y-72250000D01*
X145968767Y-72221178D01*
X146105258Y-72164641D01*
X146228097Y-72082563D01*
X146332563Y-71978097D01*
X146414641Y-71855258D01*
X146471178Y-71718767D01*
X146500000Y-71573869D01*
X146500000Y-71426131D01*
X146471178Y-71281233D01*
X146414641Y-71144742D01*
X146332563Y-71021903D01*
X146310660Y-71000000D01*
X146332563Y-70978097D01*
X146414641Y-70855258D01*
X146471178Y-70718767D01*
X146500000Y-70573869D01*
X146500000Y-70426131D01*
X146471178Y-70281233D01*
X146428712Y-70178712D01*
X146531233Y-70221178D01*
X146676131Y-70250000D01*
X146823869Y-70250000D01*
X146968767Y-70221178D01*
X147105258Y-70164641D01*
X147228097Y-70082563D01*
X147332563Y-69978097D01*
X147414641Y-69855258D01*
X147471178Y-69718767D01*
X147500000Y-69573869D01*
X147500000Y-69426131D01*
X147471178Y-69281233D01*
X147414641Y-69144742D01*
X147332563Y-69021903D01*
X147310660Y-69000000D01*
X147332563Y-68978097D01*
X147351336Y-68950000D01*
X148998307Y-68950000D01*
X148998307Y-70650000D01*
X149005065Y-70718612D01*
X149025078Y-70784587D01*
X149057578Y-70845390D01*
X149101315Y-70898685D01*
X149154610Y-70942422D01*
X149215413Y-70974922D01*
X149281388Y-70994935D01*
X149350000Y-71001693D01*
X151050000Y-71001693D01*
X151118612Y-70994935D01*
X151184587Y-70974922D01*
X151245390Y-70942422D01*
X151298685Y-70898685D01*
X151342422Y-70845390D01*
X151374922Y-70784587D01*
X151394935Y-70718612D01*
X151401693Y-70650000D01*
X151401693Y-68950000D01*
X151394935Y-68881388D01*
X151374922Y-68815413D01*
X151342422Y-68754610D01*
X151298685Y-68701315D01*
X151245390Y-68657578D01*
X151184587Y-68625078D01*
X151118612Y-68605065D01*
X151050000Y-68598307D01*
X149350000Y-68598307D01*
X149281388Y-68605065D01*
X149215413Y-68625078D01*
X149154610Y-68657578D01*
X149101315Y-68701315D01*
X149057578Y-68754610D01*
X149025078Y-68815413D01*
X149005065Y-68881388D01*
X148998307Y-68950000D01*
X147351336Y-68950000D01*
X147414641Y-68855258D01*
X147471178Y-68718767D01*
X147500000Y-68573869D01*
X147500000Y-68426131D01*
X147471178Y-68281233D01*
X147414641Y-68144742D01*
X147332563Y-68021903D01*
X147310660Y-68000000D01*
X147332563Y-67978097D01*
X147414641Y-67855258D01*
X147471178Y-67718767D01*
X147500000Y-67573869D01*
X147500000Y-67426131D01*
X147471178Y-67281233D01*
X147414641Y-67144742D01*
X147332563Y-67021903D01*
X147310660Y-67000000D01*
X147332563Y-66978097D01*
X147414641Y-66855258D01*
X147471178Y-66718767D01*
X147500000Y-66573869D01*
X147500000Y-66426131D01*
X147471178Y-66281233D01*
X147414641Y-66144742D01*
X147332563Y-66021903D01*
X147228097Y-65917437D01*
X147105258Y-65835359D01*
X146968767Y-65778822D01*
X146823869Y-65750000D01*
X146676131Y-65750000D01*
X146531233Y-65778822D01*
X146394742Y-65835359D01*
X146271903Y-65917437D01*
X146250000Y-65939340D01*
X146228097Y-65917437D01*
X146105258Y-65835359D01*
X145968767Y-65778822D01*
X145823869Y-65750000D01*
X145676131Y-65750000D01*
X145531233Y-65778822D01*
X145394742Y-65835359D01*
X145271903Y-65917437D01*
X145250000Y-65939340D01*
X145228097Y-65917437D01*
X145105258Y-65835359D01*
X144968767Y-65778822D01*
X144823869Y-65750000D01*
X144676131Y-65750000D01*
X144531233Y-65778822D01*
X144394742Y-65835359D01*
X144271903Y-65917437D01*
X144250000Y-65939340D01*
X144228097Y-65917437D01*
X144105258Y-65835359D01*
X143968767Y-65778822D01*
X143823869Y-65750000D01*
X143676131Y-65750000D01*
X143531233Y-65778822D01*
X143394742Y-65835359D01*
X143271903Y-65917437D01*
X143250000Y-65939340D01*
X143228097Y-65917437D01*
X143105258Y-65835359D01*
X142968767Y-65778822D01*
X142823869Y-65750000D01*
X142676131Y-65750000D01*
X142531233Y-65778822D01*
X142394742Y-65835359D01*
X142271903Y-65917437D01*
X142250000Y-65939340D01*
X142228097Y-65917437D01*
X142105258Y-65835359D01*
X141968767Y-65778822D01*
X141823869Y-65750000D01*
X141676131Y-65750000D01*
X141531233Y-65778822D01*
X141394742Y-65835359D01*
X141271903Y-65917437D01*
X141167437Y-66021903D01*
X141085359Y-66144742D01*
X141028822Y-66281233D01*
X141000000Y-66426131D01*
X140117285Y-66426131D01*
X140164641Y-66355258D01*
X140221178Y-66218767D01*
X140250000Y-66073869D01*
X140250000Y-65926131D01*
X140221178Y-65781233D01*
X140164641Y-65644742D01*
X140082563Y-65521903D01*
X140060660Y-65500000D01*
X140082563Y-65478097D01*
X140164641Y-65355258D01*
X140221178Y-65218767D01*
X140250000Y-65073869D01*
X140250000Y-64926131D01*
X140221178Y-64781233D01*
X140164641Y-64644742D01*
X140082563Y-64521903D01*
X140060660Y-64500000D01*
X140082563Y-64478097D01*
X140164641Y-64355258D01*
X140221178Y-64218767D01*
X140250000Y-64073869D01*
X140250000Y-63926131D01*
X140221178Y-63781233D01*
X140164641Y-63644742D01*
X140082563Y-63521903D01*
X140060660Y-63500000D01*
X140082563Y-63478097D01*
X140164641Y-63355258D01*
X140221178Y-63218767D01*
X140250000Y-63073869D01*
X140250000Y-62926131D01*
X140221178Y-62781233D01*
X140164641Y-62644742D01*
X140082563Y-62521903D01*
X140060660Y-62500000D01*
X140082563Y-62478097D01*
X140164641Y-62355258D01*
X140221178Y-62218767D01*
X140250000Y-62073869D01*
X140250000Y-61926131D01*
X140221178Y-61781233D01*
X140178712Y-61678712D01*
X140281233Y-61721178D01*
X140426131Y-61750000D01*
X140573869Y-61750000D01*
X140718767Y-61721178D01*
X140855258Y-61664641D01*
X140978097Y-61582563D01*
X141082563Y-61478097D01*
X141164641Y-61355258D01*
X141221178Y-61218767D01*
X141250000Y-61073869D01*
X141278822Y-61218767D01*
X141335359Y-61355258D01*
X141417437Y-61478097D01*
X141521903Y-61582563D01*
X141644742Y-61664641D01*
X141781233Y-61721178D01*
X141926131Y-61750000D01*
X142073869Y-61750000D01*
X142218767Y-61721178D01*
X142355258Y-61664641D01*
X142478097Y-61582563D01*
X142582563Y-61478097D01*
X142664641Y-61355258D01*
X142721178Y-61218767D01*
X142750000Y-61073869D01*
X142750000Y-60926131D01*
X142721178Y-60781233D01*
X142664641Y-60644742D01*
X142582563Y-60521903D01*
X142478097Y-60417437D01*
X142414585Y-60375000D01*
X150045998Y-60375000D01*
X150045998Y-60512149D01*
X149821089Y-60402091D01*
X149553700Y-60503065D01*
X149311148Y-60654264D01*
X149102754Y-60849878D01*
X148936527Y-61082389D01*
X148818854Y-61342861D01*
X148792097Y-61431090D01*
X148903111Y-61656000D01*
X150046000Y-61656000D01*
X150046000Y-61636000D01*
X150354000Y-61636000D01*
X150354000Y-61656000D01*
X150374000Y-61656000D01*
X150374000Y-61964000D01*
X150354000Y-61964000D01*
X150354000Y-61984000D01*
X150046000Y-61984000D01*
X150046000Y-61964000D01*
X148903111Y-61964000D01*
X148792097Y-62188910D01*
X148818854Y-62277139D01*
X148936527Y-62537611D01*
X149102754Y-62770122D01*
X149311148Y-62965736D01*
X149553700Y-63116935D01*
X149636776Y-63148307D01*
X149350000Y-63148307D01*
X149281388Y-63155065D01*
X149215413Y-63175078D01*
X149154610Y-63207578D01*
X149101315Y-63251315D01*
X149057578Y-63304610D01*
X149025078Y-63365413D01*
X149005065Y-63431388D01*
X148998307Y-63500000D01*
X148998307Y-65200000D01*
X149005065Y-65268612D01*
X149025078Y-65334587D01*
X149057578Y-65395390D01*
X149101315Y-65448685D01*
X149154610Y-65492422D01*
X149215413Y-65524922D01*
X149281388Y-65544935D01*
X149350000Y-65551693D01*
X151050000Y-65551693D01*
X151118612Y-65544935D01*
X151184587Y-65524922D01*
X151245390Y-65492422D01*
X151298685Y-65448685D01*
X151342422Y-65395390D01*
X151374922Y-65334587D01*
X151394935Y-65268612D01*
X151401693Y-65200000D01*
X151401693Y-63500000D01*
X151394935Y-63431388D01*
X151374922Y-63365413D01*
X151342422Y-63304610D01*
X151298685Y-63251315D01*
X151245390Y-63207578D01*
X151184587Y-63175078D01*
X151118612Y-63155065D01*
X151050000Y-63148307D01*
X150763224Y-63148307D01*
X150846300Y-63116935D01*
X151088852Y-62965736D01*
X151297246Y-62770122D01*
X151463473Y-62537611D01*
X151581146Y-62277139D01*
X151607903Y-62188910D01*
X151496890Y-61964002D01*
X151625000Y-61964002D01*
X151625001Y-79625000D01*
X148608241Y-79625000D01*
X148621178Y-79593767D01*
X148650000Y-79448869D01*
X148650000Y-79301131D01*
X148621178Y-79156233D01*
X148564641Y-79019742D01*
X148482563Y-78896903D01*
X148378097Y-78792437D01*
X148255258Y-78710359D01*
X148118767Y-78653822D01*
X147973869Y-78625000D01*
X147826131Y-78625000D01*
X147681233Y-78653822D01*
X147544742Y-78710359D01*
X147421903Y-78792437D01*
X147317437Y-78896903D01*
X147235359Y-79019742D01*
X147178822Y-79156233D01*
X147150000Y-79301131D01*
X147150000Y-79448869D01*
X147178822Y-79593767D01*
X147191759Y-79625000D01*
X121901450Y-79625000D01*
X121914641Y-79605258D01*
X121971178Y-79468767D01*
X122000000Y-79323869D01*
X122000000Y-79176131D01*
X121971178Y-79031233D01*
X121914641Y-78894742D01*
X121832563Y-78771903D01*
X121728097Y-78667437D01*
X121605258Y-78585359D01*
X121468767Y-78528822D01*
X121323869Y-78500000D01*
X121176131Y-78500000D01*
X121031233Y-78528822D01*
X120894742Y-78585359D01*
X120771903Y-78667437D01*
X120667437Y-78771903D01*
X120585359Y-78894742D01*
X120528822Y-79031233D01*
X120500000Y-79176131D01*
X120500000Y-79323869D01*
X120528822Y-79468767D01*
X120585359Y-79605258D01*
X120598550Y-79625000D01*
X112375000Y-79625000D01*
X112375000Y-78176147D01*
X130750000Y-78176147D01*
X130750000Y-78323885D01*
X130778822Y-78468783D01*
X130835359Y-78605274D01*
X130917437Y-78728113D01*
X131021903Y-78832579D01*
X131144742Y-78914657D01*
X131281233Y-78971194D01*
X131426131Y-79000016D01*
X131573869Y-79000016D01*
X131718767Y-78971194D01*
X131855258Y-78914657D01*
X131978097Y-78832579D01*
X132082563Y-78728113D01*
X132164641Y-78605274D01*
X132221178Y-78468783D01*
X132250000Y-78323885D01*
X132250000Y-78176147D01*
X132221178Y-78031249D01*
X132164641Y-77894758D01*
X132082563Y-77771919D01*
X131978097Y-77667453D01*
X131855258Y-77585375D01*
X131718767Y-77528838D01*
X131573869Y-77500016D01*
X131426131Y-77500016D01*
X131281233Y-77528838D01*
X131144742Y-77585375D01*
X131021903Y-77667453D01*
X130917437Y-77771919D01*
X130835359Y-77894758D01*
X130778822Y-78031249D01*
X130750000Y-78176147D01*
X112375000Y-78176147D01*
X112375000Y-76676131D01*
X114250000Y-76676131D01*
X114250000Y-76823869D01*
X114278822Y-76968767D01*
X114335359Y-77105258D01*
X114417437Y-77228097D01*
X114521903Y-77332563D01*
X114644742Y-77414641D01*
X114781233Y-77471178D01*
X114926131Y-77500000D01*
X115073869Y-77500000D01*
X115218767Y-77471178D01*
X115355258Y-77414641D01*
X115478097Y-77332563D01*
X115582563Y-77228097D01*
X115664641Y-77105258D01*
X115721178Y-76968767D01*
X115729658Y-76926131D01*
X119250000Y-76926131D01*
X119250000Y-77073869D01*
X119278822Y-77218767D01*
X119335359Y-77355258D01*
X119417437Y-77478097D01*
X119521903Y-77582563D01*
X119644742Y-77664641D01*
X119781233Y-77721178D01*
X119926131Y-77750000D01*
X120073869Y-77750000D01*
X120218767Y-77721178D01*
X120355258Y-77664641D01*
X120478097Y-77582563D01*
X120582563Y-77478097D01*
X120664641Y-77355258D01*
X120721178Y-77218767D01*
X120750000Y-77073869D01*
X120750000Y-76976099D01*
X122000000Y-76976099D01*
X122000000Y-77123837D01*
X122028822Y-77268735D01*
X122085359Y-77405226D01*
X122167437Y-77528065D01*
X122271903Y-77632531D01*
X122394742Y-77714609D01*
X122531233Y-77771146D01*
X122676131Y-77799968D01*
X122823869Y-77799968D01*
X122968767Y-77771146D01*
X123105258Y-77714609D01*
X123228097Y-77632531D01*
X123332563Y-77528065D01*
X123414641Y-77405226D01*
X123471178Y-77268735D01*
X123500000Y-77123837D01*
X123500000Y-76976099D01*
X123471178Y-76831201D01*
X123414641Y-76694710D01*
X123332563Y-76571871D01*
X123228097Y-76467405D01*
X123122239Y-76396673D01*
X127575000Y-76396673D01*
X127575000Y-76524711D01*
X127599979Y-76650290D01*
X127648978Y-76768582D01*
X127720112Y-76875043D01*
X127810649Y-76965580D01*
X127917110Y-77036714D01*
X128035402Y-77085713D01*
X128160981Y-77110692D01*
X128289019Y-77110692D01*
X128414598Y-77085713D01*
X128532890Y-77036714D01*
X128639351Y-76965580D01*
X128729888Y-76875043D01*
X128801022Y-76768582D01*
X128850021Y-76650290D01*
X128875000Y-76524711D01*
X128875000Y-76430362D01*
X131258326Y-76430362D01*
X131258326Y-76578100D01*
X131287148Y-76722998D01*
X131343685Y-76859489D01*
X131425763Y-76982328D01*
X131530229Y-77086794D01*
X131653068Y-77168872D01*
X131789559Y-77225409D01*
X131934457Y-77254231D01*
X132082195Y-77254231D01*
X132227093Y-77225409D01*
X132243062Y-77218794D01*
X137042659Y-77218794D01*
X137042659Y-77366532D01*
X137071481Y-77511430D01*
X137128018Y-77647921D01*
X137210096Y-77770760D01*
X137314562Y-77875226D01*
X137437401Y-77957304D01*
X137573892Y-78013841D01*
X137718790Y-78042663D01*
X137866528Y-78042663D01*
X138011426Y-78013841D01*
X138147917Y-77957304D01*
X138194570Y-77926131D01*
X144750000Y-77926131D01*
X144750000Y-78073869D01*
X144778822Y-78218767D01*
X144835359Y-78355258D01*
X144917437Y-78478097D01*
X145021903Y-78582563D01*
X145144742Y-78664641D01*
X145281233Y-78721178D01*
X145426131Y-78750000D01*
X145573869Y-78750000D01*
X145718767Y-78721178D01*
X145855258Y-78664641D01*
X145978097Y-78582563D01*
X146082563Y-78478097D01*
X146164641Y-78355258D01*
X146221178Y-78218767D01*
X146250000Y-78073869D01*
X146250000Y-77926131D01*
X146221178Y-77781233D01*
X146164641Y-77644742D01*
X146082563Y-77521903D01*
X145978097Y-77417437D01*
X145855258Y-77335359D01*
X145718767Y-77278822D01*
X145573869Y-77250000D01*
X145426131Y-77250000D01*
X145281233Y-77278822D01*
X145144742Y-77335359D01*
X145021903Y-77417437D01*
X144917437Y-77521903D01*
X144835359Y-77644742D01*
X144778822Y-77781233D01*
X144750000Y-77926131D01*
X138194570Y-77926131D01*
X138270756Y-77875226D01*
X138375222Y-77770760D01*
X138457300Y-77647921D01*
X138513837Y-77511430D01*
X138542659Y-77366532D01*
X138542659Y-77218794D01*
X138513837Y-77073896D01*
X138457300Y-76937405D01*
X138449767Y-76926131D01*
X141500000Y-76926131D01*
X141500000Y-77073869D01*
X141528822Y-77218767D01*
X141585359Y-77355258D01*
X141667437Y-77478097D01*
X141771903Y-77582563D01*
X141894742Y-77664641D01*
X142031233Y-77721178D01*
X142176131Y-77750000D01*
X142323869Y-77750000D01*
X142468767Y-77721178D01*
X142605258Y-77664641D01*
X142728097Y-77582563D01*
X142832563Y-77478097D01*
X142914641Y-77355258D01*
X142971178Y-77218767D01*
X143000000Y-77073869D01*
X143000000Y-76926131D01*
X142971178Y-76781233D01*
X142914641Y-76644742D01*
X142832563Y-76521903D01*
X142728097Y-76417437D01*
X142605258Y-76335359D01*
X142468767Y-76278822D01*
X142323869Y-76250000D01*
X142176131Y-76250000D01*
X142031233Y-76278822D01*
X141894742Y-76335359D01*
X141771903Y-76417437D01*
X141667437Y-76521903D01*
X141585359Y-76644742D01*
X141528822Y-76781233D01*
X141500000Y-76926131D01*
X138449767Y-76926131D01*
X138375222Y-76814566D01*
X138270756Y-76710100D01*
X138147917Y-76628022D01*
X138011426Y-76571485D01*
X137866528Y-76542663D01*
X137718790Y-76542663D01*
X137573892Y-76571485D01*
X137437401Y-76628022D01*
X137314562Y-76710100D01*
X137210096Y-76814566D01*
X137128018Y-76937405D01*
X137071481Y-77073896D01*
X137042659Y-77218794D01*
X132243062Y-77218794D01*
X132363584Y-77168872D01*
X132486423Y-77086794D01*
X132590889Y-76982328D01*
X132672967Y-76859489D01*
X132729504Y-76722998D01*
X132758326Y-76578100D01*
X132758326Y-76430362D01*
X132729504Y-76285464D01*
X132672967Y-76148973D01*
X132590889Y-76026134D01*
X132486423Y-75921668D01*
X132363584Y-75839590D01*
X132227093Y-75783053D01*
X132082195Y-75754231D01*
X131934457Y-75754231D01*
X131789559Y-75783053D01*
X131653068Y-75839590D01*
X131530229Y-75921668D01*
X131425763Y-76026134D01*
X131343685Y-76148973D01*
X131287148Y-76285464D01*
X131258326Y-76430362D01*
X128875000Y-76430362D01*
X128875000Y-76396673D01*
X128850021Y-76271094D01*
X128801022Y-76152802D01*
X128729888Y-76046341D01*
X128639351Y-75955804D01*
X128532890Y-75884670D01*
X128414598Y-75835671D01*
X128289019Y-75810692D01*
X128160981Y-75810692D01*
X128035402Y-75835671D01*
X127917110Y-75884670D01*
X127810649Y-75955804D01*
X127720112Y-76046341D01*
X127648978Y-76152802D01*
X127599979Y-76271094D01*
X127575000Y-76396673D01*
X123122239Y-76396673D01*
X123105258Y-76385327D01*
X122968767Y-76328790D01*
X122823869Y-76299968D01*
X122676131Y-76299968D01*
X122531233Y-76328790D01*
X122394742Y-76385327D01*
X122271903Y-76467405D01*
X122167437Y-76571871D01*
X122085359Y-76694710D01*
X122028822Y-76831201D01*
X122000000Y-76976099D01*
X120750000Y-76976099D01*
X120750000Y-76926131D01*
X120721178Y-76781233D01*
X120664641Y-76644742D01*
X120582563Y-76521903D01*
X120478097Y-76417437D01*
X120355258Y-76335359D01*
X120218767Y-76278822D01*
X120073869Y-76250000D01*
X119926131Y-76250000D01*
X119781233Y-76278822D01*
X119644742Y-76335359D01*
X119521903Y-76417437D01*
X119417437Y-76521903D01*
X119335359Y-76644742D01*
X119278822Y-76781233D01*
X119250000Y-76926131D01*
X115729658Y-76926131D01*
X115750000Y-76823869D01*
X115750000Y-76676131D01*
X115721178Y-76531233D01*
X115664641Y-76394742D01*
X115582563Y-76271903D01*
X115478097Y-76167437D01*
X115355258Y-76085359D01*
X115218767Y-76028822D01*
X115073869Y-76000000D01*
X114926131Y-76000000D01*
X114781233Y-76028822D01*
X114644742Y-76085359D01*
X114521903Y-76167437D01*
X114417437Y-76271903D01*
X114335359Y-76394742D01*
X114278822Y-76531233D01*
X114250000Y-76676131D01*
X112375000Y-76676131D01*
X112375000Y-75213631D01*
X124037500Y-75213631D01*
X124037500Y-75361369D01*
X124066322Y-75506267D01*
X124122859Y-75642758D01*
X124204937Y-75765597D01*
X124309403Y-75870063D01*
X124432242Y-75952141D01*
X124568733Y-76008678D01*
X124713631Y-76037500D01*
X124861369Y-76037500D01*
X125006267Y-76008678D01*
X125142758Y-75952141D01*
X125265597Y-75870063D01*
X125370063Y-75765597D01*
X125452141Y-75642758D01*
X125508678Y-75506267D01*
X125537500Y-75361369D01*
X125537500Y-75213631D01*
X125508678Y-75068733D01*
X125492870Y-75030568D01*
X130561107Y-75030568D01*
X130561107Y-75158606D01*
X130586086Y-75284185D01*
X130635085Y-75402477D01*
X130706219Y-75508938D01*
X130796756Y-75599475D01*
X130903217Y-75670609D01*
X131021509Y-75719608D01*
X131147088Y-75744587D01*
X131275126Y-75744587D01*
X131400705Y-75719608D01*
X131518997Y-75670609D01*
X131625458Y-75599475D01*
X131715995Y-75508938D01*
X131787129Y-75402477D01*
X131836128Y-75284185D01*
X131861107Y-75158606D01*
X131861107Y-75030568D01*
X131848290Y-74966131D01*
X132700000Y-74966131D01*
X132700000Y-75113869D01*
X132728822Y-75258767D01*
X132785359Y-75395258D01*
X132867437Y-75518097D01*
X132971903Y-75622563D01*
X133094742Y-75704641D01*
X133231233Y-75761178D01*
X133376131Y-75790000D01*
X133523869Y-75790000D01*
X133668767Y-75761178D01*
X133805258Y-75704641D01*
X133847926Y-75676131D01*
X137000000Y-75676131D01*
X137000000Y-75823869D01*
X137028822Y-75968767D01*
X137085359Y-76105258D01*
X137167437Y-76228097D01*
X137271903Y-76332563D01*
X137394742Y-76414641D01*
X137531233Y-76471178D01*
X137676131Y-76500000D01*
X137823869Y-76500000D01*
X137968767Y-76471178D01*
X138105258Y-76414641D01*
X138228097Y-76332563D01*
X138332563Y-76228097D01*
X138414641Y-76105258D01*
X138471178Y-75968767D01*
X138500000Y-75823869D01*
X138500000Y-75676131D01*
X138471178Y-75531233D01*
X138414641Y-75394742D01*
X138332563Y-75271903D01*
X138228097Y-75167437D01*
X138105258Y-75085359D01*
X137968767Y-75028822D01*
X137823869Y-75000000D01*
X137676131Y-75000000D01*
X137531233Y-75028822D01*
X137394742Y-75085359D01*
X137271903Y-75167437D01*
X137167437Y-75271903D01*
X137085359Y-75394742D01*
X137028822Y-75531233D01*
X137000000Y-75676131D01*
X133847926Y-75676131D01*
X133928097Y-75622563D01*
X134032563Y-75518097D01*
X134114641Y-75395258D01*
X134171178Y-75258767D01*
X134200000Y-75113869D01*
X134200000Y-74966131D01*
X134171178Y-74821233D01*
X134163298Y-74802209D01*
X134218767Y-74791176D01*
X134355258Y-74734639D01*
X134478097Y-74652561D01*
X134582563Y-74548095D01*
X134664641Y-74425256D01*
X134721178Y-74288765D01*
X134750000Y-74143867D01*
X134750000Y-73996129D01*
X134736077Y-73926131D01*
X141250000Y-73926131D01*
X141250000Y-74073869D01*
X141278822Y-74218767D01*
X141335359Y-74355258D01*
X141417437Y-74478097D01*
X141521903Y-74582563D01*
X141644742Y-74664641D01*
X141781233Y-74721178D01*
X141926131Y-74750000D01*
X142073869Y-74750000D01*
X142218767Y-74721178D01*
X142355258Y-74664641D01*
X142478097Y-74582563D01*
X142582563Y-74478097D01*
X142664641Y-74355258D01*
X142721178Y-74218767D01*
X142750000Y-74073869D01*
X142750000Y-73926131D01*
X142721178Y-73781233D01*
X142664641Y-73644742D01*
X142582563Y-73521903D01*
X142478097Y-73417437D01*
X142355258Y-73335359D01*
X142218767Y-73278822D01*
X142073869Y-73250000D01*
X141926131Y-73250000D01*
X141781233Y-73278822D01*
X141644742Y-73335359D01*
X141521903Y-73417437D01*
X141417437Y-73521903D01*
X141335359Y-73644742D01*
X141278822Y-73781233D01*
X141250000Y-73926131D01*
X134736077Y-73926131D01*
X134721178Y-73851231D01*
X134664641Y-73714740D01*
X134582563Y-73591901D01*
X134478097Y-73487435D01*
X134355258Y-73405357D01*
X134218767Y-73348820D01*
X134073869Y-73319998D01*
X133926131Y-73319998D01*
X133781233Y-73348820D01*
X133644742Y-73405357D01*
X133521903Y-73487435D01*
X133417437Y-73591901D01*
X133335359Y-73714740D01*
X133278822Y-73851231D01*
X133250000Y-73996129D01*
X133250000Y-74143867D01*
X133278822Y-74288765D01*
X133286702Y-74307789D01*
X133231233Y-74318822D01*
X133094742Y-74375359D01*
X132971903Y-74457437D01*
X132867437Y-74561903D01*
X132785359Y-74684742D01*
X132728822Y-74821233D01*
X132700000Y-74966131D01*
X131848290Y-74966131D01*
X131836128Y-74904989D01*
X131787129Y-74786697D01*
X131715995Y-74680236D01*
X131625458Y-74589699D01*
X131518997Y-74518565D01*
X131400705Y-74469566D01*
X131275126Y-74444587D01*
X131147088Y-74444587D01*
X131021509Y-74469566D01*
X130903217Y-74518565D01*
X130796756Y-74589699D01*
X130706219Y-74680236D01*
X130635085Y-74786697D01*
X130586086Y-74904989D01*
X130561107Y-75030568D01*
X125492870Y-75030568D01*
X125452141Y-74932242D01*
X125370063Y-74809403D01*
X125265597Y-74704937D01*
X125142758Y-74622859D01*
X125006267Y-74566322D01*
X124861369Y-74537500D01*
X124713631Y-74537500D01*
X124568733Y-74566322D01*
X124432242Y-74622859D01*
X124309403Y-74704937D01*
X124204937Y-74809403D01*
X124122859Y-74932242D01*
X124066322Y-75068733D01*
X124037500Y-75213631D01*
X112375000Y-75213631D01*
X112375000Y-73735981D01*
X127150000Y-73735981D01*
X127150000Y-73864019D01*
X127174979Y-73989598D01*
X127223978Y-74107890D01*
X127295112Y-74214351D01*
X127385649Y-74304888D01*
X127492110Y-74376022D01*
X127610402Y-74425021D01*
X127735981Y-74450000D01*
X127864019Y-74450000D01*
X127989598Y-74425021D01*
X128107890Y-74376022D01*
X128214351Y-74304888D01*
X128304888Y-74214351D01*
X128376022Y-74107890D01*
X128425021Y-73989598D01*
X128450000Y-73864019D01*
X128450000Y-73735981D01*
X128425021Y-73610402D01*
X128376022Y-73492110D01*
X128304888Y-73385649D01*
X128214351Y-73295112D01*
X128107890Y-73223978D01*
X127989598Y-73174979D01*
X127864019Y-73150000D01*
X127735981Y-73150000D01*
X127610402Y-73174979D01*
X127492110Y-73223978D01*
X127385649Y-73295112D01*
X127295112Y-73385649D01*
X127223978Y-73492110D01*
X127174979Y-73610402D01*
X127150000Y-73735981D01*
X112375000Y-73735981D01*
X112375000Y-72294002D01*
X112503110Y-72294002D01*
X112392097Y-72518910D01*
X112418854Y-72607139D01*
X112536527Y-72867611D01*
X112702754Y-73100122D01*
X112911148Y-73295736D01*
X113153700Y-73446935D01*
X113421089Y-73547909D01*
X113646000Y-73437850D01*
X113646000Y-72294000D01*
X113954000Y-72294000D01*
X113954000Y-73437850D01*
X114178911Y-73547909D01*
X114446300Y-73446935D01*
X114688852Y-73295736D01*
X114897246Y-73100122D01*
X115063473Y-72867611D01*
X115181146Y-72607139D01*
X115207903Y-72518910D01*
X115096889Y-72294000D01*
X113954000Y-72294000D01*
X113646000Y-72294000D01*
X113626000Y-72294000D01*
X113626000Y-71986000D01*
X113646000Y-71986000D01*
X113646000Y-71966000D01*
X113954000Y-71966000D01*
X113954000Y-71986000D01*
X115096889Y-71986000D01*
X115207903Y-71761090D01*
X115182138Y-71676131D01*
X117500000Y-71676131D01*
X117500000Y-71823869D01*
X117528822Y-71968767D01*
X117585359Y-72105258D01*
X117667437Y-72228097D01*
X117689340Y-72250000D01*
X117667437Y-72271903D01*
X117585359Y-72394742D01*
X117528822Y-72531233D01*
X117500000Y-72676131D01*
X117500000Y-72823869D01*
X117528822Y-72968767D01*
X117585359Y-73105258D01*
X117667437Y-73228097D01*
X117771903Y-73332563D01*
X117894742Y-73414641D01*
X118031233Y-73471178D01*
X118176131Y-73500000D01*
X118323869Y-73500000D01*
X118468767Y-73471178D01*
X118605258Y-73414641D01*
X118728097Y-73332563D01*
X118750000Y-73310660D01*
X118771903Y-73332563D01*
X118894742Y-73414641D01*
X119031233Y-73471178D01*
X119176131Y-73500000D01*
X119323869Y-73500000D01*
X119468767Y-73471178D01*
X119605258Y-73414641D01*
X119728097Y-73332563D01*
X119750000Y-73310660D01*
X119771903Y-73332563D01*
X119894742Y-73414641D01*
X120031233Y-73471178D01*
X120176131Y-73500000D01*
X120323869Y-73500000D01*
X120468767Y-73471178D01*
X120605258Y-73414641D01*
X120728097Y-73332563D01*
X120750000Y-73310660D01*
X120771903Y-73332563D01*
X120894742Y-73414641D01*
X121031233Y-73471178D01*
X121176131Y-73500000D01*
X121323869Y-73500000D01*
X121468767Y-73471178D01*
X121605258Y-73414641D01*
X121728097Y-73332563D01*
X121832563Y-73228097D01*
X121914641Y-73105258D01*
X121971178Y-72968767D01*
X122000000Y-72823869D01*
X122000000Y-72676131D01*
X121971178Y-72531233D01*
X121914641Y-72394742D01*
X121878064Y-72340000D01*
X148994194Y-72340000D01*
X149017363Y-72575241D01*
X149085981Y-72801442D01*
X149197409Y-73009910D01*
X149347366Y-73192634D01*
X149530090Y-73342591D01*
X149738558Y-73454019D01*
X149964759Y-73522637D01*
X150141050Y-73540000D01*
X150258950Y-73540000D01*
X150435241Y-73522637D01*
X150661442Y-73454019D01*
X150869910Y-73342591D01*
X151052634Y-73192634D01*
X151202591Y-73009910D01*
X151314019Y-72801442D01*
X151382637Y-72575241D01*
X151405806Y-72340000D01*
X151382637Y-72104759D01*
X151314019Y-71878558D01*
X151202591Y-71670090D01*
X151052634Y-71487366D01*
X150869910Y-71337409D01*
X150661442Y-71225981D01*
X150435241Y-71157363D01*
X150258950Y-71140000D01*
X150141050Y-71140000D01*
X149964759Y-71157363D01*
X149738558Y-71225981D01*
X149530090Y-71337409D01*
X149347366Y-71487366D01*
X149197409Y-71670090D01*
X149085981Y-71878558D01*
X149017363Y-72104759D01*
X148994194Y-72340000D01*
X121878064Y-72340000D01*
X121832563Y-72271903D01*
X121810660Y-72250000D01*
X121832563Y-72228097D01*
X121914641Y-72105258D01*
X121971178Y-71968767D01*
X122000000Y-71823869D01*
X122000000Y-71676131D01*
X121971178Y-71531233D01*
X121914641Y-71394742D01*
X121832563Y-71271903D01*
X121728097Y-71167437D01*
X121605258Y-71085359D01*
X121468767Y-71028822D01*
X121323869Y-71000000D01*
X121176131Y-71000000D01*
X121031233Y-71028822D01*
X120894742Y-71085359D01*
X120771903Y-71167437D01*
X120750000Y-71189340D01*
X120728097Y-71167437D01*
X120605258Y-71085359D01*
X120468767Y-71028822D01*
X120323869Y-71000000D01*
X120176131Y-71000000D01*
X120031233Y-71028822D01*
X119894742Y-71085359D01*
X119771903Y-71167437D01*
X119750000Y-71189340D01*
X119728097Y-71167437D01*
X119605258Y-71085359D01*
X119468767Y-71028822D01*
X119323869Y-71000000D01*
X119176131Y-71000000D01*
X119031233Y-71028822D01*
X118894742Y-71085359D01*
X118771903Y-71167437D01*
X118750000Y-71189340D01*
X118728097Y-71167437D01*
X118605258Y-71085359D01*
X118468767Y-71028822D01*
X118323869Y-71000000D01*
X118176131Y-71000000D01*
X118031233Y-71028822D01*
X117894742Y-71085359D01*
X117771903Y-71167437D01*
X117667437Y-71271903D01*
X117585359Y-71394742D01*
X117528822Y-71531233D01*
X117500000Y-71676131D01*
X115182138Y-71676131D01*
X115181146Y-71672861D01*
X115063473Y-71412389D01*
X114897246Y-71179878D01*
X114688852Y-70984264D01*
X114446300Y-70833065D01*
X114363224Y-70801693D01*
X114650000Y-70801693D01*
X114718612Y-70794935D01*
X114784587Y-70774922D01*
X114845390Y-70742422D01*
X114898685Y-70698685D01*
X114942422Y-70645390D01*
X114974922Y-70584587D01*
X114994935Y-70518612D01*
X115001693Y-70450000D01*
X115001693Y-68750000D01*
X114994935Y-68681388D01*
X114974922Y-68615413D01*
X114942422Y-68554610D01*
X114898685Y-68501315D01*
X114845390Y-68457578D01*
X114784587Y-68425078D01*
X114718612Y-68405065D01*
X114650000Y-68398307D01*
X112950000Y-68398307D01*
X112881388Y-68405065D01*
X112815413Y-68425078D01*
X112754610Y-68457578D01*
X112701315Y-68501315D01*
X112657578Y-68554610D01*
X112625078Y-68615413D01*
X112605065Y-68681388D01*
X112598307Y-68750000D01*
X112598307Y-70450000D01*
X112605065Y-70518612D01*
X112625078Y-70584587D01*
X112657578Y-70645390D01*
X112701315Y-70698685D01*
X112754610Y-70742422D01*
X112815413Y-70774922D01*
X112881388Y-70794935D01*
X112950000Y-70801693D01*
X113236776Y-70801693D01*
X113153700Y-70833065D01*
X112911148Y-70984264D01*
X112702754Y-71179878D01*
X112536527Y-71412389D01*
X112418854Y-71672861D01*
X112392097Y-71761090D01*
X112503110Y-71985998D01*
X112375000Y-71985998D01*
X112375000Y-64926131D01*
X122000000Y-64926131D01*
X122000000Y-65073869D01*
X122028822Y-65218767D01*
X122085359Y-65355258D01*
X122167437Y-65478097D01*
X122271903Y-65582563D01*
X122394742Y-65664641D01*
X122531233Y-65721178D01*
X122676131Y-65750000D01*
X122531233Y-65778822D01*
X122394742Y-65835359D01*
X122271903Y-65917437D01*
X122167437Y-66021903D01*
X122085359Y-66144742D01*
X122028822Y-66281233D01*
X122000000Y-66426131D01*
X122000000Y-66573869D01*
X122028822Y-66718767D01*
X122085359Y-66855258D01*
X122167437Y-66978097D01*
X122271903Y-67082563D01*
X122394742Y-67164641D01*
X122531233Y-67221178D01*
X122676131Y-67250000D01*
X122531233Y-67278822D01*
X122394742Y-67335359D01*
X122271903Y-67417437D01*
X122167437Y-67521903D01*
X122085359Y-67644742D01*
X122028822Y-67781233D01*
X122000000Y-67926131D01*
X122000000Y-68073869D01*
X122028822Y-68218767D01*
X122085359Y-68355258D01*
X122167437Y-68478097D01*
X122271903Y-68582563D01*
X122394742Y-68664641D01*
X122531233Y-68721178D01*
X122676131Y-68750000D01*
X122823869Y-68750000D01*
X122968767Y-68721178D01*
X123105258Y-68664641D01*
X123228097Y-68582563D01*
X123332563Y-68478097D01*
X123375000Y-68414585D01*
X123417437Y-68478097D01*
X123521903Y-68582563D01*
X123644742Y-68664641D01*
X123781233Y-68721178D01*
X123926131Y-68750000D01*
X124073869Y-68750000D01*
X124218767Y-68721178D01*
X124327518Y-68676131D01*
X128250000Y-68676131D01*
X128250000Y-68823869D01*
X128278822Y-68968767D01*
X128335359Y-69105258D01*
X128417437Y-69228097D01*
X128521903Y-69332563D01*
X128644742Y-69414641D01*
X128781233Y-69471178D01*
X128926131Y-69500000D01*
X129073869Y-69500000D01*
X129218767Y-69471178D01*
X129355258Y-69414641D01*
X129478097Y-69332563D01*
X129582563Y-69228097D01*
X129664641Y-69105258D01*
X129721178Y-68968767D01*
X129750000Y-68823869D01*
X129750000Y-68676131D01*
X129721178Y-68531233D01*
X129664641Y-68394742D01*
X129582563Y-68271903D01*
X129478097Y-68167437D01*
X129355258Y-68085359D01*
X129218767Y-68028822D01*
X129073869Y-68000000D01*
X128926131Y-68000000D01*
X128781233Y-68028822D01*
X128644742Y-68085359D01*
X128521903Y-68167437D01*
X128417437Y-68271903D01*
X128335359Y-68394742D01*
X128278822Y-68531233D01*
X128250000Y-68676131D01*
X124327518Y-68676131D01*
X124355258Y-68664641D01*
X124478097Y-68582563D01*
X124582563Y-68478097D01*
X124664641Y-68355258D01*
X124721178Y-68218767D01*
X124750000Y-68073869D01*
X124750000Y-67926131D01*
X124721178Y-67781233D01*
X124664641Y-67644742D01*
X124582563Y-67521903D01*
X124478097Y-67417437D01*
X124355258Y-67335359D01*
X124218767Y-67278822D01*
X124073869Y-67250000D01*
X124218767Y-67221178D01*
X124355258Y-67164641D01*
X124478097Y-67082563D01*
X124582563Y-66978097D01*
X124664641Y-66855258D01*
X124721178Y-66718767D01*
X124750000Y-66573869D01*
X124750000Y-66426131D01*
X124721178Y-66281233D01*
X124664641Y-66144742D01*
X124582563Y-66021903D01*
X124478097Y-65917437D01*
X124355258Y-65835359D01*
X124218767Y-65778822D01*
X124073869Y-65750000D01*
X124218767Y-65721178D01*
X124355258Y-65664641D01*
X124478097Y-65582563D01*
X124582563Y-65478097D01*
X124664641Y-65355258D01*
X124721178Y-65218767D01*
X124750000Y-65073869D01*
X124750000Y-64926131D01*
X131750000Y-64926131D01*
X131750000Y-65073869D01*
X131778822Y-65218767D01*
X131835359Y-65355258D01*
X131917437Y-65478097D01*
X132021903Y-65582563D01*
X132144742Y-65664641D01*
X132281233Y-65721178D01*
X132426131Y-65750000D01*
X132281233Y-65778822D01*
X132144742Y-65835359D01*
X132021903Y-65917437D01*
X131917437Y-66021903D01*
X131835359Y-66144742D01*
X131778822Y-66281233D01*
X131750000Y-66426131D01*
X131750000Y-66573869D01*
X131778822Y-66718767D01*
X131835359Y-66855258D01*
X131917437Y-66978097D01*
X132021903Y-67082563D01*
X132144742Y-67164641D01*
X132281233Y-67221178D01*
X132426131Y-67250000D01*
X132281233Y-67278822D01*
X132144742Y-67335359D01*
X132021903Y-67417437D01*
X131917437Y-67521903D01*
X131835359Y-67644742D01*
X131778822Y-67781233D01*
X131750000Y-67926131D01*
X131750000Y-68073869D01*
X131778822Y-68218767D01*
X131835359Y-68355258D01*
X131917437Y-68478097D01*
X132021903Y-68582563D01*
X132144742Y-68664641D01*
X132281233Y-68721178D01*
X132426131Y-68750000D01*
X132573869Y-68750000D01*
X132718767Y-68721178D01*
X132855258Y-68664641D01*
X132978097Y-68582563D01*
X133082563Y-68478097D01*
X133125000Y-68414585D01*
X133167437Y-68478097D01*
X133271903Y-68582563D01*
X133394742Y-68664641D01*
X133531233Y-68721178D01*
X133676131Y-68750000D01*
X133823869Y-68750000D01*
X133968767Y-68721178D01*
X134105258Y-68664641D01*
X134228097Y-68582563D01*
X134332563Y-68478097D01*
X134414641Y-68355258D01*
X134471178Y-68218767D01*
X134500000Y-68073869D01*
X134500000Y-67926131D01*
X134471178Y-67781233D01*
X134414641Y-67644742D01*
X134332563Y-67521903D01*
X134228097Y-67417437D01*
X134105258Y-67335359D01*
X133968767Y-67278822D01*
X133823869Y-67250000D01*
X133968767Y-67221178D01*
X134105258Y-67164641D01*
X134228097Y-67082563D01*
X134332563Y-66978097D01*
X134414641Y-66855258D01*
X134471178Y-66718767D01*
X134500000Y-66573869D01*
X134500000Y-66426131D01*
X134471178Y-66281233D01*
X134414641Y-66144742D01*
X134332563Y-66021903D01*
X134228097Y-65917437D01*
X134105258Y-65835359D01*
X133968767Y-65778822D01*
X133823869Y-65750000D01*
X133968767Y-65721178D01*
X134105258Y-65664641D01*
X134228097Y-65582563D01*
X134332563Y-65478097D01*
X134414641Y-65355258D01*
X134471178Y-65218767D01*
X134500000Y-65073869D01*
X134500000Y-64926131D01*
X134471178Y-64781233D01*
X134414641Y-64644742D01*
X134332563Y-64521903D01*
X134228097Y-64417437D01*
X134105258Y-64335359D01*
X133968767Y-64278822D01*
X133823869Y-64250000D01*
X133676131Y-64250000D01*
X133531233Y-64278822D01*
X133394742Y-64335359D01*
X133271903Y-64417437D01*
X133167437Y-64521903D01*
X133125000Y-64585415D01*
X133082563Y-64521903D01*
X132978097Y-64417437D01*
X132855258Y-64335359D01*
X132718767Y-64278822D01*
X132573869Y-64250000D01*
X132426131Y-64250000D01*
X132281233Y-64278822D01*
X132144742Y-64335359D01*
X132021903Y-64417437D01*
X131917437Y-64521903D01*
X131835359Y-64644742D01*
X131778822Y-64781233D01*
X131750000Y-64926131D01*
X124750000Y-64926131D01*
X124721178Y-64781233D01*
X124664641Y-64644742D01*
X124582563Y-64521903D01*
X124478097Y-64417437D01*
X124355258Y-64335359D01*
X124218767Y-64278822D01*
X124073869Y-64250000D01*
X123926131Y-64250000D01*
X123781233Y-64278822D01*
X123644742Y-64335359D01*
X123521903Y-64417437D01*
X123417437Y-64521903D01*
X123375000Y-64585415D01*
X123332563Y-64521903D01*
X123228097Y-64417437D01*
X123105258Y-64335359D01*
X122968767Y-64278822D01*
X122823869Y-64250000D01*
X122676131Y-64250000D01*
X122531233Y-64278822D01*
X122394742Y-64335359D01*
X122271903Y-64417437D01*
X122167437Y-64521903D01*
X122085359Y-64644742D01*
X122028822Y-64781233D01*
X122000000Y-64926131D01*
X112375000Y-64926131D01*
X112375000Y-60375000D01*
X128348550Y-60375000D01*
X128335359Y-60394742D01*
M02*
