G04 #@! TF.GenerationSoftware,KiCad,Pcbnew,(5.1.2)-2*
G04 #@! TF.CreationDate,2021-10-19T00:11:07+01:00*
G04 #@! TF.ProjectId,HVDCDC,48564443-4443-42e6-9b69-6361645f7063,rev?*
G04 #@! TF.SameCoordinates,Original*
G04 #@! TF.FileFunction,Legend,Top*
G04 #@! TF.FilePolarity,Positive*
%FSLAX46Y46*%
G04 Gerber Fmt 4.6, Leading zero omitted, Abs format (unit mm)*
G04 Created by KiCad (PCBNEW (5.1.2)-2) date 2021-10-19 00:11:07*
%MOMM*%
%LPD*%
G04 APERTURE LIST*
%ADD10C,0.150000*%
%ADD11C,0.120000*%
G04 APERTURE END LIST*
D10*
X158722380Y-65857142D02*
X158770000Y-65904761D01*
X158817619Y-66000000D01*
X158817619Y-66238095D01*
X158770000Y-66333333D01*
X158722380Y-66380952D01*
X158627142Y-66428571D01*
X158531904Y-66428571D01*
X158389047Y-66380952D01*
X157817619Y-65809523D01*
X157817619Y-66428571D01*
X158817619Y-67047619D02*
X158817619Y-67142857D01*
X158770000Y-67238095D01*
X158722380Y-67285714D01*
X158627142Y-67333333D01*
X158436666Y-67380952D01*
X158198571Y-67380952D01*
X158008095Y-67333333D01*
X157912857Y-67285714D01*
X157865238Y-67238095D01*
X157817619Y-67142857D01*
X157817619Y-67047619D01*
X157865238Y-66952380D01*
X157912857Y-66904761D01*
X158008095Y-66857142D01*
X158198571Y-66809523D01*
X158436666Y-66809523D01*
X158627142Y-66857142D01*
X158722380Y-66904761D01*
X158770000Y-66952380D01*
X158817619Y-67047619D01*
X157912857Y-67809523D02*
X157865238Y-67857142D01*
X157817619Y-67809523D01*
X157865238Y-67761904D01*
X157912857Y-67809523D01*
X157817619Y-67809523D01*
X158817619Y-68476190D02*
X158817619Y-68571428D01*
X158770000Y-68666666D01*
X158722380Y-68714285D01*
X158627142Y-68761904D01*
X158436666Y-68809523D01*
X158198571Y-68809523D01*
X158008095Y-68761904D01*
X157912857Y-68714285D01*
X157865238Y-68666666D01*
X157817619Y-68571428D01*
X157817619Y-68476190D01*
X157865238Y-68380952D01*
X157912857Y-68333333D01*
X158008095Y-68285714D01*
X158198571Y-68238095D01*
X158436666Y-68238095D01*
X158627142Y-68285714D01*
X158722380Y-68333333D01*
X158770000Y-68380952D01*
X158817619Y-68476190D01*
X158817619Y-69428571D02*
X158817619Y-69523809D01*
X158770000Y-69619047D01*
X158722380Y-69666666D01*
X158627142Y-69714285D01*
X158436666Y-69761904D01*
X158198571Y-69761904D01*
X158008095Y-69714285D01*
X157912857Y-69666666D01*
X157865238Y-69619047D01*
X157817619Y-69523809D01*
X157817619Y-69428571D01*
X157865238Y-69333333D01*
X157912857Y-69285714D01*
X158008095Y-69238095D01*
X158198571Y-69190476D01*
X158436666Y-69190476D01*
X158627142Y-69238095D01*
X158722380Y-69285714D01*
X158770000Y-69333333D01*
X158817619Y-69428571D01*
X158817619Y-70380952D02*
X158817619Y-70476190D01*
X158770000Y-70571428D01*
X158722380Y-70619047D01*
X158627142Y-70666666D01*
X158436666Y-70714285D01*
X158198571Y-70714285D01*
X158008095Y-70666666D01*
X157912857Y-70619047D01*
X157865238Y-70571428D01*
X157817619Y-70476190D01*
X157817619Y-70380952D01*
X157865238Y-70285714D01*
X157912857Y-70238095D01*
X158008095Y-70190476D01*
X158198571Y-70142857D01*
X158436666Y-70142857D01*
X158627142Y-70190476D01*
X158722380Y-70238095D01*
X158770000Y-70285714D01*
X158817619Y-70380952D01*
X157817619Y-71904761D02*
X158484285Y-71904761D01*
X158389047Y-71904761D02*
X158436666Y-71952380D01*
X158484285Y-72047619D01*
X158484285Y-72190476D01*
X158436666Y-72285714D01*
X158341428Y-72333333D01*
X157817619Y-72333333D01*
X158341428Y-72333333D02*
X158436666Y-72380952D01*
X158484285Y-72476190D01*
X158484285Y-72619047D01*
X158436666Y-72714285D01*
X158341428Y-72761904D01*
X157817619Y-72761904D01*
X157817619Y-73238095D02*
X158484285Y-73238095D01*
X158389047Y-73238095D02*
X158436666Y-73285714D01*
X158484285Y-73380952D01*
X158484285Y-73523809D01*
X158436666Y-73619047D01*
X158341428Y-73666666D01*
X157817619Y-73666666D01*
X158341428Y-73666666D02*
X158436666Y-73714285D01*
X158484285Y-73809523D01*
X158484285Y-73952380D01*
X158436666Y-74047619D01*
X158341428Y-74095238D01*
X157817619Y-74095238D01*
D11*
X157000000Y-60000000D02*
X157000000Y-80000000D01*
X152000000Y-60000000D02*
X157586421Y-60000000D01*
X152000000Y-80000000D02*
X157586421Y-80000000D01*
X157000000Y-80000000D02*
X156413579Y-78873496D01*
X157000000Y-80000000D02*
X157586421Y-78873496D01*
X157000000Y-60000000D02*
X156413579Y-61126504D01*
X157000000Y-60000000D02*
X157586421Y-61126504D01*
D10*
X128333333Y-53265714D02*
X128333333Y-53932380D01*
X128095238Y-52884761D02*
X127857142Y-53599047D01*
X128476190Y-53599047D01*
X129047619Y-52932380D02*
X129142857Y-52932380D01*
X129238095Y-52980000D01*
X129285714Y-53027619D01*
X129333333Y-53122857D01*
X129380952Y-53313333D01*
X129380952Y-53551428D01*
X129333333Y-53741904D01*
X129285714Y-53837142D01*
X129238095Y-53884761D01*
X129142857Y-53932380D01*
X129047619Y-53932380D01*
X128952380Y-53884761D01*
X128904761Y-53837142D01*
X128857142Y-53741904D01*
X128809523Y-53551428D01*
X128809523Y-53313333D01*
X128857142Y-53122857D01*
X128904761Y-53027619D01*
X128952380Y-52980000D01*
X129047619Y-52932380D01*
X129809523Y-53837142D02*
X129857142Y-53884761D01*
X129809523Y-53932380D01*
X129761904Y-53884761D01*
X129809523Y-53837142D01*
X129809523Y-53932380D01*
X130476190Y-52932380D02*
X130571428Y-52932380D01*
X130666666Y-52980000D01*
X130714285Y-53027619D01*
X130761904Y-53122857D01*
X130809523Y-53313333D01*
X130809523Y-53551428D01*
X130761904Y-53741904D01*
X130714285Y-53837142D01*
X130666666Y-53884761D01*
X130571428Y-53932380D01*
X130476190Y-53932380D01*
X130380952Y-53884761D01*
X130333333Y-53837142D01*
X130285714Y-53741904D01*
X130238095Y-53551428D01*
X130238095Y-53313333D01*
X130285714Y-53122857D01*
X130333333Y-53027619D01*
X130380952Y-52980000D01*
X130476190Y-52932380D01*
X131428571Y-52932380D02*
X131523809Y-52932380D01*
X131619047Y-52980000D01*
X131666666Y-53027619D01*
X131714285Y-53122857D01*
X131761904Y-53313333D01*
X131761904Y-53551428D01*
X131714285Y-53741904D01*
X131666666Y-53837142D01*
X131619047Y-53884761D01*
X131523809Y-53932380D01*
X131428571Y-53932380D01*
X131333333Y-53884761D01*
X131285714Y-53837142D01*
X131238095Y-53741904D01*
X131190476Y-53551428D01*
X131190476Y-53313333D01*
X131238095Y-53122857D01*
X131285714Y-53027619D01*
X131333333Y-52980000D01*
X131428571Y-52932380D01*
X132380952Y-52932380D02*
X132476190Y-52932380D01*
X132571428Y-52980000D01*
X132619047Y-53027619D01*
X132666666Y-53122857D01*
X132714285Y-53313333D01*
X132714285Y-53551428D01*
X132666666Y-53741904D01*
X132619047Y-53837142D01*
X132571428Y-53884761D01*
X132476190Y-53932380D01*
X132380952Y-53932380D01*
X132285714Y-53884761D01*
X132238095Y-53837142D01*
X132190476Y-53741904D01*
X132142857Y-53551428D01*
X132142857Y-53313333D01*
X132190476Y-53122857D01*
X132238095Y-53027619D01*
X132285714Y-52980000D01*
X132380952Y-52932380D01*
X133904761Y-53932380D02*
X133904761Y-53265714D01*
X133904761Y-53360952D02*
X133952380Y-53313333D01*
X134047619Y-53265714D01*
X134190476Y-53265714D01*
X134285714Y-53313333D01*
X134333333Y-53408571D01*
X134333333Y-53932380D01*
X134333333Y-53408571D02*
X134380952Y-53313333D01*
X134476190Y-53265714D01*
X134619047Y-53265714D01*
X134714285Y-53313333D01*
X134761904Y-53408571D01*
X134761904Y-53932380D01*
X135238095Y-53932380D02*
X135238095Y-53265714D01*
X135238095Y-53360952D02*
X135285714Y-53313333D01*
X135380952Y-53265714D01*
X135523809Y-53265714D01*
X135619047Y-53313333D01*
X135666666Y-53408571D01*
X135666666Y-53932380D01*
X135666666Y-53408571D02*
X135714285Y-53313333D01*
X135809523Y-53265714D01*
X135952380Y-53265714D01*
X136047619Y-53313333D01*
X136095238Y-53408571D01*
X136095238Y-53932380D01*
D11*
X112000000Y-54750000D02*
X152000000Y-54750000D01*
X112000000Y-60000000D02*
X112000000Y-54163579D01*
X152000000Y-60000000D02*
X152000000Y-54163579D01*
X152000000Y-54750000D02*
X150873496Y-55336421D01*
X152000000Y-54750000D02*
X150873496Y-54163579D01*
X112000000Y-54750000D02*
X113126504Y-55336421D01*
X112000000Y-54750000D02*
X113126504Y-54163579D01*
X127490000Y-78037221D02*
X127490000Y-78362779D01*
X128510000Y-78037221D02*
X128510000Y-78362779D01*
X127762779Y-74740000D02*
X127437221Y-74740000D01*
X127762779Y-75760000D02*
X127437221Y-75760000D01*
X145240000Y-73587221D02*
X145240000Y-73912779D01*
X146260000Y-73587221D02*
X146260000Y-73912779D01*
X147087221Y-76510000D02*
X147412779Y-76510000D01*
X147087221Y-75490000D02*
X147412779Y-75490000D01*
X113662779Y-77740000D02*
X113337221Y-77740000D01*
X113662779Y-78760000D02*
X113337221Y-78760000D01*
X127762779Y-73240000D02*
X127437221Y-73240000D01*
X127762779Y-74260000D02*
X127437221Y-74260000D01*
X138760000Y-70912779D02*
X138760000Y-70587221D01*
X137740000Y-70912779D02*
X137740000Y-70587221D01*
X143760000Y-78412779D02*
X143760000Y-78087221D01*
X142740000Y-78412779D02*
X142740000Y-78087221D01*
X142750000Y-76700000D02*
X142750000Y-72850000D01*
X144750000Y-76700000D02*
X144750000Y-72850000D01*
X142750000Y-76700000D02*
X144750000Y-76700000D01*
X118640000Y-68987221D02*
X118640000Y-69312779D01*
X119660000Y-68987221D02*
X119660000Y-69312779D01*
X113337221Y-77160000D02*
X113662779Y-77160000D01*
X113337221Y-76140000D02*
X113662779Y-76140000D01*
X112150000Y-74100000D02*
X114700000Y-74100000D01*
X112150000Y-75800000D02*
X114700000Y-75800000D01*
X112150000Y-74100000D02*
X112150000Y-75800000D01*
X120140000Y-68987221D02*
X120140000Y-69312779D01*
X121160000Y-68987221D02*
X121160000Y-69312779D01*
X115740000Y-70587221D02*
X115740000Y-70912779D01*
X116760000Y-70587221D02*
X116760000Y-70912779D01*
X147560000Y-78412779D02*
X147560000Y-78087221D01*
X146540000Y-78412779D02*
X146540000Y-78087221D01*
X137260000Y-70912779D02*
X137260000Y-70587221D01*
X136240000Y-70912779D02*
X136240000Y-70587221D01*
X147900000Y-79850000D02*
X147900000Y-77300000D01*
X149600000Y-79850000D02*
X149600000Y-77300000D01*
X147900000Y-79850000D02*
X149600000Y-79850000D01*
X148870000Y-68470000D02*
X150200000Y-68470000D01*
X148870000Y-69800000D02*
X148870000Y-68470000D01*
X148870000Y-71070000D02*
X151530000Y-71070000D01*
X151530000Y-71070000D02*
X151530000Y-73670000D01*
X148870000Y-71070000D02*
X148870000Y-73670000D01*
X148870000Y-73670000D02*
X151530000Y-73670000D01*
X112470000Y-68270000D02*
X113800000Y-68270000D01*
X112470000Y-69600000D02*
X112470000Y-68270000D01*
X112470000Y-70870000D02*
X115130000Y-70870000D01*
X115130000Y-70870000D02*
X115130000Y-73470000D01*
X112470000Y-70870000D02*
X112470000Y-73470000D01*
X112470000Y-73470000D02*
X115130000Y-73470000D01*
X151530000Y-65680000D02*
X150200000Y-65680000D01*
X151530000Y-64350000D02*
X151530000Y-65680000D01*
X151530000Y-63080000D02*
X148870000Y-63080000D01*
X148870000Y-63080000D02*
X148870000Y-60480000D01*
X151530000Y-63080000D02*
X151530000Y-60480000D01*
X151530000Y-60480000D02*
X148870000Y-60480000D01*
X148110000Y-73862779D02*
X148110000Y-73537221D01*
X147090000Y-73862779D02*
X147090000Y-73537221D01*
X137190000Y-76000000D02*
X137190000Y-79450000D01*
X137190000Y-76000000D02*
X137190000Y-74050000D01*
X142310000Y-76000000D02*
X142310000Y-77950000D01*
X142310000Y-76000000D02*
X142310000Y-74050000D01*
X146840000Y-70241422D02*
X146840000Y-70758578D01*
X148260000Y-70241422D02*
X148260000Y-70758578D01*
X123490000Y-74337221D02*
X123490000Y-74662779D01*
X124510000Y-74337221D02*
X124510000Y-74662779D01*
X126010000Y-74662779D02*
X126010000Y-74337221D01*
X124990000Y-74662779D02*
X124990000Y-74337221D01*
X149940000Y-77097936D02*
X149940000Y-78302064D01*
X151760000Y-77097936D02*
X151760000Y-78302064D01*
X144660000Y-64302064D02*
X144660000Y-63097936D01*
X142840000Y-64302064D02*
X142840000Y-63097936D01*
X124350000Y-79510000D02*
X126800000Y-79510000D01*
X126150000Y-76290000D02*
X124350000Y-76290000D01*
D10*
X129250000Y-72800000D02*
X135225000Y-72800000D01*
X130775000Y-79700000D02*
X135225000Y-79700000D01*
D11*
X116340000Y-79600000D02*
X116340000Y-73590000D01*
X123160000Y-77350000D02*
X123160000Y-73590000D01*
X116340000Y-73590000D02*
X117600000Y-73590000D01*
X123160000Y-73590000D02*
X121900000Y-73590000D01*
X120793750Y-66241250D02*
X120793750Y-65453750D01*
X121187500Y-65847500D02*
X120400000Y-65847500D01*
X120160000Y-61654437D02*
X119095563Y-60590000D01*
X120160000Y-66345563D02*
X119095563Y-67410000D01*
X120160000Y-66345563D02*
X120160000Y-65060000D01*
X120160000Y-61654437D02*
X120160000Y-62940000D01*
X119095563Y-60590000D02*
X113340000Y-60590000D01*
X119095563Y-67410000D02*
X113340000Y-67410000D01*
X113340000Y-67410000D02*
X113340000Y-65060000D01*
X113340000Y-60590000D02*
X113340000Y-62940000D01*
X146910000Y-64302064D02*
X146910000Y-63097936D01*
X145090000Y-64302064D02*
X145090000Y-63097936D01*
X122500000Y-72650000D02*
G75*
G02X122100000Y-72250000I0J400000D01*
G01*
X122100000Y-60750000D02*
G75*
G02X122500000Y-60350000I400000J0D01*
G01*
X134000000Y-60350000D02*
G75*
G02X134400000Y-60750000I0J-400000D01*
G01*
X134400000Y-72250000D02*
G75*
G02X134000000Y-72650000I-400000J0D01*
G01*
X122100000Y-63500000D02*
X122100000Y-60750000D01*
X134400000Y-63500000D02*
X134400000Y-60750000D01*
X122100000Y-72250000D02*
X122100000Y-69500000D01*
X122500000Y-60350000D02*
X134000000Y-60350000D01*
X134400000Y-72250000D02*
X134400000Y-69500000D01*
X134000000Y-72650000D02*
X122500000Y-72650000D01*
X136200000Y-60250000D02*
X141400000Y-60250000D01*
X135800000Y-65850000D02*
X142400000Y-65850000D01*
X142400000Y-65850000D02*
X142400000Y-65450000D01*
X145400000Y-71850000D02*
X140200000Y-71850000D01*
X145800000Y-66250000D02*
X139200000Y-66250000D01*
X139200000Y-66250000D02*
X139200000Y-66650000D01*
D10*
X147537142Y-74392857D02*
X147584761Y-74440476D01*
X147632380Y-74583333D01*
X147632380Y-74678571D01*
X147584761Y-74821428D01*
X147489523Y-74916666D01*
X147394285Y-74964285D01*
X147203809Y-75011904D01*
X147060952Y-75011904D01*
X146870476Y-74964285D01*
X146775238Y-74916666D01*
X146680000Y-74821428D01*
X146632380Y-74678571D01*
X146632380Y-74583333D01*
X146680000Y-74440476D01*
X146727619Y-74392857D01*
X147632380Y-73440476D02*
X147632380Y-74011904D01*
X147632380Y-73726190D02*
X146632380Y-73726190D01*
X146775238Y-73821428D01*
X146870476Y-73916666D01*
X146918095Y-74011904D01*
X147632380Y-72488095D02*
X147632380Y-73059523D01*
X147632380Y-72773809D02*
X146632380Y-72773809D01*
X146775238Y-72869047D01*
X146870476Y-72964285D01*
X146918095Y-73059523D01*
D11*
X146114285Y-74855714D02*
X146085714Y-74893809D01*
X146000000Y-74931904D01*
X145942857Y-74931904D01*
X145857142Y-74893809D01*
X145800000Y-74817619D01*
X145771428Y-74741428D01*
X145742857Y-74589047D01*
X145742857Y-74474761D01*
X145771428Y-74322380D01*
X145800000Y-74246190D01*
X145857142Y-74170000D01*
X145942857Y-74131904D01*
X146000000Y-74131904D01*
X146085714Y-74170000D01*
X146114285Y-74208095D01*
X146685714Y-74931904D02*
X146342857Y-74931904D01*
X146514285Y-74931904D02*
X146514285Y-74131904D01*
X146457142Y-74246190D01*
X146400000Y-74322380D01*
X146342857Y-74360476D01*
X147057142Y-74131904D02*
X147114285Y-74131904D01*
X147171428Y-74170000D01*
X147200000Y-74208095D01*
X147228571Y-74284285D01*
X147257142Y-74436666D01*
X147257142Y-74627142D01*
X147228571Y-74779523D01*
X147200000Y-74855714D01*
X147171428Y-74893809D01*
X147114285Y-74931904D01*
X147057142Y-74931904D01*
X147000000Y-74893809D01*
X146971428Y-74855714D01*
X146942857Y-74779523D01*
X146914285Y-74627142D01*
X146914285Y-74436666D01*
X146942857Y-74284285D01*
X146971428Y-74208095D01*
X147000000Y-74170000D01*
X147057142Y-74131904D01*
X115650000Y-77785714D02*
X115621428Y-77823809D01*
X115535714Y-77861904D01*
X115478571Y-77861904D01*
X115392857Y-77823809D01*
X115335714Y-77747619D01*
X115307142Y-77671428D01*
X115278571Y-77519047D01*
X115278571Y-77404761D01*
X115307142Y-77252380D01*
X115335714Y-77176190D01*
X115392857Y-77100000D01*
X115478571Y-77061904D01*
X115535714Y-77061904D01*
X115621428Y-77100000D01*
X115650000Y-77138095D01*
X115935714Y-77861904D02*
X116050000Y-77861904D01*
X116107142Y-77823809D01*
X116135714Y-77785714D01*
X116192857Y-77671428D01*
X116221428Y-77519047D01*
X116221428Y-77214285D01*
X116192857Y-77138095D01*
X116164285Y-77100000D01*
X116107142Y-77061904D01*
X115992857Y-77061904D01*
X115935714Y-77100000D01*
X115907142Y-77138095D01*
X115878571Y-77214285D01*
X115878571Y-77404761D01*
X115907142Y-77480952D01*
X115935714Y-77519047D01*
X115992857Y-77557142D01*
X116107142Y-77557142D01*
X116164285Y-77519047D01*
X116192857Y-77480952D01*
X116221428Y-77404761D01*
X113400000Y-78535714D02*
X113371428Y-78573809D01*
X113285714Y-78611904D01*
X113228571Y-78611904D01*
X113142857Y-78573809D01*
X113085714Y-78497619D01*
X113057142Y-78421428D01*
X113028571Y-78269047D01*
X113028571Y-78154761D01*
X113057142Y-78002380D01*
X113085714Y-77926190D01*
X113142857Y-77850000D01*
X113228571Y-77811904D01*
X113285714Y-77811904D01*
X113371428Y-77850000D01*
X113400000Y-77888095D01*
X113685714Y-78611904D02*
X113800000Y-78611904D01*
X113857142Y-78573809D01*
X113885714Y-78535714D01*
X113942857Y-78421428D01*
X113971428Y-78269047D01*
X113971428Y-77964285D01*
X113942857Y-77888095D01*
X113914285Y-77850000D01*
X113857142Y-77811904D01*
X113742857Y-77811904D01*
X113685714Y-77850000D01*
X113657142Y-77888095D01*
X113628571Y-77964285D01*
X113628571Y-78154761D01*
X113657142Y-78230952D01*
X113685714Y-78269047D01*
X113742857Y-78307142D01*
X113857142Y-78307142D01*
X113914285Y-78269047D01*
X113942857Y-78230952D01*
X113971428Y-78154761D01*
X129750000Y-74035714D02*
X129721428Y-74073809D01*
X129635714Y-74111904D01*
X129578571Y-74111904D01*
X129492857Y-74073809D01*
X129435714Y-73997619D01*
X129407142Y-73921428D01*
X129378571Y-73769047D01*
X129378571Y-73654761D01*
X129407142Y-73502380D01*
X129435714Y-73426190D01*
X129492857Y-73350000D01*
X129578571Y-73311904D01*
X129635714Y-73311904D01*
X129721428Y-73350000D01*
X129750000Y-73388095D01*
X130264285Y-73311904D02*
X130150000Y-73311904D01*
X130092857Y-73350000D01*
X130064285Y-73388095D01*
X130007142Y-73502380D01*
X129978571Y-73654761D01*
X129978571Y-73959523D01*
X130007142Y-74035714D01*
X130035714Y-74073809D01*
X130092857Y-74111904D01*
X130207142Y-74111904D01*
X130264285Y-74073809D01*
X130292857Y-74035714D01*
X130321428Y-73959523D01*
X130321428Y-73769047D01*
X130292857Y-73692857D01*
X130264285Y-73654761D01*
X130207142Y-73616666D01*
X130092857Y-73616666D01*
X130035714Y-73654761D01*
X130007142Y-73692857D01*
X129978571Y-73769047D01*
X138611904Y-68350000D02*
X138230952Y-68550000D01*
X138611904Y-68692857D02*
X137811904Y-68692857D01*
X137811904Y-68464285D01*
X137850000Y-68407142D01*
X137888095Y-68378571D01*
X137964285Y-68350000D01*
X138078571Y-68350000D01*
X138154761Y-68378571D01*
X138192857Y-68407142D01*
X138230952Y-68464285D01*
X138230952Y-68692857D01*
X138611904Y-68064285D02*
X138611904Y-67950000D01*
X138573809Y-67892857D01*
X138535714Y-67864285D01*
X138421428Y-67807142D01*
X138269047Y-67778571D01*
X137964285Y-67778571D01*
X137888095Y-67807142D01*
X137850000Y-67835714D01*
X137811904Y-67892857D01*
X137811904Y-68007142D01*
X137850000Y-68064285D01*
X137888095Y-68092857D01*
X137964285Y-68121428D01*
X138154761Y-68121428D01*
X138230952Y-68092857D01*
X138269047Y-68064285D01*
X138307142Y-68007142D01*
X138307142Y-67892857D01*
X138269047Y-67835714D01*
X138230952Y-67807142D01*
X138154761Y-67778571D01*
X138611904Y-70850000D02*
X138230952Y-71050000D01*
X138611904Y-71192857D02*
X137811904Y-71192857D01*
X137811904Y-70964285D01*
X137850000Y-70907142D01*
X137888095Y-70878571D01*
X137964285Y-70850000D01*
X138078571Y-70850000D01*
X138154761Y-70878571D01*
X138192857Y-70907142D01*
X138230952Y-70964285D01*
X138230952Y-71192857D01*
X138611904Y-70564285D02*
X138611904Y-70450000D01*
X138573809Y-70392857D01*
X138535714Y-70364285D01*
X138421428Y-70307142D01*
X138269047Y-70278571D01*
X137964285Y-70278571D01*
X137888095Y-70307142D01*
X137850000Y-70335714D01*
X137811904Y-70392857D01*
X137811904Y-70507142D01*
X137850000Y-70564285D01*
X137888095Y-70592857D01*
X137964285Y-70621428D01*
X138154761Y-70621428D01*
X138230952Y-70592857D01*
X138269047Y-70564285D01*
X138307142Y-70507142D01*
X138307142Y-70392857D01*
X138269047Y-70335714D01*
X138230952Y-70307142D01*
X138154761Y-70278571D01*
X145111904Y-78350000D02*
X144730952Y-78550000D01*
X145111904Y-78692857D02*
X144311904Y-78692857D01*
X144311904Y-78464285D01*
X144350000Y-78407142D01*
X144388095Y-78378571D01*
X144464285Y-78350000D01*
X144578571Y-78350000D01*
X144654761Y-78378571D01*
X144692857Y-78407142D01*
X144730952Y-78464285D01*
X144730952Y-78692857D01*
X144654761Y-78007142D02*
X144616666Y-78064285D01*
X144578571Y-78092857D01*
X144502380Y-78121428D01*
X144464285Y-78121428D01*
X144388095Y-78092857D01*
X144350000Y-78064285D01*
X144311904Y-78007142D01*
X144311904Y-77892857D01*
X144350000Y-77835714D01*
X144388095Y-77807142D01*
X144464285Y-77778571D01*
X144502380Y-77778571D01*
X144578571Y-77807142D01*
X144616666Y-77835714D01*
X144654761Y-77892857D01*
X144654761Y-78007142D01*
X144692857Y-78064285D01*
X144730952Y-78092857D01*
X144807142Y-78121428D01*
X144959523Y-78121428D01*
X145035714Y-78092857D01*
X145073809Y-78064285D01*
X145111904Y-78007142D01*
X145111904Y-77892857D01*
X145073809Y-77835714D01*
X145035714Y-77807142D01*
X144959523Y-77778571D01*
X144807142Y-77778571D01*
X144730952Y-77807142D01*
X144692857Y-77835714D01*
X144654761Y-77892857D01*
X143611904Y-78350000D02*
X143230952Y-78550000D01*
X143611904Y-78692857D02*
X142811904Y-78692857D01*
X142811904Y-78464285D01*
X142850000Y-78407142D01*
X142888095Y-78378571D01*
X142964285Y-78350000D01*
X143078571Y-78350000D01*
X143154761Y-78378571D01*
X143192857Y-78407142D01*
X143230952Y-78464285D01*
X143230952Y-78692857D01*
X143154761Y-78007142D02*
X143116666Y-78064285D01*
X143078571Y-78092857D01*
X143002380Y-78121428D01*
X142964285Y-78121428D01*
X142888095Y-78092857D01*
X142850000Y-78064285D01*
X142811904Y-78007142D01*
X142811904Y-77892857D01*
X142850000Y-77835714D01*
X142888095Y-77807142D01*
X142964285Y-77778571D01*
X143002380Y-77778571D01*
X143078571Y-77807142D01*
X143116666Y-77835714D01*
X143154761Y-77892857D01*
X143154761Y-78007142D01*
X143192857Y-78064285D01*
X143230952Y-78092857D01*
X143307142Y-78121428D01*
X143459523Y-78121428D01*
X143535714Y-78092857D01*
X143573809Y-78064285D01*
X143611904Y-78007142D01*
X143611904Y-77892857D01*
X143573809Y-77835714D01*
X143535714Y-77807142D01*
X143459523Y-77778571D01*
X143307142Y-77778571D01*
X143230952Y-77807142D01*
X143192857Y-77835714D01*
X143154761Y-77892857D01*
X131700000Y-68261904D02*
X131700000Y-68833333D01*
X131728571Y-68947619D01*
X131785714Y-69023809D01*
X131871428Y-69061904D01*
X131928571Y-69061904D01*
X131157142Y-68528571D02*
X131157142Y-69061904D01*
X131300000Y-68223809D02*
X131442857Y-68795238D01*
X131071428Y-68795238D01*
X145711904Y-73192857D02*
X144911904Y-73192857D01*
X144911904Y-73050000D01*
X144950000Y-72964285D01*
X145026190Y-72907142D01*
X145102380Y-72878571D01*
X145254761Y-72850000D01*
X145369047Y-72850000D01*
X145521428Y-72878571D01*
X145597619Y-72907142D01*
X145673809Y-72964285D01*
X145711904Y-73050000D01*
X145711904Y-73192857D01*
X144911904Y-72650000D02*
X144911904Y-72278571D01*
X145216666Y-72478571D01*
X145216666Y-72392857D01*
X145254761Y-72335714D01*
X145292857Y-72307142D01*
X145369047Y-72278571D01*
X145559523Y-72278571D01*
X145635714Y-72307142D01*
X145673809Y-72335714D01*
X145711904Y-72392857D01*
X145711904Y-72564285D01*
X145673809Y-72621428D01*
X145635714Y-72650000D01*
X116861904Y-68350000D02*
X116480952Y-68550000D01*
X116861904Y-68692857D02*
X116061904Y-68692857D01*
X116061904Y-68464285D01*
X116100000Y-68407142D01*
X116138095Y-68378571D01*
X116214285Y-68350000D01*
X116328571Y-68350000D01*
X116404761Y-68378571D01*
X116442857Y-68407142D01*
X116480952Y-68464285D01*
X116480952Y-68692857D01*
X116061904Y-68150000D02*
X116061904Y-67750000D01*
X116861904Y-68007142D01*
X119511904Y-69250000D02*
X119130952Y-69450000D01*
X119511904Y-69592857D02*
X118711904Y-69592857D01*
X118711904Y-69364285D01*
X118750000Y-69307142D01*
X118788095Y-69278571D01*
X118864285Y-69250000D01*
X118978571Y-69250000D01*
X119054761Y-69278571D01*
X119092857Y-69307142D01*
X119130952Y-69364285D01*
X119130952Y-69592857D01*
X118711904Y-69050000D02*
X118711904Y-68650000D01*
X119511904Y-68907142D01*
X115650000Y-76611904D02*
X115450000Y-76230952D01*
X115307142Y-76611904D02*
X115307142Y-75811904D01*
X115535714Y-75811904D01*
X115592857Y-75850000D01*
X115621428Y-75888095D01*
X115650000Y-75964285D01*
X115650000Y-76078571D01*
X115621428Y-76154761D01*
X115592857Y-76192857D01*
X115535714Y-76230952D01*
X115307142Y-76230952D01*
X116164285Y-75811904D02*
X116050000Y-75811904D01*
X115992857Y-75850000D01*
X115964285Y-75888095D01*
X115907142Y-76002380D01*
X115878571Y-76154761D01*
X115878571Y-76459523D01*
X115907142Y-76535714D01*
X115935714Y-76573809D01*
X115992857Y-76611904D01*
X116107142Y-76611904D01*
X116164285Y-76573809D01*
X116192857Y-76535714D01*
X116221428Y-76459523D01*
X116221428Y-76269047D01*
X116192857Y-76192857D01*
X116164285Y-76154761D01*
X116107142Y-76116666D01*
X115992857Y-76116666D01*
X115935714Y-76154761D01*
X115907142Y-76192857D01*
X115878571Y-76269047D01*
X113400000Y-77011904D02*
X113200000Y-76630952D01*
X113057142Y-77011904D02*
X113057142Y-76211904D01*
X113285714Y-76211904D01*
X113342857Y-76250000D01*
X113371428Y-76288095D01*
X113400000Y-76364285D01*
X113400000Y-76478571D01*
X113371428Y-76554761D01*
X113342857Y-76592857D01*
X113285714Y-76630952D01*
X113057142Y-76630952D01*
X113914285Y-76211904D02*
X113800000Y-76211904D01*
X113742857Y-76250000D01*
X113714285Y-76288095D01*
X113657142Y-76402380D01*
X113628571Y-76554761D01*
X113628571Y-76859523D01*
X113657142Y-76935714D01*
X113685714Y-76973809D01*
X113742857Y-77011904D01*
X113857142Y-77011904D01*
X113914285Y-76973809D01*
X113942857Y-76935714D01*
X113971428Y-76859523D01*
X113971428Y-76669047D01*
X113942857Y-76592857D01*
X113914285Y-76554761D01*
X113857142Y-76516666D01*
X113742857Y-76516666D01*
X113685714Y-76554761D01*
X113657142Y-76592857D01*
X113628571Y-76669047D01*
X115307142Y-75361904D02*
X115307142Y-74561904D01*
X115450000Y-74561904D01*
X115535714Y-74600000D01*
X115592857Y-74676190D01*
X115621428Y-74752380D01*
X115650000Y-74904761D01*
X115650000Y-75019047D01*
X115621428Y-75171428D01*
X115592857Y-75247619D01*
X115535714Y-75323809D01*
X115450000Y-75361904D01*
X115307142Y-75361904D01*
X115878571Y-74638095D02*
X115907142Y-74600000D01*
X115964285Y-74561904D01*
X116107142Y-74561904D01*
X116164285Y-74600000D01*
X116192857Y-74638095D01*
X116221428Y-74714285D01*
X116221428Y-74790476D01*
X116192857Y-74904761D01*
X115850000Y-75361904D01*
X116221428Y-75361904D01*
X118035714Y-68350000D02*
X118073809Y-68378571D01*
X118111904Y-68464285D01*
X118111904Y-68521428D01*
X118073809Y-68607142D01*
X117997619Y-68664285D01*
X117921428Y-68692857D01*
X117769047Y-68721428D01*
X117654761Y-68721428D01*
X117502380Y-68692857D01*
X117426190Y-68664285D01*
X117350000Y-68607142D01*
X117311904Y-68521428D01*
X117311904Y-68464285D01*
X117350000Y-68378571D01*
X117388095Y-68350000D01*
X117311904Y-67807142D02*
X117311904Y-68092857D01*
X117692857Y-68121428D01*
X117654761Y-68092857D01*
X117616666Y-68035714D01*
X117616666Y-67892857D01*
X117654761Y-67835714D01*
X117692857Y-67807142D01*
X117769047Y-67778571D01*
X117959523Y-67778571D01*
X118035714Y-67807142D01*
X118073809Y-67835714D01*
X118111904Y-67892857D01*
X118111904Y-68035714D01*
X118073809Y-68092857D01*
X118035714Y-68121428D01*
X120935714Y-69250000D02*
X120973809Y-69278571D01*
X121011904Y-69364285D01*
X121011904Y-69421428D01*
X120973809Y-69507142D01*
X120897619Y-69564285D01*
X120821428Y-69592857D01*
X120669047Y-69621428D01*
X120554761Y-69621428D01*
X120402380Y-69592857D01*
X120326190Y-69564285D01*
X120250000Y-69507142D01*
X120211904Y-69421428D01*
X120211904Y-69364285D01*
X120250000Y-69278571D01*
X120288095Y-69250000D01*
X120211904Y-68707142D02*
X120211904Y-68992857D01*
X120592857Y-69021428D01*
X120554761Y-68992857D01*
X120516666Y-68935714D01*
X120516666Y-68792857D01*
X120554761Y-68735714D01*
X120592857Y-68707142D01*
X120669047Y-68678571D01*
X120859523Y-68678571D01*
X120935714Y-68707142D01*
X120973809Y-68735714D01*
X121011904Y-68792857D01*
X121011904Y-68935714D01*
X120973809Y-68992857D01*
X120935714Y-69021428D01*
X116150000Y-73035714D02*
X116121428Y-73073809D01*
X116035714Y-73111904D01*
X115978571Y-73111904D01*
X115892857Y-73073809D01*
X115835714Y-72997619D01*
X115807142Y-72921428D01*
X115778571Y-72769047D01*
X115778571Y-72654761D01*
X115807142Y-72502380D01*
X115835714Y-72426190D01*
X115892857Y-72350000D01*
X115978571Y-72311904D01*
X116035714Y-72311904D01*
X116121428Y-72350000D01*
X116150000Y-72388095D01*
X116378571Y-72388095D02*
X116407142Y-72350000D01*
X116464285Y-72311904D01*
X116607142Y-72311904D01*
X116664285Y-72350000D01*
X116692857Y-72388095D01*
X116721428Y-72464285D01*
X116721428Y-72540476D01*
X116692857Y-72654761D01*
X116350000Y-73111904D01*
X116721428Y-73111904D01*
X116535714Y-70850000D02*
X116573809Y-70878571D01*
X116611904Y-70964285D01*
X116611904Y-71021428D01*
X116573809Y-71107142D01*
X116497619Y-71164285D01*
X116421428Y-71192857D01*
X116269047Y-71221428D01*
X116154761Y-71221428D01*
X116002380Y-71192857D01*
X115926190Y-71164285D01*
X115850000Y-71107142D01*
X115811904Y-71021428D01*
X115811904Y-70964285D01*
X115850000Y-70878571D01*
X115888095Y-70850000D01*
X115888095Y-70621428D02*
X115850000Y-70592857D01*
X115811904Y-70535714D01*
X115811904Y-70392857D01*
X115850000Y-70335714D01*
X115888095Y-70307142D01*
X115964285Y-70278571D01*
X116040476Y-70278571D01*
X116154761Y-70307142D01*
X116611904Y-70650000D01*
X116611904Y-70278571D01*
X145650000Y-77535714D02*
X145621428Y-77573809D01*
X145535714Y-77611904D01*
X145478571Y-77611904D01*
X145392857Y-77573809D01*
X145335714Y-77497619D01*
X145307142Y-77421428D01*
X145278571Y-77269047D01*
X145278571Y-77154761D01*
X145307142Y-77002380D01*
X145335714Y-76926190D01*
X145392857Y-76850000D01*
X145478571Y-76811904D01*
X145535714Y-76811904D01*
X145621428Y-76850000D01*
X145650000Y-76888095D01*
X145992857Y-77154761D02*
X145935714Y-77116666D01*
X145907142Y-77078571D01*
X145878571Y-77002380D01*
X145878571Y-76964285D01*
X145907142Y-76888095D01*
X145935714Y-76850000D01*
X145992857Y-76811904D01*
X146107142Y-76811904D01*
X146164285Y-76850000D01*
X146192857Y-76888095D01*
X146221428Y-76964285D01*
X146221428Y-77002380D01*
X146192857Y-77078571D01*
X146164285Y-77116666D01*
X146107142Y-77154761D01*
X145992857Y-77154761D01*
X145935714Y-77192857D01*
X145907142Y-77230952D01*
X145878571Y-77307142D01*
X145878571Y-77459523D01*
X145907142Y-77535714D01*
X145935714Y-77573809D01*
X145992857Y-77611904D01*
X146107142Y-77611904D01*
X146164285Y-77573809D01*
X146192857Y-77535714D01*
X146221428Y-77459523D01*
X146221428Y-77307142D01*
X146192857Y-77230952D01*
X146164285Y-77192857D01*
X146107142Y-77154761D01*
X147335714Y-78350000D02*
X147373809Y-78378571D01*
X147411904Y-78464285D01*
X147411904Y-78521428D01*
X147373809Y-78607142D01*
X147297619Y-78664285D01*
X147221428Y-78692857D01*
X147069047Y-78721428D01*
X146954761Y-78721428D01*
X146802380Y-78692857D01*
X146726190Y-78664285D01*
X146650000Y-78607142D01*
X146611904Y-78521428D01*
X146611904Y-78464285D01*
X146650000Y-78378571D01*
X146688095Y-78350000D01*
X146954761Y-78007142D02*
X146916666Y-78064285D01*
X146878571Y-78092857D01*
X146802380Y-78121428D01*
X146764285Y-78121428D01*
X146688095Y-78092857D01*
X146650000Y-78064285D01*
X146611904Y-78007142D01*
X146611904Y-77892857D01*
X146650000Y-77835714D01*
X146688095Y-77807142D01*
X146764285Y-77778571D01*
X146802380Y-77778571D01*
X146878571Y-77807142D01*
X146916666Y-77835714D01*
X146954761Y-77892857D01*
X146954761Y-78007142D01*
X146992857Y-78064285D01*
X147030952Y-78092857D01*
X147107142Y-78121428D01*
X147259523Y-78121428D01*
X147335714Y-78092857D01*
X147373809Y-78064285D01*
X147411904Y-78007142D01*
X147411904Y-77892857D01*
X147373809Y-77835714D01*
X147335714Y-77807142D01*
X147259523Y-77778571D01*
X147107142Y-77778571D01*
X147030952Y-77807142D01*
X146992857Y-77835714D01*
X146954761Y-77892857D01*
X137035714Y-68400000D02*
X137073809Y-68428571D01*
X137111904Y-68514285D01*
X137111904Y-68571428D01*
X137073809Y-68657142D01*
X136997619Y-68714285D01*
X136921428Y-68742857D01*
X136769047Y-68771428D01*
X136654761Y-68771428D01*
X136502380Y-68742857D01*
X136426190Y-68714285D01*
X136350000Y-68657142D01*
X136311904Y-68571428D01*
X136311904Y-68514285D01*
X136350000Y-68428571D01*
X136388095Y-68400000D01*
X136311904Y-68200000D02*
X136311904Y-67800000D01*
X137111904Y-68057142D01*
X137035714Y-70850000D02*
X137073809Y-70878571D01*
X137111904Y-70964285D01*
X137111904Y-71021428D01*
X137073809Y-71107142D01*
X136997619Y-71164285D01*
X136921428Y-71192857D01*
X136769047Y-71221428D01*
X136654761Y-71221428D01*
X136502380Y-71192857D01*
X136426190Y-71164285D01*
X136350000Y-71107142D01*
X136311904Y-71021428D01*
X136311904Y-70964285D01*
X136350000Y-70878571D01*
X136388095Y-70850000D01*
X136311904Y-70650000D02*
X136311904Y-70250000D01*
X137111904Y-70507142D01*
X148807142Y-76611904D02*
X148807142Y-75811904D01*
X148950000Y-75811904D01*
X149035714Y-75850000D01*
X149092857Y-75926190D01*
X149121428Y-76002380D01*
X149150000Y-76154761D01*
X149150000Y-76269047D01*
X149121428Y-76421428D01*
X149092857Y-76497619D01*
X149035714Y-76573809D01*
X148950000Y-76611904D01*
X148807142Y-76611904D01*
X149721428Y-76611904D02*
X149378571Y-76611904D01*
X149550000Y-76611904D02*
X149550000Y-75811904D01*
X149492857Y-75926190D01*
X149435714Y-76002380D01*
X149378571Y-76040476D01*
X150000000Y-67311904D02*
X150000000Y-67883333D01*
X149971428Y-67997619D01*
X149914285Y-68073809D01*
X149828571Y-68111904D01*
X149771428Y-68111904D01*
X150228571Y-67311904D02*
X150600000Y-67311904D01*
X150400000Y-67616666D01*
X150485714Y-67616666D01*
X150542857Y-67654761D01*
X150571428Y-67692857D01*
X150600000Y-67769047D01*
X150600000Y-67959523D01*
X150571428Y-68035714D01*
X150542857Y-68073809D01*
X150485714Y-68111904D01*
X150314285Y-68111904D01*
X150257142Y-68073809D01*
X150228571Y-68035714D01*
X149761904Y-71270000D02*
X150333333Y-71270000D01*
X150447619Y-71298571D01*
X150523809Y-71355714D01*
X150561904Y-71441428D01*
X150561904Y-71498571D01*
X149761904Y-71041428D02*
X149761904Y-70670000D01*
X150066666Y-70870000D01*
X150066666Y-70784285D01*
X150104761Y-70727142D01*
X150142857Y-70698571D01*
X150219047Y-70670000D01*
X150409523Y-70670000D01*
X150485714Y-70698571D01*
X150523809Y-70727142D01*
X150561904Y-70784285D01*
X150561904Y-70955714D01*
X150523809Y-71012857D01*
X150485714Y-71041428D01*
X112561904Y-67450000D02*
X113133333Y-67450000D01*
X113247619Y-67478571D01*
X113323809Y-67535714D01*
X113361904Y-67621428D01*
X113361904Y-67678571D01*
X112638095Y-67192857D02*
X112600000Y-67164285D01*
X112561904Y-67107142D01*
X112561904Y-66964285D01*
X112600000Y-66907142D01*
X112638095Y-66878571D01*
X112714285Y-66850000D01*
X112790476Y-66850000D01*
X112904761Y-66878571D01*
X113361904Y-67221428D01*
X113361904Y-66850000D01*
X113361904Y-71070000D02*
X113933333Y-71070000D01*
X114047619Y-71098571D01*
X114123809Y-71155714D01*
X114161904Y-71241428D01*
X114161904Y-71298571D01*
X113438095Y-70812857D02*
X113400000Y-70784285D01*
X113361904Y-70727142D01*
X113361904Y-70584285D01*
X113400000Y-70527142D01*
X113438095Y-70498571D01*
X113514285Y-70470000D01*
X113590476Y-70470000D01*
X113704761Y-70498571D01*
X114161904Y-70841428D01*
X114161904Y-70470000D01*
X150000000Y-65811904D02*
X150000000Y-66383333D01*
X149971428Y-66497619D01*
X149914285Y-66573809D01*
X149828571Y-66611904D01*
X149771428Y-66611904D01*
X150600000Y-66611904D02*
X150257142Y-66611904D01*
X150428571Y-66611904D02*
X150428571Y-65811904D01*
X150371428Y-65926190D01*
X150314285Y-66002380D01*
X150257142Y-66040476D01*
X149761904Y-63280000D02*
X150333333Y-63280000D01*
X150447619Y-63308571D01*
X150523809Y-63365714D01*
X150561904Y-63451428D01*
X150561904Y-63508571D01*
X150561904Y-62680000D02*
X150561904Y-63022857D01*
X150561904Y-62851428D02*
X149761904Y-62851428D01*
X149876190Y-62908571D01*
X149952380Y-62965714D01*
X149990476Y-63022857D01*
X149611904Y-74600000D02*
X149230952Y-74800000D01*
X149611904Y-74942857D02*
X148811904Y-74942857D01*
X148811904Y-74714285D01*
X148850000Y-74657142D01*
X148888095Y-74628571D01*
X148964285Y-74600000D01*
X149078571Y-74600000D01*
X149154761Y-74628571D01*
X149192857Y-74657142D01*
X149230952Y-74714285D01*
X149230952Y-74942857D01*
X148811904Y-74057142D02*
X148811904Y-74342857D01*
X149192857Y-74371428D01*
X149154761Y-74342857D01*
X149116666Y-74285714D01*
X149116666Y-74142857D01*
X149154761Y-74085714D01*
X149192857Y-74057142D01*
X149269047Y-74028571D01*
X149459523Y-74028571D01*
X149535714Y-74057142D01*
X149573809Y-74085714D01*
X149611904Y-74142857D01*
X149611904Y-74285714D01*
X149573809Y-74342857D01*
X149535714Y-74371428D01*
X147961904Y-73800000D02*
X147580952Y-74000000D01*
X147961904Y-74142857D02*
X147161904Y-74142857D01*
X147161904Y-73914285D01*
X147200000Y-73857142D01*
X147238095Y-73828571D01*
X147314285Y-73800000D01*
X147428571Y-73800000D01*
X147504761Y-73828571D01*
X147542857Y-73857142D01*
X147580952Y-73914285D01*
X147580952Y-74142857D01*
X147161904Y-73257142D02*
X147161904Y-73542857D01*
X147542857Y-73571428D01*
X147504761Y-73542857D01*
X147466666Y-73485714D01*
X147466666Y-73342857D01*
X147504761Y-73285714D01*
X147542857Y-73257142D01*
X147619047Y-73228571D01*
X147809523Y-73228571D01*
X147885714Y-73257142D01*
X147923809Y-73285714D01*
X147961904Y-73342857D01*
X147961904Y-73485714D01*
X147923809Y-73542857D01*
X147885714Y-73571428D01*
X135911904Y-76457142D02*
X136559523Y-76457142D01*
X136635714Y-76428571D01*
X136673809Y-76400000D01*
X136711904Y-76342857D01*
X136711904Y-76228571D01*
X136673809Y-76171428D01*
X136635714Y-76142857D01*
X136559523Y-76114285D01*
X135911904Y-76114285D01*
X135988095Y-75857142D02*
X135950000Y-75828571D01*
X135911904Y-75771428D01*
X135911904Y-75628571D01*
X135950000Y-75571428D01*
X135988095Y-75542857D01*
X136064285Y-75514285D01*
X136140476Y-75514285D01*
X136254761Y-75542857D01*
X136711904Y-75885714D01*
X136711904Y-75514285D01*
X147150000Y-68611904D02*
X146950000Y-68230952D01*
X146807142Y-68611904D02*
X146807142Y-67811904D01*
X147035714Y-67811904D01*
X147092857Y-67850000D01*
X147121428Y-67888095D01*
X147150000Y-67964285D01*
X147150000Y-68078571D01*
X147121428Y-68154761D01*
X147092857Y-68192857D01*
X147035714Y-68230952D01*
X146807142Y-68230952D01*
X147664285Y-68078571D02*
X147664285Y-68611904D01*
X147521428Y-67773809D02*
X147378571Y-68345238D01*
X147750000Y-68345238D01*
X147911904Y-70600000D02*
X147530952Y-70800000D01*
X147911904Y-70942857D02*
X147111904Y-70942857D01*
X147111904Y-70714285D01*
X147150000Y-70657142D01*
X147188095Y-70628571D01*
X147264285Y-70600000D01*
X147378571Y-70600000D01*
X147454761Y-70628571D01*
X147492857Y-70657142D01*
X147530952Y-70714285D01*
X147530952Y-70942857D01*
X147378571Y-70085714D02*
X147911904Y-70085714D01*
X147073809Y-70228571D02*
X147645238Y-70371428D01*
X147645238Y-70000000D01*
X150650000Y-75111904D02*
X150450000Y-74730952D01*
X150307142Y-75111904D02*
X150307142Y-74311904D01*
X150535714Y-74311904D01*
X150592857Y-74350000D01*
X150621428Y-74388095D01*
X150650000Y-74464285D01*
X150650000Y-74578571D01*
X150621428Y-74654761D01*
X150592857Y-74692857D01*
X150535714Y-74730952D01*
X150307142Y-74730952D01*
X151221428Y-75111904D02*
X150878571Y-75111904D01*
X151050000Y-75111904D02*
X151050000Y-74311904D01*
X150992857Y-74426190D01*
X150935714Y-74502380D01*
X150878571Y-74540476D01*
X151211904Y-77800000D02*
X150830952Y-78000000D01*
X151211904Y-78142857D02*
X150411904Y-78142857D01*
X150411904Y-77914285D01*
X150450000Y-77857142D01*
X150488095Y-77828571D01*
X150564285Y-77800000D01*
X150678571Y-77800000D01*
X150754761Y-77828571D01*
X150792857Y-77857142D01*
X150830952Y-77914285D01*
X150830952Y-78142857D01*
X151211904Y-77228571D02*
X151211904Y-77571428D01*
X151211904Y-77400000D02*
X150411904Y-77400000D01*
X150526190Y-77457142D01*
X150602380Y-77514285D01*
X150640476Y-77571428D01*
X143850000Y-61035714D02*
X143821428Y-61073809D01*
X143735714Y-61111904D01*
X143678571Y-61111904D01*
X143592857Y-61073809D01*
X143535714Y-60997619D01*
X143507142Y-60921428D01*
X143478571Y-60769047D01*
X143478571Y-60654761D01*
X143507142Y-60502380D01*
X143535714Y-60426190D01*
X143592857Y-60350000D01*
X143678571Y-60311904D01*
X143735714Y-60311904D01*
X143821428Y-60350000D01*
X143850000Y-60388095D01*
X144364285Y-60578571D02*
X144364285Y-61111904D01*
X144221428Y-60273809D02*
X144078571Y-60845238D01*
X144450000Y-60845238D01*
X144035714Y-63800000D02*
X144073809Y-63828571D01*
X144111904Y-63914285D01*
X144111904Y-63971428D01*
X144073809Y-64057142D01*
X143997619Y-64114285D01*
X143921428Y-64142857D01*
X143769047Y-64171428D01*
X143654761Y-64171428D01*
X143502380Y-64142857D01*
X143426190Y-64114285D01*
X143350000Y-64057142D01*
X143311904Y-63971428D01*
X143311904Y-63914285D01*
X143350000Y-63828571D01*
X143388095Y-63800000D01*
X143578571Y-63285714D02*
X144111904Y-63285714D01*
X143273809Y-63428571D02*
X143845238Y-63571428D01*
X143845238Y-63200000D01*
X135292857Y-71811904D02*
X135292857Y-72459523D01*
X135321428Y-72535714D01*
X135350000Y-72573809D01*
X135407142Y-72611904D01*
X135521428Y-72611904D01*
X135578571Y-72573809D01*
X135607142Y-72535714D01*
X135635714Y-72459523D01*
X135635714Y-71811904D01*
X136235714Y-72611904D02*
X135892857Y-72611904D01*
X136064285Y-72611904D02*
X136064285Y-71811904D01*
X136007142Y-71926190D01*
X135950000Y-72002380D01*
X135892857Y-72040476D01*
X115061904Y-79457142D02*
X115709523Y-79457142D01*
X115785714Y-79428571D01*
X115823809Y-79400000D01*
X115861904Y-79342857D01*
X115861904Y-79228571D01*
X115823809Y-79171428D01*
X115785714Y-79142857D01*
X115709523Y-79114285D01*
X115061904Y-79114285D01*
X115061904Y-78885714D02*
X115061904Y-78514285D01*
X115366666Y-78714285D01*
X115366666Y-78628571D01*
X115404761Y-78571428D01*
X115442857Y-78542857D01*
X115519047Y-78514285D01*
X115709523Y-78514285D01*
X115785714Y-78542857D01*
X115823809Y-78571428D01*
X115861904Y-78628571D01*
X115861904Y-78800000D01*
X115823809Y-78857142D01*
X115785714Y-78885714D01*
X120650000Y-61035714D02*
X120621428Y-61073809D01*
X120535714Y-61111904D01*
X120478571Y-61111904D01*
X120392857Y-61073809D01*
X120335714Y-60997619D01*
X120307142Y-60921428D01*
X120278571Y-60769047D01*
X120278571Y-60654761D01*
X120307142Y-60502380D01*
X120335714Y-60426190D01*
X120392857Y-60350000D01*
X120478571Y-60311904D01*
X120535714Y-60311904D01*
X120621428Y-60350000D01*
X120650000Y-60388095D01*
X121221428Y-61111904D02*
X120878571Y-61111904D01*
X121050000Y-61111904D02*
X121050000Y-60311904D01*
X120992857Y-60426190D01*
X120935714Y-60502380D01*
X120878571Y-60540476D01*
X116650000Y-64285714D02*
X116621428Y-64323809D01*
X116535714Y-64361904D01*
X116478571Y-64361904D01*
X116392857Y-64323809D01*
X116335714Y-64247619D01*
X116307142Y-64171428D01*
X116278571Y-64019047D01*
X116278571Y-63904761D01*
X116307142Y-63752380D01*
X116335714Y-63676190D01*
X116392857Y-63600000D01*
X116478571Y-63561904D01*
X116535714Y-63561904D01*
X116621428Y-63600000D01*
X116650000Y-63638095D01*
X117221428Y-64361904D02*
X116878571Y-64361904D01*
X117050000Y-64361904D02*
X117050000Y-63561904D01*
X116992857Y-63676190D01*
X116935714Y-63752380D01*
X116878571Y-63790476D01*
X145950000Y-61035714D02*
X145921428Y-61073809D01*
X145835714Y-61111904D01*
X145778571Y-61111904D01*
X145692857Y-61073809D01*
X145635714Y-60997619D01*
X145607142Y-60921428D01*
X145578571Y-60769047D01*
X145578571Y-60654761D01*
X145607142Y-60502380D01*
X145635714Y-60426190D01*
X145692857Y-60350000D01*
X145778571Y-60311904D01*
X145835714Y-60311904D01*
X145921428Y-60350000D01*
X145950000Y-60388095D01*
X146150000Y-60311904D02*
X146521428Y-60311904D01*
X146321428Y-60616666D01*
X146407142Y-60616666D01*
X146464285Y-60654761D01*
X146492857Y-60692857D01*
X146521428Y-60769047D01*
X146521428Y-60959523D01*
X146492857Y-61035714D01*
X146464285Y-61073809D01*
X146407142Y-61111904D01*
X146235714Y-61111904D01*
X146178571Y-61073809D01*
X146150000Y-61035714D01*
X146285714Y-63800000D02*
X146323809Y-63828571D01*
X146361904Y-63914285D01*
X146361904Y-63971428D01*
X146323809Y-64057142D01*
X146247619Y-64114285D01*
X146171428Y-64142857D01*
X146019047Y-64171428D01*
X145904761Y-64171428D01*
X145752380Y-64142857D01*
X145676190Y-64114285D01*
X145600000Y-64057142D01*
X145561904Y-63971428D01*
X145561904Y-63914285D01*
X145600000Y-63828571D01*
X145638095Y-63800000D01*
X145561904Y-63600000D02*
X145561904Y-63228571D01*
X145866666Y-63428571D01*
X145866666Y-63342857D01*
X145904761Y-63285714D01*
X145942857Y-63257142D01*
X146019047Y-63228571D01*
X146209523Y-63228571D01*
X146285714Y-63257142D01*
X146323809Y-63285714D01*
X146361904Y-63342857D01*
X146361904Y-63514285D01*
X146323809Y-63571428D01*
X146285714Y-63600000D01*
X120900000Y-67361904D02*
X120614285Y-67361904D01*
X120614285Y-66561904D01*
X121414285Y-67361904D02*
X121071428Y-67361904D01*
X121242857Y-67361904D02*
X121242857Y-66561904D01*
X121185714Y-66676190D01*
X121128571Y-66752380D01*
X121071428Y-66790476D01*
X136692857Y-67188095D02*
X136635714Y-67150000D01*
X136578571Y-67073809D01*
X136492857Y-66959523D01*
X136435714Y-66921428D01*
X136378571Y-66921428D01*
X136407142Y-67111904D02*
X136350000Y-67073809D01*
X136292857Y-66997619D01*
X136264285Y-66845238D01*
X136264285Y-66578571D01*
X136292857Y-66426190D01*
X136350000Y-66350000D01*
X136407142Y-66311904D01*
X136521428Y-66311904D01*
X136578571Y-66350000D01*
X136635714Y-66426190D01*
X136664285Y-66578571D01*
X136664285Y-66845238D01*
X136635714Y-66997619D01*
X136578571Y-67073809D01*
X136521428Y-67111904D01*
X136407142Y-67111904D01*
X136892857Y-66388095D02*
X136921428Y-66350000D01*
X136978571Y-66311904D01*
X137121428Y-66311904D01*
X137178571Y-66350000D01*
X137207142Y-66388095D01*
X137235714Y-66464285D01*
X137235714Y-66540476D01*
X137207142Y-66654761D01*
X136864285Y-67111904D01*
X137235714Y-67111904D01*
X147192857Y-67188095D02*
X147135714Y-67150000D01*
X147078571Y-67073809D01*
X146992857Y-66959523D01*
X146935714Y-66921428D01*
X146878571Y-66921428D01*
X146907142Y-67111904D02*
X146850000Y-67073809D01*
X146792857Y-66997619D01*
X146764285Y-66845238D01*
X146764285Y-66578571D01*
X146792857Y-66426190D01*
X146850000Y-66350000D01*
X146907142Y-66311904D01*
X147021428Y-66311904D01*
X147078571Y-66350000D01*
X147135714Y-66426190D01*
X147164285Y-66578571D01*
X147164285Y-66845238D01*
X147135714Y-66997619D01*
X147078571Y-67073809D01*
X147021428Y-67111904D01*
X146907142Y-67111904D01*
X147735714Y-67111904D02*
X147392857Y-67111904D01*
X147564285Y-67111904D02*
X147564285Y-66311904D01*
X147507142Y-66426190D01*
X147450000Y-66502380D01*
X147392857Y-66540476D01*
M02*
