G04 #@! TF.GenerationSoftware,KiCad,Pcbnew,(5.1.2)-2*
G04 #@! TF.CreationDate,2021-10-19T00:11:07+01:00*
G04 #@! TF.ProjectId,HVDCDC,48564443-4443-42e6-9b69-6361645f7063,rev?*
G04 #@! TF.SameCoordinates,Original*
G04 #@! TF.FileFunction,Copper,L3,Inr*
G04 #@! TF.FilePolarity,Positive*
%FSLAX46Y46*%
G04 Gerber Fmt 4.6, Leading zero omitted, Abs format (unit mm)*
G04 Created by KiCad (PCBNEW (5.1.2)-2) date 2021-10-19 00:11:07*
%MOMM*%
%LPD*%
G04 APERTURE LIST*
%ADD10O,1.700000X1.700000*%
%ADD11R,1.700000X1.700000*%
%ADD12C,0.800000*%
%ADD13C,0.600000*%
%ADD14C,0.200000*%
G04 APERTURE END LIST*
D10*
X150200000Y-72340000D03*
D11*
X150200000Y-69800000D03*
D10*
X113800000Y-72140000D03*
D11*
X113800000Y-69600000D03*
D10*
X150200000Y-61810000D03*
D11*
X150200000Y-64350000D03*
D12*
X145250000Y-62000000D03*
X146750000Y-62000000D03*
X144500000Y-62000000D03*
X143000000Y-62000000D03*
X122750000Y-68000000D03*
X122750000Y-66500000D03*
X122750000Y-65000000D03*
X124000000Y-68000000D03*
X124000000Y-66500000D03*
X124000000Y-65000000D03*
X133750000Y-68000000D03*
X132500000Y-68000000D03*
X132500000Y-66500000D03*
X133750000Y-66500000D03*
X133750000Y-65000000D03*
X132500000Y-65000000D03*
X137500000Y-64000000D03*
X136500000Y-64000000D03*
X136500000Y-63000000D03*
X137500000Y-63000000D03*
X138500000Y-63000000D03*
X138500000Y-64000000D03*
X138500000Y-65000000D03*
X137500000Y-65000000D03*
X136500000Y-65000000D03*
X139500000Y-65000000D03*
X139500000Y-64000000D03*
X139500000Y-63000000D03*
X139500000Y-62000000D03*
X138500000Y-62000000D03*
X137500000Y-62000000D03*
X136500000Y-62000000D03*
X139500000Y-61000000D03*
X138500000Y-61000000D03*
X137500000Y-61000000D03*
X136500000Y-61000000D03*
X144750000Y-70500000D03*
X143750000Y-70500000D03*
X142750000Y-70500000D03*
X141750000Y-70500000D03*
X141750000Y-69500000D03*
X142750000Y-69500000D03*
X143750000Y-69500000D03*
X144750000Y-69500000D03*
X145750000Y-69500000D03*
X145750000Y-68500000D03*
X144750000Y-68500000D03*
X143750000Y-68500000D03*
X142750000Y-68500000D03*
X141750000Y-68500000D03*
X141750000Y-67500000D03*
X142750000Y-67500000D03*
X143750000Y-67500000D03*
X144750000Y-67500000D03*
X118250000Y-72750000D03*
X119250000Y-72750000D03*
X120250000Y-72750000D03*
X121250000Y-72750000D03*
X121250000Y-71750000D03*
X120250000Y-71750000D03*
X119250000Y-71750000D03*
X118250000Y-71750000D03*
X117250000Y-78000000D03*
X113000000Y-64500000D03*
X114000000Y-64500000D03*
X115250000Y-64500000D03*
X115250000Y-63500000D03*
X114000000Y-63500000D03*
X113000000Y-63500000D03*
X142000000Y-61000000D03*
X142250000Y-77000000D03*
X125250000Y-77500000D03*
X121250000Y-70000000D03*
X140000000Y-77500000D03*
X148250000Y-74500000D03*
X148239168Y-77599084D03*
X116750000Y-71062510D03*
X112625000Y-79000000D03*
X145000000Y-74500000D03*
X126300000Y-73700004D03*
D13*
X131200000Y-75999999D03*
X127300243Y-74424696D03*
D12*
X131199985Y-72600000D03*
X142000000Y-74000000D03*
X115000000Y-76750000D03*
X121250000Y-79250000D03*
X147900000Y-79375000D03*
X131500000Y-78250016D03*
X145500000Y-78000000D03*
X120000000Y-77000000D03*
X122750000Y-77049968D03*
D13*
X127800000Y-73800000D03*
X131211107Y-75094587D03*
D12*
X141750000Y-66500000D03*
X142750000Y-66500000D03*
X143750000Y-66500000D03*
X144750000Y-66500000D03*
X145750000Y-66500000D03*
X146750000Y-66500000D03*
X146750000Y-67500000D03*
X145750000Y-67500000D03*
X146750000Y-68500000D03*
X146750000Y-69500000D03*
X145750000Y-70500000D03*
X141750000Y-71500000D03*
X142750000Y-71500000D03*
X143750000Y-71500000D03*
X144750000Y-71500000D03*
X145750000Y-71500000D03*
X133450000Y-75040000D03*
X134000000Y-74069998D03*
X132008326Y-76504231D03*
X124787500Y-75287500D03*
D13*
X128225000Y-76460692D03*
D12*
X137750000Y-75750000D03*
X137792659Y-77292663D03*
X135500000Y-61000000D03*
X140500000Y-61000000D03*
X135500000Y-62000000D03*
X139500000Y-66000000D03*
X138500000Y-66000000D03*
X137500000Y-66000000D03*
X136500000Y-66000000D03*
X135500000Y-66000000D03*
X135500000Y-63000000D03*
X135500000Y-64000000D03*
X135500000Y-65000000D03*
X129000000Y-60750000D03*
X129000000Y-68750000D03*
D14*
G36*
X121900000Y-73000000D02*
G01*
X121901921Y-73019509D01*
X121907612Y-73038268D01*
X121916853Y-73055557D01*
X121929289Y-73070711D01*
X121944443Y-73083147D01*
X121961732Y-73092388D01*
X121980491Y-73098079D01*
X122000000Y-73100000D01*
X125848005Y-73100000D01*
X125821903Y-73117441D01*
X125717437Y-73221907D01*
X125635359Y-73344746D01*
X125578822Y-73481237D01*
X125550000Y-73626135D01*
X125550000Y-73773873D01*
X125578822Y-73918771D01*
X125635359Y-74055262D01*
X125717437Y-74178101D01*
X125821903Y-74282567D01*
X125944742Y-74364645D01*
X126081233Y-74421182D01*
X126226131Y-74450004D01*
X126373869Y-74450004D01*
X126518767Y-74421182D01*
X126650243Y-74366722D01*
X126650243Y-74488715D01*
X126675222Y-74614294D01*
X126724221Y-74732586D01*
X126795355Y-74839047D01*
X126885892Y-74929584D01*
X126992353Y-75000718D01*
X127110645Y-75049717D01*
X127236224Y-75074696D01*
X127364262Y-75074696D01*
X127489841Y-75049717D01*
X127608133Y-75000718D01*
X127714594Y-74929584D01*
X127805131Y-74839047D01*
X127876265Y-74732586D01*
X127925264Y-74614294D01*
X127950243Y-74488715D01*
X127950243Y-74360677D01*
X127925264Y-74235098D01*
X127876265Y-74116806D01*
X127805131Y-74010345D01*
X127714594Y-73919808D01*
X127608133Y-73848674D01*
X127489841Y-73799675D01*
X127364262Y-73774696D01*
X127236224Y-73774696D01*
X127110645Y-73799675D01*
X127038961Y-73829368D01*
X127050000Y-73773873D01*
X127050000Y-73626135D01*
X127021178Y-73481237D01*
X126964641Y-73344746D01*
X126882563Y-73221907D01*
X126778097Y-73117441D01*
X126751995Y-73100000D01*
X130639325Y-73100000D01*
X130721888Y-73182563D01*
X130844727Y-73264641D01*
X130981218Y-73321178D01*
X131126116Y-73350000D01*
X131273854Y-73350000D01*
X131418752Y-73321178D01*
X131555243Y-73264641D01*
X131678082Y-73182563D01*
X131760645Y-73100000D01*
X131900000Y-73100000D01*
X131900000Y-75761085D01*
X131811856Y-75778618D01*
X131776022Y-75692109D01*
X131704888Y-75585648D01*
X131614351Y-75495111D01*
X131507890Y-75423977D01*
X131389598Y-75374978D01*
X131264019Y-75349999D01*
X131135981Y-75349999D01*
X131010402Y-75374978D01*
X130892110Y-75423977D01*
X130785649Y-75495111D01*
X130695112Y-75585648D01*
X130623978Y-75692109D01*
X130574979Y-75810401D01*
X130550000Y-75935980D01*
X130550000Y-76064018D01*
X130574979Y-76189597D01*
X130623978Y-76307889D01*
X130695112Y-76414350D01*
X130785649Y-76504887D01*
X130892110Y-76576021D01*
X131010402Y-76625020D01*
X131135981Y-76649999D01*
X131264019Y-76649999D01*
X131272300Y-76648352D01*
X131287148Y-76722998D01*
X131343685Y-76859489D01*
X131425763Y-76982328D01*
X131530229Y-77086794D01*
X131653068Y-77168872D01*
X131789559Y-77225409D01*
X131900000Y-77247377D01*
X131900000Y-77615271D01*
X131855258Y-77585375D01*
X131718767Y-77528838D01*
X131573869Y-77500016D01*
X131426131Y-77500016D01*
X131281233Y-77528838D01*
X131144742Y-77585375D01*
X131021903Y-77667453D01*
X130917437Y-77771919D01*
X130835359Y-77894758D01*
X130778822Y-78031249D01*
X130750000Y-78176147D01*
X130750000Y-78323885D01*
X130765140Y-78400000D01*
X118100000Y-78400000D01*
X118100000Y-77426131D01*
X124500000Y-77426131D01*
X124500000Y-77573869D01*
X124528822Y-77718767D01*
X124585359Y-77855258D01*
X124667437Y-77978097D01*
X124771903Y-78082563D01*
X124894742Y-78164641D01*
X125031233Y-78221178D01*
X125176131Y-78250000D01*
X125323869Y-78250000D01*
X125468767Y-78221178D01*
X125605258Y-78164641D01*
X125728097Y-78082563D01*
X125832563Y-77978097D01*
X125914641Y-77855258D01*
X125971178Y-77718767D01*
X126000000Y-77573869D01*
X126000000Y-77426131D01*
X125971178Y-77281233D01*
X125914641Y-77144742D01*
X125832563Y-77021903D01*
X125728097Y-76917437D01*
X125605258Y-76835359D01*
X125468767Y-76778822D01*
X125323869Y-76750000D01*
X125176131Y-76750000D01*
X125031233Y-76778822D01*
X124894742Y-76835359D01*
X124771903Y-76917437D01*
X124667437Y-77021903D01*
X124585359Y-77144742D01*
X124528822Y-77281233D01*
X124500000Y-77426131D01*
X118100000Y-77426131D01*
X118100000Y-76396673D01*
X127575000Y-76396673D01*
X127575000Y-76524711D01*
X127599979Y-76650290D01*
X127648978Y-76768582D01*
X127720112Y-76875043D01*
X127810649Y-76965580D01*
X127917110Y-77036714D01*
X128035402Y-77085713D01*
X128160981Y-77110692D01*
X128289019Y-77110692D01*
X128414598Y-77085713D01*
X128532890Y-77036714D01*
X128639351Y-76965580D01*
X128729888Y-76875043D01*
X128801022Y-76768582D01*
X128850021Y-76650290D01*
X128875000Y-76524711D01*
X128875000Y-76396673D01*
X128850021Y-76271094D01*
X128801022Y-76152802D01*
X128729888Y-76046341D01*
X128639351Y-75955804D01*
X128532890Y-75884670D01*
X128414598Y-75835671D01*
X128289019Y-75810692D01*
X128160981Y-75810692D01*
X128035402Y-75835671D01*
X127917110Y-75884670D01*
X127810649Y-75955804D01*
X127720112Y-76046341D01*
X127648978Y-76152802D01*
X127599979Y-76271094D01*
X127575000Y-76396673D01*
X118100000Y-76396673D01*
X118100000Y-75213631D01*
X124037500Y-75213631D01*
X124037500Y-75361369D01*
X124066322Y-75506267D01*
X124122859Y-75642758D01*
X124204937Y-75765597D01*
X124309403Y-75870063D01*
X124432242Y-75952141D01*
X124568733Y-76008678D01*
X124713631Y-76037500D01*
X124861369Y-76037500D01*
X125006267Y-76008678D01*
X125142758Y-75952141D01*
X125265597Y-75870063D01*
X125370063Y-75765597D01*
X125452141Y-75642758D01*
X125508678Y-75506267D01*
X125537500Y-75361369D01*
X125537500Y-75213631D01*
X125508678Y-75068733D01*
X125452141Y-74932242D01*
X125370063Y-74809403D01*
X125265597Y-74704937D01*
X125142758Y-74622859D01*
X125006267Y-74566322D01*
X124861369Y-74537500D01*
X124713631Y-74537500D01*
X124568733Y-74566322D01*
X124432242Y-74622859D01*
X124309403Y-74704937D01*
X124204937Y-74809403D01*
X124122859Y-74932242D01*
X124066322Y-75068733D01*
X124037500Y-75213631D01*
X118100000Y-75213631D01*
X118100000Y-71350000D01*
X121900000Y-71350000D01*
X121900000Y-73000000D01*
X121900000Y-73000000D01*
G37*
X121900000Y-73000000D02*
X121901921Y-73019509D01*
X121907612Y-73038268D01*
X121916853Y-73055557D01*
X121929289Y-73070711D01*
X121944443Y-73083147D01*
X121961732Y-73092388D01*
X121980491Y-73098079D01*
X122000000Y-73100000D01*
X125848005Y-73100000D01*
X125821903Y-73117441D01*
X125717437Y-73221907D01*
X125635359Y-73344746D01*
X125578822Y-73481237D01*
X125550000Y-73626135D01*
X125550000Y-73773873D01*
X125578822Y-73918771D01*
X125635359Y-74055262D01*
X125717437Y-74178101D01*
X125821903Y-74282567D01*
X125944742Y-74364645D01*
X126081233Y-74421182D01*
X126226131Y-74450004D01*
X126373869Y-74450004D01*
X126518767Y-74421182D01*
X126650243Y-74366722D01*
X126650243Y-74488715D01*
X126675222Y-74614294D01*
X126724221Y-74732586D01*
X126795355Y-74839047D01*
X126885892Y-74929584D01*
X126992353Y-75000718D01*
X127110645Y-75049717D01*
X127236224Y-75074696D01*
X127364262Y-75074696D01*
X127489841Y-75049717D01*
X127608133Y-75000718D01*
X127714594Y-74929584D01*
X127805131Y-74839047D01*
X127876265Y-74732586D01*
X127925264Y-74614294D01*
X127950243Y-74488715D01*
X127950243Y-74360677D01*
X127925264Y-74235098D01*
X127876265Y-74116806D01*
X127805131Y-74010345D01*
X127714594Y-73919808D01*
X127608133Y-73848674D01*
X127489841Y-73799675D01*
X127364262Y-73774696D01*
X127236224Y-73774696D01*
X127110645Y-73799675D01*
X127038961Y-73829368D01*
X127050000Y-73773873D01*
X127050000Y-73626135D01*
X127021178Y-73481237D01*
X126964641Y-73344746D01*
X126882563Y-73221907D01*
X126778097Y-73117441D01*
X126751995Y-73100000D01*
X130639325Y-73100000D01*
X130721888Y-73182563D01*
X130844727Y-73264641D01*
X130981218Y-73321178D01*
X131126116Y-73350000D01*
X131273854Y-73350000D01*
X131418752Y-73321178D01*
X131555243Y-73264641D01*
X131678082Y-73182563D01*
X131760645Y-73100000D01*
X131900000Y-73100000D01*
X131900000Y-75761085D01*
X131811856Y-75778618D01*
X131776022Y-75692109D01*
X131704888Y-75585648D01*
X131614351Y-75495111D01*
X131507890Y-75423977D01*
X131389598Y-75374978D01*
X131264019Y-75349999D01*
X131135981Y-75349999D01*
X131010402Y-75374978D01*
X130892110Y-75423977D01*
X130785649Y-75495111D01*
X130695112Y-75585648D01*
X130623978Y-75692109D01*
X130574979Y-75810401D01*
X130550000Y-75935980D01*
X130550000Y-76064018D01*
X130574979Y-76189597D01*
X130623978Y-76307889D01*
X130695112Y-76414350D01*
X130785649Y-76504887D01*
X130892110Y-76576021D01*
X131010402Y-76625020D01*
X131135981Y-76649999D01*
X131264019Y-76649999D01*
X131272300Y-76648352D01*
X131287148Y-76722998D01*
X131343685Y-76859489D01*
X131425763Y-76982328D01*
X131530229Y-77086794D01*
X131653068Y-77168872D01*
X131789559Y-77225409D01*
X131900000Y-77247377D01*
X131900000Y-77615271D01*
X131855258Y-77585375D01*
X131718767Y-77528838D01*
X131573869Y-77500016D01*
X131426131Y-77500016D01*
X131281233Y-77528838D01*
X131144742Y-77585375D01*
X131021903Y-77667453D01*
X130917437Y-77771919D01*
X130835359Y-77894758D01*
X130778822Y-78031249D01*
X130750000Y-78176147D01*
X130750000Y-78323885D01*
X130765140Y-78400000D01*
X118100000Y-78400000D01*
X118100000Y-77426131D01*
X124500000Y-77426131D01*
X124500000Y-77573869D01*
X124528822Y-77718767D01*
X124585359Y-77855258D01*
X124667437Y-77978097D01*
X124771903Y-78082563D01*
X124894742Y-78164641D01*
X125031233Y-78221178D01*
X125176131Y-78250000D01*
X125323869Y-78250000D01*
X125468767Y-78221178D01*
X125605258Y-78164641D01*
X125728097Y-78082563D01*
X125832563Y-77978097D01*
X125914641Y-77855258D01*
X125971178Y-77718767D01*
X126000000Y-77573869D01*
X126000000Y-77426131D01*
X125971178Y-77281233D01*
X125914641Y-77144742D01*
X125832563Y-77021903D01*
X125728097Y-76917437D01*
X125605258Y-76835359D01*
X125468767Y-76778822D01*
X125323869Y-76750000D01*
X125176131Y-76750000D01*
X125031233Y-76778822D01*
X124894742Y-76835359D01*
X124771903Y-76917437D01*
X124667437Y-77021903D01*
X124585359Y-77144742D01*
X124528822Y-77281233D01*
X124500000Y-77426131D01*
X118100000Y-77426131D01*
X118100000Y-76396673D01*
X127575000Y-76396673D01*
X127575000Y-76524711D01*
X127599979Y-76650290D01*
X127648978Y-76768582D01*
X127720112Y-76875043D01*
X127810649Y-76965580D01*
X127917110Y-77036714D01*
X128035402Y-77085713D01*
X128160981Y-77110692D01*
X128289019Y-77110692D01*
X128414598Y-77085713D01*
X128532890Y-77036714D01*
X128639351Y-76965580D01*
X128729888Y-76875043D01*
X128801022Y-76768582D01*
X128850021Y-76650290D01*
X128875000Y-76524711D01*
X128875000Y-76396673D01*
X128850021Y-76271094D01*
X128801022Y-76152802D01*
X128729888Y-76046341D01*
X128639351Y-75955804D01*
X128532890Y-75884670D01*
X128414598Y-75835671D01*
X128289019Y-75810692D01*
X128160981Y-75810692D01*
X128035402Y-75835671D01*
X127917110Y-75884670D01*
X127810649Y-75955804D01*
X127720112Y-76046341D01*
X127648978Y-76152802D01*
X127599979Y-76271094D01*
X127575000Y-76396673D01*
X118100000Y-76396673D01*
X118100000Y-75213631D01*
X124037500Y-75213631D01*
X124037500Y-75361369D01*
X124066322Y-75506267D01*
X124122859Y-75642758D01*
X124204937Y-75765597D01*
X124309403Y-75870063D01*
X124432242Y-75952141D01*
X124568733Y-76008678D01*
X124713631Y-76037500D01*
X124861369Y-76037500D01*
X125006267Y-76008678D01*
X125142758Y-75952141D01*
X125265597Y-75870063D01*
X125370063Y-75765597D01*
X125452141Y-75642758D01*
X125508678Y-75506267D01*
X125537500Y-75361369D01*
X125537500Y-75213631D01*
X125508678Y-75068733D01*
X125452141Y-74932242D01*
X125370063Y-74809403D01*
X125265597Y-74704937D01*
X125142758Y-74622859D01*
X125006267Y-74566322D01*
X124861369Y-74537500D01*
X124713631Y-74537500D01*
X124568733Y-74566322D01*
X124432242Y-74622859D01*
X124309403Y-74704937D01*
X124204937Y-74809403D01*
X124122859Y-74932242D01*
X124066322Y-75068733D01*
X124037500Y-75213631D01*
X118100000Y-75213631D01*
X118100000Y-71350000D01*
X121900000Y-71350000D01*
X121900000Y-73000000D01*
G36*
X147801917Y-76989228D02*
G01*
X147761071Y-77016521D01*
X147656605Y-77120987D01*
X147574527Y-77243826D01*
X147517990Y-77380317D01*
X147489168Y-77525215D01*
X147489168Y-77672953D01*
X147517990Y-77817851D01*
X147574527Y-77954342D01*
X147656605Y-78077181D01*
X147761071Y-78181647D01*
X147883910Y-78263725D01*
X147902503Y-78271426D01*
X147907612Y-78288268D01*
X147916853Y-78305557D01*
X147929289Y-78320711D01*
X147944443Y-78333147D01*
X147961732Y-78342388D01*
X147980491Y-78348079D01*
X148000000Y-78350000D01*
X151625001Y-78350000D01*
X151625001Y-79625000D01*
X114100000Y-79625000D01*
X114100000Y-76100000D01*
X116900000Y-76100000D01*
X116900000Y-77333181D01*
X116894742Y-77335359D01*
X116771903Y-77417437D01*
X116667437Y-77521903D01*
X116585359Y-77644742D01*
X116528822Y-77781233D01*
X116500000Y-77926131D01*
X116500000Y-78073869D01*
X116528822Y-78218767D01*
X116585359Y-78355258D01*
X116667437Y-78478097D01*
X116771903Y-78582563D01*
X116894742Y-78664641D01*
X116900000Y-78666819D01*
X116900000Y-79000000D01*
X116901921Y-79019509D01*
X116907612Y-79038268D01*
X116916853Y-79055557D01*
X116929289Y-79070711D01*
X116944443Y-79083147D01*
X116961732Y-79092388D01*
X116980491Y-79098079D01*
X117000000Y-79100000D01*
X141000000Y-79100000D01*
X141019509Y-79098079D01*
X141038268Y-79092388D01*
X141055557Y-79083147D01*
X141070711Y-79070711D01*
X141083147Y-79055557D01*
X141092388Y-79038268D01*
X141098079Y-79019509D01*
X141100000Y-79000000D01*
X141100000Y-77926131D01*
X144750000Y-77926131D01*
X144750000Y-78073869D01*
X144778822Y-78218767D01*
X144835359Y-78355258D01*
X144917437Y-78478097D01*
X145021903Y-78582563D01*
X145144742Y-78664641D01*
X145281233Y-78721178D01*
X145426131Y-78750000D01*
X145573869Y-78750000D01*
X145718767Y-78721178D01*
X145855258Y-78664641D01*
X145978097Y-78582563D01*
X146082563Y-78478097D01*
X146164641Y-78355258D01*
X146221178Y-78218767D01*
X146250000Y-78073869D01*
X146250000Y-77926131D01*
X146221178Y-77781233D01*
X146164641Y-77644742D01*
X146082563Y-77521903D01*
X145978097Y-77417437D01*
X145855258Y-77335359D01*
X145718767Y-77278822D01*
X145573869Y-77250000D01*
X145426131Y-77250000D01*
X145281233Y-77278822D01*
X145144742Y-77335359D01*
X145021903Y-77417437D01*
X144917437Y-77521903D01*
X144835359Y-77644742D01*
X144778822Y-77781233D01*
X144750000Y-77926131D01*
X141100000Y-77926131D01*
X141100000Y-76926131D01*
X141500000Y-76926131D01*
X141500000Y-77073869D01*
X141528822Y-77218767D01*
X141585359Y-77355258D01*
X141667437Y-77478097D01*
X141771903Y-77582563D01*
X141894742Y-77664641D01*
X142031233Y-77721178D01*
X142176131Y-77750000D01*
X142323869Y-77750000D01*
X142468767Y-77721178D01*
X142605258Y-77664641D01*
X142728097Y-77582563D01*
X142832563Y-77478097D01*
X142914641Y-77355258D01*
X142971178Y-77218767D01*
X143000000Y-77073869D01*
X143000000Y-76926131D01*
X142971178Y-76781233D01*
X142914641Y-76644742D01*
X142832563Y-76521903D01*
X142728097Y-76417437D01*
X142605258Y-76335359D01*
X142468767Y-76278822D01*
X142323869Y-76250000D01*
X142176131Y-76250000D01*
X142031233Y-76278822D01*
X141894742Y-76335359D01*
X141771903Y-76417437D01*
X141667437Y-76521903D01*
X141585359Y-76644742D01*
X141528822Y-76781233D01*
X141500000Y-76926131D01*
X141100000Y-76926131D01*
X141100000Y-74426131D01*
X144250000Y-74426131D01*
X144250000Y-74573869D01*
X144278822Y-74718767D01*
X144335359Y-74855258D01*
X144417437Y-74978097D01*
X144521903Y-75082563D01*
X144644742Y-75164641D01*
X144781233Y-75221178D01*
X144926131Y-75250000D01*
X145073869Y-75250000D01*
X145218767Y-75221178D01*
X145355258Y-75164641D01*
X145478097Y-75082563D01*
X145582563Y-74978097D01*
X145664641Y-74855258D01*
X145721178Y-74718767D01*
X145750000Y-74573869D01*
X145750000Y-74426131D01*
X145721178Y-74281233D01*
X145664641Y-74144742D01*
X145582563Y-74021903D01*
X145478097Y-73917437D01*
X145355258Y-73835359D01*
X145218767Y-73778822D01*
X145073869Y-73750000D01*
X144926131Y-73750000D01*
X144781233Y-73778822D01*
X144644742Y-73835359D01*
X144521903Y-73917437D01*
X144417437Y-74021903D01*
X144335359Y-74144742D01*
X144278822Y-74281233D01*
X144250000Y-74426131D01*
X141100000Y-74426131D01*
X141100000Y-73100000D01*
X146429249Y-73100000D01*
X147801917Y-76989228D01*
X147801917Y-76989228D01*
G37*
X147801917Y-76989228D02*
X147761071Y-77016521D01*
X147656605Y-77120987D01*
X147574527Y-77243826D01*
X147517990Y-77380317D01*
X147489168Y-77525215D01*
X147489168Y-77672953D01*
X147517990Y-77817851D01*
X147574527Y-77954342D01*
X147656605Y-78077181D01*
X147761071Y-78181647D01*
X147883910Y-78263725D01*
X147902503Y-78271426D01*
X147907612Y-78288268D01*
X147916853Y-78305557D01*
X147929289Y-78320711D01*
X147944443Y-78333147D01*
X147961732Y-78342388D01*
X147980491Y-78348079D01*
X148000000Y-78350000D01*
X151625001Y-78350000D01*
X151625001Y-79625000D01*
X114100000Y-79625000D01*
X114100000Y-76100000D01*
X116900000Y-76100000D01*
X116900000Y-77333181D01*
X116894742Y-77335359D01*
X116771903Y-77417437D01*
X116667437Y-77521903D01*
X116585359Y-77644742D01*
X116528822Y-77781233D01*
X116500000Y-77926131D01*
X116500000Y-78073869D01*
X116528822Y-78218767D01*
X116585359Y-78355258D01*
X116667437Y-78478097D01*
X116771903Y-78582563D01*
X116894742Y-78664641D01*
X116900000Y-78666819D01*
X116900000Y-79000000D01*
X116901921Y-79019509D01*
X116907612Y-79038268D01*
X116916853Y-79055557D01*
X116929289Y-79070711D01*
X116944443Y-79083147D01*
X116961732Y-79092388D01*
X116980491Y-79098079D01*
X117000000Y-79100000D01*
X141000000Y-79100000D01*
X141019509Y-79098079D01*
X141038268Y-79092388D01*
X141055557Y-79083147D01*
X141070711Y-79070711D01*
X141083147Y-79055557D01*
X141092388Y-79038268D01*
X141098079Y-79019509D01*
X141100000Y-79000000D01*
X141100000Y-77926131D01*
X144750000Y-77926131D01*
X144750000Y-78073869D01*
X144778822Y-78218767D01*
X144835359Y-78355258D01*
X144917437Y-78478097D01*
X145021903Y-78582563D01*
X145144742Y-78664641D01*
X145281233Y-78721178D01*
X145426131Y-78750000D01*
X145573869Y-78750000D01*
X145718767Y-78721178D01*
X145855258Y-78664641D01*
X145978097Y-78582563D01*
X146082563Y-78478097D01*
X146164641Y-78355258D01*
X146221178Y-78218767D01*
X146250000Y-78073869D01*
X146250000Y-77926131D01*
X146221178Y-77781233D01*
X146164641Y-77644742D01*
X146082563Y-77521903D01*
X145978097Y-77417437D01*
X145855258Y-77335359D01*
X145718767Y-77278822D01*
X145573869Y-77250000D01*
X145426131Y-77250000D01*
X145281233Y-77278822D01*
X145144742Y-77335359D01*
X145021903Y-77417437D01*
X144917437Y-77521903D01*
X144835359Y-77644742D01*
X144778822Y-77781233D01*
X144750000Y-77926131D01*
X141100000Y-77926131D01*
X141100000Y-76926131D01*
X141500000Y-76926131D01*
X141500000Y-77073869D01*
X141528822Y-77218767D01*
X141585359Y-77355258D01*
X141667437Y-77478097D01*
X141771903Y-77582563D01*
X141894742Y-77664641D01*
X142031233Y-77721178D01*
X142176131Y-77750000D01*
X142323869Y-77750000D01*
X142468767Y-77721178D01*
X142605258Y-77664641D01*
X142728097Y-77582563D01*
X142832563Y-77478097D01*
X142914641Y-77355258D01*
X142971178Y-77218767D01*
X143000000Y-77073869D01*
X143000000Y-76926131D01*
X142971178Y-76781233D01*
X142914641Y-76644742D01*
X142832563Y-76521903D01*
X142728097Y-76417437D01*
X142605258Y-76335359D01*
X142468767Y-76278822D01*
X142323869Y-76250000D01*
X142176131Y-76250000D01*
X142031233Y-76278822D01*
X141894742Y-76335359D01*
X141771903Y-76417437D01*
X141667437Y-76521903D01*
X141585359Y-76644742D01*
X141528822Y-76781233D01*
X141500000Y-76926131D01*
X141100000Y-76926131D01*
X141100000Y-74426131D01*
X144250000Y-74426131D01*
X144250000Y-74573869D01*
X144278822Y-74718767D01*
X144335359Y-74855258D01*
X144417437Y-74978097D01*
X144521903Y-75082563D01*
X144644742Y-75164641D01*
X144781233Y-75221178D01*
X144926131Y-75250000D01*
X145073869Y-75250000D01*
X145218767Y-75221178D01*
X145355258Y-75164641D01*
X145478097Y-75082563D01*
X145582563Y-74978097D01*
X145664641Y-74855258D01*
X145721178Y-74718767D01*
X145750000Y-74573869D01*
X145750000Y-74426131D01*
X145721178Y-74281233D01*
X145664641Y-74144742D01*
X145582563Y-74021903D01*
X145478097Y-73917437D01*
X145355258Y-73835359D01*
X145218767Y-73778822D01*
X145073869Y-73750000D01*
X144926131Y-73750000D01*
X144781233Y-73778822D01*
X144644742Y-73835359D01*
X144521903Y-73917437D01*
X144417437Y-74021903D01*
X144335359Y-74144742D01*
X144278822Y-74281233D01*
X144250000Y-74426131D01*
X141100000Y-74426131D01*
X141100000Y-73100000D01*
X146429249Y-73100000D01*
X147801917Y-76989228D01*
M02*
